<svg xmlns="http://www.w3.org/2000/svg" data-name="Layer 1" viewBox="0 0 512 512"><g data-name="&lt;Group&gt;"><path d="M95.984,445H457.937c4.418,0,8.063-4.027,8.063-8.446V150.333a7.884,7.884,0,0,0-7.811-8L400,141.963V75.446a8.189,8.189,0,0,0-13.846-5.721L312.64,141.41,144,140.339V112.433c0-4.418-3.323-8.433-7.741-8.433H95.984c-24.919,0-45.631,19-49.331,43H46V401h.519C49.78,426,70.712,445,95.984,445ZM384,125H365.925a8,8,0,0,0,0,16H384v12H377.9a8,8,0,0,0,0,16H384v15H365.925a8,8,0,1,0,0,16H384v16H377.9a8,8,0,0,0,0,16H384v15H365.925a8,8,0,1,0,0,16H384v13H377.9a8,8,0,0,0,0,16H384v2H179.969L384,94.452Zm-87.667,32.307L154.683,295.82a8.362,8.362,0,0,0-1.784,8.97,8.258,8.258,0,0,0,7.44,5.21H391.661A8.7,8.7,0,0,0,400,301.542V157.963l50,.32V429H95.984C77.28,429,62,413.337,62,394.633v-5.112A33.674,33.674,0,0,1,95.984,356h40.275c4.418,0,7.741-3.982,7.741-8.4V156.34ZM95.984,120H128V340H95.984A49.7,49.7,0,0,0,62,352.939V154.354C62,135.65,77.28,120,95.984,120Z" data-name="&lt;Compound Path&gt;"/><path d="M267.56,258.846A8.2,8.2,0,0,0,274.953,264h66.134c4.419,0,7.913-4,7.913-8.42V189.635a7.952,7.952,0,0,0-13.583-5.665l-66.124,66.05A8.164,8.164,0,0,0,267.56,258.846ZM333,208.91V248H294.306Z" data-name="&lt;Compound Path&gt;"/></g></svg>