<svg fill="#074EAD" xmlns="http://www.w3.org/2000/svg" enable-background="new 0 0 80 80" viewBox="0 0 80 80"><path d="M66.0012207,14H47.0007324h-3.9946289H28.0007324h-3.9946289h-19L5.0002441,30h9.0040283l-0.0033569,8h-8.994812
	L4.9992676,54h9.005127l-0.005127,12h19.0009766h4.0004883h14.9995117h4.0004883h19V50h-9v-8h9V26h-8.9995117V14z M47.0041504,18
	h14.9970703v8H54.005127h-7.0039062L47.0041504,18z M47.0007324,30h5v8h-15v-8h5.9995117H47.0007324z M43.0007324,50h-6h-3.9946289
	h-5.0048828l0.0031128-8h6.9963989h2h6V50z M28.0041504,18h14.996582v8H28.0012207L28.0041504,18z M9.0041504,18h14.996582v8
	H9.0012207L9.0041504,18z M24.0002441,30h4.0004883h5v8H18.0012207l0.0031128-8H24.0002441z M9.0012207,50l0.0029297-8h4.9951172
	h2.0009766h8.0004883v8h-9.9946289H9.0012207z M18.0012207,62l0.0029297-8h5.9960938h4.0004883h5v8H18.0012207z M37.0012207,62
	l0.0029297-8h7.996582h2h5v8H37.0012207z M71.0007324,54v8H56.0012207l0.0029297-8h9.996582H71.0007324z M62.0007324,50h-6
	h-3.9946289h-5.0053711v-8h7h2h6V50z M71.0007324,30v8h-15v-8h10.0004883H71.0007324z"/></svg>