<svg width="220" height="220" viewBox="0 0 220 220" fill="none" xmlns="http://www.w3.org/2000/svg">
<path d="M167.196 125.447C166.243 125.447 165.283 125.392 164.34 125.282C163.499 125.184 162.877 124.447 162.926 123.599C163.051 121.397 161.773 119.348 159.749 118.501C157.819 117.692 155.304 118.258 153.892 119.819C153.322 120.448 152.358 120.523 151.7 119.992C150.246 118.82 148.926 117.486 147.777 116.024C147.262 115.37 147.339 114.416 147.952 113.854C149.559 112.381 150.087 110.047 149.266 108.044C148.453 106.066 146.508 104.773 144.436 104.826C143.632 104.826 142.678 104.243 142.584 103.408C142.375 101.526 142.377 99.6274 142.595 97.7696C142.699 96.908 143.383 96.3274 144.255 96.3559C146.551 96.3559 148.563 95.1093 149.374 93.1802C150.223 91.1554 149.696 88.8006 148.06 87.3196C147.435 86.7493 147.359 85.7878 147.889 85.1298C149.06 83.6672 150.411 82.333 151.9 81.1637C152.558 80.6504 153.511 80.7319 154.073 81.347C155.473 82.885 157.972 83.4554 159.889 82.6711C161.889 81.8522 163.181 79.8376 163.106 77.658C163.077 76.8248 163.704 76.1017 164.532 76.01C166.377 75.8043 168.253 75.8104 170.109 76.0243C170.952 76.122 171.574 76.8615 171.523 77.7069C171.398 79.9069 172.674 81.9561 174.696 82.8076C176.629 83.6143 179.149 83.048 180.555 81.4917C181.123 80.8622 182.085 80.7848 182.745 81.3144C184.191 82.4715 185.511 83.8078 186.674 85.2826C187.192 85.9385 187.114 86.8919 186.499 87.4541C184.894 88.9269 184.366 91.2613 185.185 93.2637C185.986 95.2193 187.896 96.4822 190.052 96.4822C190.834 96.4822 191.771 97.0648 191.864 97.902C192.074 99.7843 192.072 101.683 191.854 103.541C191.755 104.386 190.997 105.021 190.164 104.952L189.872 104.944C187.803 104.944 185.869 106.223 185.073 108.128C184.224 110.151 184.753 112.506 186.389 113.989C187.016 114.557 187.092 115.518 186.562 116.178C185.383 117.647 184.032 118.981 182.551 120.144C181.881 120.662 180.948 120.584 180.378 119.963C178.976 118.425 176.475 117.855 174.558 118.639C172.557 119.458 171.266 121.473 171.343 123.65C171.372 124.483 170.744 125.209 169.917 125.3C169.017 125.396 168.102 125.447 167.196 125.447ZM157.862 117.663C158.577 117.663 159.284 117.794 159.93 118.065C162.14 118.989 163.533 121.224 163.397 123.626C163.362 124.223 163.8 124.744 164.393 124.813C166.198 125.023 168.056 125.029 169.864 124.828C170.449 124.762 170.891 124.251 170.871 123.664C170.785 121.291 172.195 119.095 174.377 118.201C176.469 117.348 179.196 117.967 180.722 119.645C181.123 120.083 181.783 120.138 182.256 119.772C183.708 118.633 185.032 117.323 186.189 115.883C186.564 115.419 186.511 114.74 186.067 114.339C184.283 112.721 183.706 110.153 184.631 107.947C185.503 105.869 187.609 104.474 189.872 104.474L190.182 104.482C190.779 104.529 191.308 104.082 191.38 103.486C191.594 101.662 191.598 99.8006 191.39 97.955C191.327 97.3928 190.616 96.9548 190.045 96.9548C187.699 96.9548 185.617 95.5757 184.741 93.443C183.849 91.2572 184.423 88.7109 186.173 87.1057C186.607 86.7085 186.662 86.0363 186.297 85.5739C185.159 84.1276 183.861 82.8178 182.445 81.6831C181.981 81.3104 181.302 81.3633 180.901 81.8074C179.367 83.5063 176.619 84.1235 174.511 83.2435C172.303 82.3146 170.914 80.08 171.048 77.6804C171.083 77.0835 170.645 76.562 170.052 76.4928C168.233 76.283 166.391 76.2769 164.58 76.4785C163.996 76.5437 163.554 77.053 163.574 77.6417C163.658 80.0169 162.248 82.2128 160.064 83.107C157.972 83.9606 155.247 83.3413 153.721 81.6628C153.326 81.2289 152.652 81.1719 152.187 81.5344C150.727 82.6813 149.402 83.9891 148.254 85.4232C147.881 85.8876 147.934 86.5659 148.376 86.9672C150.158 88.5826 150.735 91.1513 149.808 93.3615C148.924 95.4657 146.742 96.8265 144.247 96.8265C143.609 96.8081 143.137 97.2074 143.063 97.8246C142.849 99.6478 142.847 101.508 143.053 103.355C143.116 103.917 143.843 104.353 144.43 104.353C146.697 104.294 148.814 105.706 149.702 107.865C150.598 110.049 150.022 112.595 148.27 114.202C147.838 114.6 147.783 115.272 148.146 115.732C149.272 117.166 150.568 118.476 151.994 119.625C152.458 120 153.138 119.945 153.54 119.503C154.607 118.321 156.251 117.663 157.862 117.663ZM167.263 109.132C162.617 109.132 158.836 105.351 158.836 100.705C158.836 96.0585 162.617 92.2778 167.263 92.2778C171.91 92.2778 175.69 96.0585 175.69 100.705C175.69 105.351 171.91 109.132 167.263 109.132ZM167.263 92.7483C162.875 92.7483 159.307 96.3172 159.307 100.705C159.307 105.093 162.875 108.662 167.263 108.662C171.649 108.662 175.218 105.093 175.218 100.705C175.218 96.3172 171.651 92.7483 167.263 92.7483ZM62.7551 157.223C61.6876 157.697 60.5815 158.115 59.4693 158.461C58.4773 158.773 57.4119 158.253 57.0452 157.28C56.0858 154.748 53.6312 153.087 50.9382 153.146C48.3715 153.201 45.8313 155.092 45.0267 157.546C44.7008 158.536 43.6578 159.101 42.6536 158.834C40.4393 158.247 38.2923 157.408 36.2756 156.339C35.3712 155.864 34.9821 154.756 35.3895 153.817C36.4569 151.362 35.8845 148.48 33.9656 146.644C32.0671 144.831 29.2397 144.351 26.9439 145.442C26.0415 145.844 24.6828 145.666 24.1613 144.776C22.986 142.77 22.0428 140.639 21.3604 138.447C21.0467 137.431 21.5254 136.435 22.5175 136.033C25.0923 134.889 26.728 132.487 26.675 129.918C26.618 127.223 24.8499 124.844 22.2771 124.001C21.2912 123.675 20.7269 122.634 20.9917 121.631C21.5763 119.407 22.4238 117.238 23.5115 115.182C23.9943 114.28 25.1045 113.893 26.0395 114.302C28.376 115.329 31.4641 114.722 33.2221 112.886C35.0575 110.97 35.5015 108.065 34.3282 105.659C33.8821 104.738 34.2223 103.614 35.1063 103.099C37.0741 101.948 39.1825 101.019 41.3702 100.332C42.3643 100.023 43.4297 100.542 43.7943 101.514C44.7517 104.044 47.2043 105.706 49.8973 105.651C52.468 105.592 55.0102 103.699 55.8108 101.253C56.1347 100.265 57.1736 99.6987 58.1778 99.9635C60.3758 100.54 62.5249 101.379 64.5619 102.453C65.4684 102.929 65.8575 104.038 65.448 104.977C64.3826 107.427 64.9551 110.31 66.8719 112.147C68.746 113.94 71.5184 114.404 73.9363 113.329C74.8143 112.937 76.1547 113.125 76.6782 114.015C77.8536 116.021 78.7967 118.15 79.4791 120.344C79.7888 121.342 79.2551 122.432 78.2875 122.77L77.9575 122.907C75.6352 123.939 74.1075 126.339 74.1625 128.873C74.2195 131.566 75.9876 133.943 78.5625 134.789C79.5504 135.113 80.1147 136.154 79.8478 137.158C79.2571 139.394 78.4097 141.564 77.328 143.607C76.835 144.522 75.7493 144.899 74.8 144.487C72.4615 143.46 69.3713 144.069 67.6134 145.903C65.778 147.82 65.3339 150.722 66.5093 153.124C66.9575 154.045 66.6152 155.169 65.7332 155.685C64.7738 156.257 63.7715 156.77 62.7551 157.223ZM48.4041 153.149C49.2047 152.792 50.0623 152.584 50.9239 152.566C53.8634 152.501 56.5401 154.312 57.5871 157.074C57.8458 157.762 58.5975 158.127 59.2962 157.907C61.4269 157.243 63.5108 156.322 65.4399 155.194C66.0632 154.831 66.3036 154.037 65.9878 153.387C64.7065 150.767 65.1934 147.602 67.1958 145.51C69.1147 143.509 72.4839 142.843 75.0323 143.964C75.7004 144.253 76.4684 143.986 76.8167 143.34C77.878 141.338 78.7091 139.209 79.2876 137.017C79.4751 136.308 79.0778 135.575 78.3812 135.347C75.5741 134.424 73.6451 131.831 73.5819 128.894C73.5228 126.129 75.1891 123.512 77.7273 122.383L78.0797 122.236C78.7723 121.992 79.143 121.226 78.925 120.523C78.2549 118.372 77.33 116.282 76.1771 114.314C75.8247 113.716 74.8102 113.579 74.1706 113.864C71.5367 115.036 68.5158 114.528 66.4706 112.571C64.3786 110.566 63.7532 107.423 64.9163 104.751C65.2056 104.089 64.9306 103.308 64.291 102.97C62.2926 101.915 60.1843 101.094 58.0291 100.528C57.3202 100.34 56.5869 100.74 56.3608 101.438C55.4869 104.109 52.7145 106.17 49.9095 106.236C46.9701 106.295 44.2954 104.482 43.2525 101.724C42.9958 101.037 42.2441 100.67 41.5434 100.89C39.3963 101.563 37.3308 102.475 35.3997 103.604C34.7763 103.968 34.536 104.761 34.8517 105.411C36.131 108.032 35.6441 111.2 33.6417 113.292C31.7228 115.292 28.3536 115.956 25.8073 114.836C25.1473 114.547 24.363 114.82 24.0228 115.457C22.9554 117.472 22.1243 119.599 21.5519 121.782C21.3645 122.489 21.7638 123.224 22.4584 123.455C25.2634 124.375 27.1904 126.971 27.2536 129.912C27.3126 132.713 25.5425 135.326 22.7456 136.571C22.0225 136.866 21.6904 137.551 21.9145 138.28C22.5847 140.429 23.5095 142.519 24.6625 144.489C25.0128 145.088 26.0476 145.214 26.7036 144.921C29.2173 143.723 32.2952 144.251 34.3669 146.231C36.461 148.233 37.0863 151.376 35.9212 154.051C35.6339 154.713 35.9089 155.493 36.5465 155.829C38.5265 156.876 40.6308 157.699 42.8043 158.276C43.5132 158.463 44.2465 158.064 44.4767 157.367C45.0817 155.511 46.5993 153.951 48.4041 153.149ZM54.6925 138.891C49.4797 141.209 43.3543 138.855 41.0362 133.644C38.718 128.431 41.0728 122.306 46.2836 119.988C51.4963 117.669 57.6217 120.024 59.9399 125.235C62.258 130.446 59.9052 136.573 54.6925 138.891ZM46.5199 120.515C41.6004 122.703 39.378 128.486 41.5658 133.406C43.7536 138.325 49.5367 140.547 54.4562 138.36C59.3756 136.172 61.598 130.389 59.4102 125.469C57.2225 120.55 51.4413 118.327 46.5199 120.515Z" fill="#FF8066"/>
<path d="M165.043 29.1235H54.9551V190.879H165.043V29.1235Z" fill="#F7F7F7"/>
<path d="M158.899 35.9109H61.1011V184.091H158.899V35.9109Z" fill="white"/>
<path opacity="0.1" d="M150.751 70.2003H69.2491C67.9047 70.2003 66.8047 69.1003 66.8047 67.7559V51.1092C66.8047 49.7648 67.9047 48.6648 69.2491 48.6648H150.753C152.097 48.6648 153.197 49.7648 153.197 51.1092V67.7559C153.195 69.1003 152.095 70.2003 150.751 70.2003ZM94.2151 78.5033H68.3895C67.5177 78.5033 66.8047 77.7903 66.8047 76.9185C66.8047 76.0466 67.5177 75.3337 68.3895 75.3337H94.2151C95.0869 75.3337 95.7999 76.0466 95.7999 76.9185C95.7999 77.7903 95.0869 78.5033 94.2151 78.5033ZM151.611 87.6557H68.3895C67.5177 87.6557 66.8047 86.9427 66.8047 86.0709C66.8047 85.199 67.5177 84.4861 68.3895 84.4861H151.611C152.482 84.4861 153.195 85.199 153.195 86.0709C153.195 86.9407 152.482 87.6557 151.611 87.6557ZM151.611 94.9463H68.3895C67.5177 94.9463 66.8047 94.2333 66.8047 93.3615C66.8047 92.4896 67.5177 91.7766 68.3895 91.7766H151.611C152.482 91.7766 153.195 92.4896 153.195 93.3615C153.195 94.2333 152.482 94.9463 151.611 94.9463ZM151.611 102.237H68.3895C67.5177 102.237 66.8047 101.524 66.8047 100.652C66.8047 99.7801 67.5177 99.0672 68.3895 99.0672H151.611C152.482 99.0672 153.195 99.7801 153.195 100.652C153.195 101.524 152.482 102.237 151.611 102.237ZM151.611 109.529H68.3895C67.5177 109.529 66.8047 108.816 66.8047 107.945C66.8047 107.073 67.5177 106.36 68.3895 106.36H151.611C152.482 106.36 153.195 107.073 153.195 107.945C153.195 108.816 152.482 109.529 151.611 109.529ZM151.611 116.82H68.3895C67.5177 116.82 66.8047 116.107 66.8047 115.235C66.8047 114.363 67.5177 113.65 68.3895 113.65H151.611C152.482 113.65 153.195 114.363 153.195 115.235C153.195 116.107 152.482 116.82 151.611 116.82ZM151.611 124.113H68.3895C67.5177 124.113 66.8047 123.4 66.8047 122.528C66.8047 121.656 67.5177 120.943 68.3895 120.943H151.611C152.482 120.943 153.195 121.656 153.195 122.528C153.195 123.4 152.482 124.113 151.611 124.113ZM151.611 131.403H68.3895C67.5177 131.403 66.8047 130.69 66.8047 129.818C66.8047 128.946 67.5177 128.233 68.3895 128.233H151.611C152.482 128.233 153.195 128.946 153.195 129.818C153.195 130.69 152.482 131.403 151.611 131.403ZM151.611 138.696H68.3895C67.5177 138.696 66.8047 137.983 66.8047 137.111C66.8047 136.239 67.5177 135.526 68.3895 135.526H151.611C152.482 135.526 153.195 136.239 153.195 137.111C153.195 137.981 152.482 138.696 151.611 138.696ZM151.611 145.986H68.3895C67.5177 145.986 66.8047 145.273 66.8047 144.401C66.8047 143.53 67.5177 142.817 68.3895 142.817H151.611C152.482 142.817 153.195 143.53 153.195 144.401C153.195 145.273 152.482 145.986 151.611 145.986ZM115.474 153.279H68.3895C67.5177 153.279 66.8047 152.566 66.8047 151.694C66.8047 150.822 67.5177 150.109 68.3895 150.109H115.474C116.345 150.109 117.058 150.822 117.058 151.694C117.058 152.564 116.345 153.279 115.474 153.279Z" fill="#FF8066"/>
<path d="M141.36 179.667C148.422 179.667 154.147 173.942 154.147 166.88C154.147 159.818 148.422 154.094 141.36 154.094C134.298 154.094 128.574 159.818 128.574 166.88C128.574 173.942 134.298 179.667 141.36 179.667Z" fill="#FF8066"/>
<path d="M142.43 178.467C149.491 178.467 155.216 172.742 155.216 165.68C155.216 158.619 149.491 152.894 142.43 152.894C135.368 152.894 129.643 158.619 129.643 165.68C129.643 172.742 135.368 178.467 142.43 178.467Z" stroke="#FF8066" stroke-miterlimit="10"/>
<path d="M209.627 199.016H12.817C11.7557 199.016 10.8879 198.149 10.8879 197.087V189.705C10.8879 188.644 11.7557 187.776 12.817 187.776H209.625C210.687 187.776 211.554 188.644 211.554 189.705V197.087C211.556 198.147 210.689 199.016 209.627 199.016Z" fill="#F2F2F2"/>
<path d="M94.0603 123.499L94.5635 127.895C94.5635 127.895 97.6149 127.936 98.7883 126.59C98.5744 125.779 98.0285 125.164 98.0285 125.164C98.0285 125.164 98.3177 125.221 99.3505 124.95C98.6823 124.443 95.527 122.656 95.527 122.656L94.0603 123.499Z" fill="#FCD2B1"/>
<path d="M99.5073 125.995C99.5073 125.995 98.884 124.351 98.2382 124.518C97.5925 124.685 95.1134 126.808 95.9832 127.657C96.9488 128.6 96.7879 129.482 96.7879 129.482C96.7879 129.482 99.8251 128.24 99.5073 125.995Z" fill="#FCD2B1"/>
<path d="M148.565 138.024H139.034C138.541 138.024 138.142 137.624 138.142 137.131V131.566C138.142 131.073 138.543 130.674 139.034 130.674H148.565C149.058 130.674 149.457 131.075 149.457 131.566V137.131C149.457 137.624 149.056 138.024 148.565 138.024ZM139.364 136.801H148.235V131.896H139.364V136.801Z" fill="#9ACFF7"/>
<path d="M153.58 135.257V146.214C153.58 146.713 153.173 147.121 152.674 147.121H134.923C134.424 147.121 134.017 146.713 134.017 146.214V135.257C134.017 134.758 134.424 134.351 134.923 134.351H152.674C153.173 134.351 153.58 134.758 153.58 135.257Z" fill="#CCE9FF"/>
<path d="M153.58 135.257V140.737H134.017V135.257C134.017 134.758 134.424 134.351 134.923 134.351H152.674C153.173 134.351 153.58 134.758 153.58 135.257Z" fill="#9ACFF7"/>
<path d="M146.237 139.914H141.36V142.432H146.237V139.914Z" fill="#2A94F4"/>
<path d="M121.265 125.048L119.032 189.974H123.681C123.681 189.974 130.607 159.643 127.329 154.554C130.374 145.19 135.19 125.386 135.19 125.386L121.265 125.048Z" fill="#0D517F"/>
<path d="M122.599 125.386L125.883 132.183L139.158 191.282H143.799C143.799 191.282 143.762 161.38 138.751 156.271C138.16 145.249 138.995 130.706 136.614 123.19C127.111 121.053 122.599 125.386 122.599 125.386Z" fill="#0E538C"/>
<path d="M126.237 94.7426C122.387 101.438 116.225 112.514 109.277 116.04C109.694 117.557 110.585 118.918 110.585 118.918C110.585 118.918 121.55 114.999 125.066 109.474C128.582 103.95 126.237 94.7426 126.237 94.7426Z" fill="#0B3A54"/>
<path d="M143.68 127.472C142.955 127.895 141.362 133.513 141.362 133.513C141.362 133.513 144.247 134.145 145.943 132.731C147.017 129.395 144.813 126.001 144.813 126.001L143.68 127.472ZM128.164 82.0864C128.062 83.219 127.331 87.1505 127.331 87.1505L135.192 83.1538L134.817 82.1455L132.776 77.8901C132.776 77.8901 130.796 77.9574 130.596 77.8901C130.395 77.8229 128.164 82.0864 128.164 82.0864Z" fill="#FCD2B1"/>
<path d="M136.565 65.5539C138.545 69.1452 141.022 66.7924 139.474 71.1863C139.959 71.9298 142.631 73.5391 137.184 79.0472C135.451 81.8339 134.815 82.1415 134.815 82.1415C134.815 82.1415 133.562 80.3306 132.774 78.8517L129.075 67.6561L136.565 65.5539Z" fill="#0E538C"/>
<path d="M125.046 69.6035C125.046 69.6035 121.008 73.0074 123.304 82.4307C126.551 82.9053 129.56 81.6383 129.56 81.6383L132.774 78.8557C132.774 78.8557 132.094 68.8111 128.688 68.4159C125.284 68.0187 125.046 69.6035 125.046 69.6035Z" fill="#FFE3CA"/>
<path d="M129.199 70.1963C126.722 70.3206 120.332 67.7193 122.599 64.8735C124.866 62.0278 127.158 65.7393 128.704 65.1832C130.252 64.625 134.585 61.9646 136.565 65.5539C136.565 65.5539 137.679 69.8867 129.199 70.1963Z" fill="#0E538C"/>
<path d="M133.764 75.3652C134.431 74.4365 134.479 73.3306 133.872 72.8951C133.265 72.4597 132.233 72.8596 131.566 73.7883C130.9 74.7171 130.852 75.823 131.459 76.2584C132.066 76.6939 133.098 76.294 133.764 75.3652Z" fill="#FFE3CA"/>
<path d="M129.075 69.192C128.722 72.0989 128.896 73.7305 129.366 74.2092C129.678 74.9263 129.882 76.2402 129.882 76.2402H131.073C131.073 76.2402 132.75 72.879 132.774 71.8035C132.797 70.7279 132.267 68.3507 132.267 68.3507L129.075 69.192Z" fill="#0E538C"/>
<path d="M136.614 87.1505V82.1455C136.614 82.1455 126.26 85.8448 125.675 87.1505C125.09 88.4562 120.297 102.043 120.297 102.043C120.297 102.043 120.279 132.466 120.314 133.513C122.21 131.071 127.686 126.127 127.686 126.127L140.556 133.513C140.556 133.513 136.376 117.647 136.188 116.565C136.001 115.484 138.749 104.561 138.749 104.561L136.614 87.1505Z" fill="#0B4870"/>
<path d="M136.064 87.7147C131.438 88.1853 129.645 89.8842 129.645 91.7725C132.666 98.4743 144.558 109.743 142.955 127.895C144.465 128.018 146.542 127.895 146.542 127.895C146.542 127.895 153.336 104.989 136.064 87.7147Z" fill="#125D87"/>
<path d="M110.713 117.325C110.67 117.297 110.629 117.27 110.591 117.242C109.849 116.736 109.564 116.445 109.277 116.038C108.975 115.61 107.725 114.822 107.122 115.402C106.519 115.981 106.464 117.117 106.606 117.545C106.751 117.973 106.566 119.802 106.867 120.151C107.169 120.499 108.281 121.147 109.208 121.053C110.134 120.961 110.713 119.965 110.921 119.108C111.131 118.252 110.713 117.325 110.713 117.325Z" fill="#EDBC9A"/>
<path d="M119.032 190.088L108.513 194.678H124.021L123.683 190.088H119.032Z" fill="#0B4870"/>
<path d="M139.016 190.088L128.494 194.678H144.002L143.664 190.088H139.016Z" fill="#0B4870"/>
<path d="M164.014 43.1567H138.394C135.536 43.1567 133.2 45.4952 133.2 48.3511V54.7128C133.2 57.5707 135.538 59.9072 138.394 59.9072H139.806L137.17 64.4193L143.509 59.9072H164.014C166.872 59.9072 169.209 57.5687 169.209 54.7128V48.3511C169.209 45.4931 166.872 43.1567 164.014 43.1567ZM133.526 20.3439H121.134C115.127 20.3439 110.214 25.2592 110.214 31.2644C110.214 37.235 115.068 42.1218 121.024 42.183C123.811 43.9735 127.331 46.1959 127.331 46.1959L125.208 42.185H133.528C139.535 42.185 144.448 37.2696 144.448 31.2644C144.448 25.2592 139.533 20.3439 133.526 20.3439Z" fill="#FF8066"/>
<path d="M88.5256 71.3106C87.063 69.0596 85.3091 66.605 82.665 66.1446C81.0456 65.8615 79.3976 66.4054 77.8983 67.0796C75.2726 68.2591 72.7019 70.0272 71.6283 72.6978C70.5813 75.3052 71.1517 78.2365 71.5224 81.0211C71.8932 83.8057 71.9563 86.9244 70.1678 89.0898C68.2448 91.4141 64.898 91.8235 62.2233 93.2189C59.6424 94.5674 57.6217 96.9548 56.7254 99.7272C56.2752 101.116 56.1102 102.673 56.6887 104.013C57.3202 105.472 58.7257 106.445 60.17 107.109C66.3178 109.935 74.0056 108.148 78.9963 103.579C83.9871 99.0102 86.4315 92.0944 86.5008 85.3295C86.5252 82.9217 86.2767 80.4732 86.8491 78.1346C87.1689 76.8269 87.7372 75.5904 88.0306 74.2765L88.5256 71.3106Z" fill="#0E538C"/>
<path d="M79.6992 97.8613C84.0076 108.211 89.1022 117.944 94.1194 124.386C96.0729 124.494 97.2076 123.389 97.2076 123.389C97.2076 123.389 86.4968 104.573 87.3055 98.7881C88.1163 93.0009 79.6992 97.8613 79.6992 97.8613Z" fill="#1989DD"/>
<path d="M102.676 119.326L92.8706 113.536L84.8749 127.078L94.6803 132.868L102.676 119.326Z" fill="#CCE9FF"/>
<path d="M101.808 119.527L93.1167 114.395L85.8874 126.638L94.5789 131.77L101.808 119.527Z" fill="white"/>
<path d="M95.9159 114.697L100.183 117.217C100.42 117.356 100.497 117.659 100.359 117.896L99.6722 119.059C99.5337 119.295 99.2302 119.372 98.9939 119.234L94.7263 116.714C94.49 116.576 94.4126 116.272 94.5511 116.036L95.2376 114.873C95.3781 114.636 95.6816 114.557 95.9159 114.697Z" fill="#0E538C"/>
<path d="M92.6078 116.594L100.122 121.031C100.222 121.09 100.255 121.218 100.196 121.318C100.137 121.418 100.008 121.45 99.9085 121.391L92.3939 116.954C92.2941 116.895 92.2615 116.767 92.3206 116.667C92.3776 116.567 92.508 116.535 92.6078 116.594ZM91.9131 117.771L99.4278 122.208C99.5276 122.267 99.5602 122.395 99.5011 122.495C99.442 122.595 99.3137 122.628 99.2139 122.569L91.6993 118.132C91.5994 118.073 91.5669 117.944 91.6259 117.845C91.683 117.745 91.8133 117.712 91.9131 117.771ZM91.2185 118.947L98.7332 123.383C98.833 123.442 98.8656 123.571 98.8065 123.671C98.7474 123.77 98.6191 123.803 98.5193 123.744L91.0046 119.307C90.9048 119.248 90.8722 119.12 90.9313 119.02C90.9883 118.92 91.1187 118.888 91.2185 118.947ZM90.5239 120.124L98.0385 124.561C98.1383 124.62 98.1709 124.748 98.1119 124.848C98.0528 124.948 97.9245 124.98 97.8246 124.921L90.31 120.485C90.2102 120.426 90.1776 120.297 90.2367 120.197C90.2937 120.098 90.4241 120.065 90.5239 120.124ZM89.8293 121.299L97.3439 125.736C97.4437 125.795 97.4763 125.923 97.4172 126.023C97.3582 126.123 97.2298 126.156 97.13 126.097L89.6154 121.66C89.5156 121.601 89.483 121.473 89.542 121.373C89.5991 121.275 89.7294 121.24 89.8293 121.299ZM89.1346 122.477L96.6493 126.914C96.7491 126.973 96.7817 127.101 96.7226 127.201C96.6635 127.301 96.5352 127.333 96.4354 127.274L88.9207 122.837C88.8209 122.778 88.7883 122.65 88.8474 122.55C88.9044 122.45 89.0348 122.418 89.1346 122.477ZM88.3809 123.618L93.4654 126.62C93.5326 126.661 93.5407 126.773 93.4817 126.873C93.4226 126.973 93.3207 127.021 93.2515 126.981L88.167 123.978C88.0998 123.937 88.0917 123.825 88.1507 123.726C88.2098 123.628 88.3137 123.579 88.3809 123.618Z" fill="#CCE9FF"/>
<path d="M93.995 130.631C94.6745 130.631 95.2254 130.08 95.2254 129.401C95.2254 128.721 94.6745 128.17 93.995 128.17C93.3155 128.17 92.7646 128.721 92.7646 129.401C92.7646 130.08 93.3155 130.631 93.995 130.631Z" fill="#FF8066"/>
<path d="M86.737 149.241C86.3602 150.594 82.9767 186.971 82.9767 186.971C82.9767 186.971 78.8394 188.155 78.9657 186.971C79.092 185.788 74.7043 156.687 80.3448 149.241C84.2295 146.196 86.737 149.241 86.737 149.241Z" fill="#6D3500"/>
<path d="M80.907 187.108L83.3983 190.697C83.9504 191.492 84.6572 192.166 85.4761 192.677L88.6824 194.678H80.6646L78.0593 191.618V194.678H76.8696V187.108H80.907Z" fill="#FF8066"/>
<path d="M84.6675 149.241C84.2906 150.594 80.9071 186.971 80.9071 186.971C80.9071 186.971 76.7699 188.155 76.8962 186.971C77.0225 185.788 72.6347 156.687 78.2752 149.241C82.1599 146.196 84.6675 149.241 84.6675 149.241Z" fill="#8D4400"/>
<path d="M78.5502 116.276C75.6454 119.482 71.4471 122.731 74.6595 132.517C76.0834 136.858 76.2524 141.511 75.236 145.964C73.9384 151.653 72.7854 158.636 72.7854 158.636L87.3726 159.046C87.3726 159.046 91.9559 125.204 88.5276 116.276C84.2722 114.693 78.5502 116.276 78.5502 116.276Z" fill="#0E538C"/>
<path d="M84.2233 88.224C85.9344 90.7112 91.742 99.554 91.41 100.786C91.0148 102.257 88.5235 116.276 88.5235 116.276H78.5481C78.5481 116.276 79.807 113.064 78.7559 110.923C77.7048 108.782 69.3366 93.6833 79.9455 85.8855C81.7748 86.5822 84.2233 88.224 84.2233 88.224Z" fill="#2A94F4"/>
<path d="M84.7469 84.4474C84.5187 86.2196 84.2335 87.5905 85.032 90.1633C82.6894 89.1346 80.1167 87.0201 79.9456 86.2196C80.7461 84.3333 81.6037 83.1111 80.9172 81.4937C82.06 81.6464 84.7469 84.4474 84.7469 84.4474Z" fill="#8D4400"/>
<path d="M88.611 72.9259C89.6295 76.3889 89.3769 86.2868 86.6982 85.8733C84.0195 85.4618 80.8275 84.1215 79.591 80.7237C78.3566 77.3259 80.7379 66.9818 88.611 72.9259Z" fill="#8D4400"/>
<path d="M79.5476 81.4543C80.0211 81.1809 80.0506 80.3456 79.6135 79.5885C79.1765 78.8315 78.4383 78.4394 77.9648 78.7128C77.4913 78.9862 77.4617 79.8215 77.8988 80.5786C78.3359 81.3356 79.0741 81.7277 79.5476 81.4543Z" fill="#6D3500"/>
<path d="M77.1323 80.2246C83.2088 78.5767 88.0244 75.3683 89.1651 72.382C90.3038 69.3957 82.5794 67.8496 81.0353 69.6015C79.4912 71.3533 73.9607 76.613 77.1323 80.2246Z" fill="#0E538C"/>
<path d="M79.5708 82.5143C80.1345 82.5143 80.5914 82.0573 80.5914 81.4937C80.5914 80.9301 80.1345 80.4731 79.5708 80.4731C79.0072 80.4731 78.5503 80.9301 78.5503 81.4937C78.5503 82.0573 79.0072 82.5143 79.5708 82.5143Z" fill="#FF8066"/>
<path d="M80.5913 87.7495C78.3343 87.2667 75.3847 92.0232 75.6698 93.0193C75.955 94.0154 83.2619 121.466 105.684 119.615C105.755 119.33 105.684 117.337 105.684 117.337C105.684 117.337 86.9672 119.845 80.5913 87.7495Z" fill="#34A2F4"/>
<path d="M63.2622 40.7122H49.3696C42.8959 40.7122 37.6465 45.9616 37.6465 52.4354C37.6465 58.9091 42.8959 64.1585 49.3696 64.1585H53.7513C57.1878 66.7191 65.2565 72.7079 64.9407 72.2741C64.6657 71.8952 61.7813 67.1224 59.9969 64.1585H63.2622C69.7359 64.1585 74.9854 58.9091 74.9854 52.4354C74.9854 45.9616 69.7359 40.7122 63.2622 40.7122ZM93.8932 29.7244C93.8932 22.7639 88.2506 17.1213 81.29 17.1213C74.3294 17.1213 68.6869 22.7639 68.6869 29.7244C68.6869 36.685 74.3294 42.3276 81.29 42.3276C82.0763 42.3276 82.8443 42.2522 83.5898 42.1137L82.2169 48.6668L90.422 38.4083L90.4159 38.4104C92.5711 36.1492 93.8932 33.0916 93.8932 29.7244Z" fill="#FF8066"/>
<path d="M105.508 117.741C105.694 117.686 106.671 117.614 106.786 117.456C106.9 117.297 107.311 116.109 107.653 116.042C107.996 115.973 108.293 117.955 107.653 118.993C107.038 119.806 106.468 119.395 106.284 119.417C106.101 119.44 105.188 119.395 105.188 119.395L105.508 117.741Z" fill="#FCD2B1"/>
<path d="M195.578 198.621C199.624 198.621 201.331 195.391 202.005 191.962C202.765 188.096 202.206 183.979 202.206 183.979H188.952C188.952 183.979 188.931 184.136 188.903 184.417C188.654 186.851 187.856 198.621 195.578 198.621Z" fill="#B6E7FF"/>
<path d="M188.949 183.981C188.949 184.27 191.917 184.505 195.578 184.505C199.239 184.505 202.207 184.27 202.207 183.981C202.207 183.692 199.239 183.458 195.578 183.458C191.917 183.456 188.949 183.69 188.949 183.981Z" fill="#85DDFF"/>
<path d="M177.63 147.231C177.63 147.231 184.621 157.866 188.815 164.358C193.009 170.85 194.107 172.197 194.606 174.295C195.105 176.391 195.556 184.132 195.556 184.132H195.865C195.865 184.132 195.757 177.562 195.378 175.352C195.014 173.215 195.405 172.447 195.704 170.201C196.004 167.954 196.403 164.358 194.132 161.861C191.86 159.364 192.459 156.917 191.661 155.271C190.862 153.623 184.67 151.627 183.871 149.928C183.073 148.229 179.577 147.18 177.63 147.231Z" fill="#2A94F4"/>
<path d="M177.63 147.231C177.63 147.231 179.828 149.729 181.325 150.576C182.822 151.426 183.523 150.676 184.67 152.723C185.818 154.771 185.861 155.669 186.914 156.718C187.966 157.767 189.214 157.816 189.314 160.114C189.414 162.409 188.815 164.357 188.815 164.357C188.815 164.357 178.08 147.781 177.63 147.231Z" fill="#41AAF7"/>
<path d="M195.001 184.13H194.688C194.688 184.13 194.594 182.003 193.749 180.97C193.205 180.304 190.891 179.549 188.603 178.642C187.344 178.143 186.091 177.599 185.148 176.998C182.488 175.309 179.956 169.867 179.738 168.897C179.661 168.559 179.628 168.355 179.63 168.214V168.21C179.636 167.95 179.764 167.911 179.988 167.648C180.096 167.522 180.42 167.565 180.816 167.685C181.962 168.035 182.93 168.819 183.529 169.858C184.083 170.818 184.969 172.018 186.055 172.309C187.931 172.81 187.776 173.122 188.469 175.03C189.159 176.939 190.905 177.251 193.093 179.504C195.283 181.753 195.001 184.13 195.001 184.13Z" fill="#2A94F4"/>
<path d="M188.603 178.642C187.344 178.143 186.091 177.599 185.148 176.998C182.488 175.309 179.956 169.867 179.738 168.897C179.661 168.559 179.628 168.355 179.63 168.214C179.638 168.278 179.76 169.139 181.146 169.712C182.584 170.304 182.865 170.304 183.052 171.213C183.24 172.119 183.398 173.089 184.148 173.277C184.9 173.464 185.368 172.621 185.961 173.996C186.556 175.371 186.839 175.841 187.385 176.029C187.931 176.216 188.346 175.935 188.469 176.998C188.542 177.648 188.583 178.263 188.603 178.642Z" fill="#41AAF7"/>
<path d="M197.299 184.13H197.67C197.67 184.13 198.395 170.963 199.395 169.74C200.039 168.952 202.166 167.536 204.877 166.463C206.368 165.872 207.851 165.226 208.969 164.515C212.119 162.515 215.119 156.068 215.378 154.919C215.47 154.52 215.508 154.277 215.506 154.11V154.106C215.5 153.796 215.345 153.75 215.083 153.44C214.956 153.289 214.571 153.342 214.103 153.485C212.744 153.898 211.599 154.829 210.888 156.057C210.232 157.194 209.181 158.616 207.896 158.958C205.674 159.551 205.857 159.922 205.038 162.181C204.219 164.442 202.154 164.811 199.56 167.477C196.965 170.148 197.299 184.13 197.299 184.13Z" fill="#2A94F4"/>
<path d="M204.877 166.465C206.368 165.874 207.851 165.228 208.969 164.517C212.119 162.517 215.119 156.07 215.378 154.921C215.47 154.522 215.508 154.279 215.506 154.112C215.498 154.187 215.351 155.208 213.71 155.886C212.007 156.589 211.673 156.589 211.451 157.665C211.229 158.738 211.041 159.887 210.153 160.109C209.265 160.331 208.709 159.331 208.006 160.961C207.301 162.59 206.965 163.146 206.319 163.368C205.672 163.59 205.181 163.256 205.036 164.517C204.95 165.285 204.902 166.015 204.877 166.465Z" fill="#41AAF7"/>
<path d="M195.578 198.621C199.624 198.621 201.331 195.391 202.005 191.962C198.039 190.459 193.044 188.049 188.901 184.417C188.654 186.851 187.856 198.621 195.578 198.621Z" fill="#CCE9FF"/>
<path d="M25.1063 196.967C22.2361 196.967 21.0241 194.676 20.5474 192.243C20.0097 189.499 20.4048 186.58 20.4048 186.58H29.8098C29.8098 186.58 29.8241 186.692 29.8445 186.89C30.0197 188.617 30.5839 196.967 25.1063 196.967Z" fill="#B6E7FF"/>
<path d="M29.8079 186.58C29.8079 186.786 27.7016 186.953 25.1044 186.953C22.5072 186.953 20.4009 186.786 20.4009 186.58C20.4009 186.375 22.5072 186.208 25.1044 186.208C27.7037 186.208 29.8079 186.375 29.8079 186.58Z" fill="#85DDFF"/>
<path d="M13.3975 160.508C13.3975 160.508 18.3576 168.054 21.3317 172.659C24.3078 177.265 25.086 178.22 25.4404 179.709C25.7949 181.197 26.1126 186.688 26.1126 186.688H26.5017C26.5017 186.688 26.7502 182.048 26.2899 180.524C25.8295 179.001 26.0067 178.4 26.2186 176.805C26.4304 175.21 26.7136 172.659 25.1023 170.889C23.491 169.119 23.9147 167.381 23.3484 166.214C22.7821 165.045 18.3882 163.629 17.8219 162.423C17.2597 161.217 14.7806 160.474 13.3975 160.508Z" fill="#2A94F4"/>
<path d="M13.3975 160.508C13.3975 160.508 14.9558 162.281 16.0191 162.882C17.0825 163.484 17.5775 162.953 18.3923 164.405C19.2071 165.858 19.2376 166.495 19.9852 167.239C20.7308 167.982 21.6169 168.019 21.6882 169.649C21.7595 171.278 21.3338 172.659 21.3338 172.659C21.3338 172.659 13.7173 160.897 13.3975 160.508Z" fill="#41AAF7"/>
<path d="M24.9475 186.686H24.5931C24.5931 186.686 24.4871 184.279 23.5297 183.109C22.9125 182.356 20.2929 181.498 17.7018 180.471C16.2758 179.905 14.8581 179.29 13.7886 178.609C10.7779 176.697 7.90768 170.533 7.6612 169.435C7.57361 169.052 7.5349 168.819 7.53694 168.661V168.656C7.54305 168.361 7.68972 168.316 7.94231 168.019C8.06453 167.874 8.4312 167.925 8.87935 168.062C10.179 168.457 11.2729 169.347 11.9532 170.522C12.5806 171.61 13.5849 172.969 14.8153 173.297C16.9399 173.865 16.7647 174.218 17.549 176.379C18.3312 178.54 20.3071 178.893 22.7862 181.443C25.2653 183.993 24.9475 186.686 24.9475 186.686Z" fill="#2A94F4"/>
<path d="M17.7018 180.471C16.2758 179.905 14.8581 179.29 13.7886 178.609C10.7779 176.697 7.90768 170.533 7.6612 169.435C7.57361 169.052 7.5349 168.819 7.53694 168.661C7.54509 168.734 7.68565 169.708 9.25416 170.357C10.8818 171.03 11.2016 171.03 11.4134 172.058C11.6253 173.085 11.8045 174.183 12.654 174.397C13.5034 174.609 14.0351 173.653 14.7073 175.212C15.3816 176.77 15.7014 177.302 16.3206 177.513C16.9399 177.725 17.4084 177.408 17.5469 178.611C17.6305 179.345 17.6773 180.043 17.7018 180.471Z" fill="#41AAF7"/>
<path d="M25.1065 196.967C22.2363 196.967 21.0243 194.676 20.5476 192.243C23.3608 191.176 26.9052 189.467 29.8446 186.89C30.0198 188.617 30.5841 196.967 25.1065 196.967Z" fill="#CCE9FF"/>
</svg>
