<svg fill="#074EAD" xmlns="http://www.w3.org/2000/svg" data-name="Layer 1" viewBox="0 0 64 64"><path d="M58 30a3 3 0 1 0-3 3A3 3 0 0 0 58 30zm-4 0a1 1 0 1 1 1 1A1 1 0 0 1 54 30zM19.067 35.877a1 1 0 0 0 .87 1.115.987.987 0 0 0 1.115-.869 7 7 0 0 1 13.9 0 1 1 0 0 0 .991.877.87.87 0 0 0 .124-.008 1 1 0 0 0 .87-1.115 9 9 0 0 0-17.866 0z"/><path d="M58.818,20.84A5.407,5.407,0,0,0,53.95,18h-.525A32.957,32.957,0,0,0,21.847,6.576a3.5,3.5,0,0,0,1.28,6.876c.613-.116,1.241-.2,1.874-.27V16.2A23.029,23.029,0,0,0,5,39H1a1,1,0,0,0-1,1v4a1,1,0,0,0,1,1H8a1,1,0,0,0,0-2H2V41h8.856a1.815,1.815,0,0,0,.265,2.149l.946,1.008a2.259,2.259,0,0,1,.545,2.257L12.225,47.7a1.846,1.846,0,0,0,1.124,2.263l1.307.51a2.467,2.467,0,0,1,1.579,1.837l.233,1.329a1.934,1.934,0,0,0,1.985,1.538l1.42-.075a2.687,2.687,0,0,1,2.317,1.044l.831,1.11a1.966,1.966,0,0,0,2.446.526l1.241-.652a2.8,2.8,0,0,1,2.587,0l1.256.66a1.98,1.98,0,0,0,2.44-.548l.821-1.1A2.683,2.683,0,0,1,36.128,55.1l1.433.075a1.918,1.918,0,0,0,1.975-1.546l.229-1.315a2.471,2.471,0,0,1,1.578-1.843l1.316-.512A1.844,1.844,0,0,0,43.777,47.7l-.391-1.289a2.266,2.266,0,0,1,.554-2.259l.939-1A1.814,1.814,0,0,0,45.145,41H58v2H52a1,1,0,0,0,0,2h7a1,1,0,0,0,1-1V40a1,1,0,0,0-1-1H51a22.992,22.992,0,0,0-10.06-19H53.95a3.414,3.414,0,0,1,3.091,1.759l4.649,9a2.67,2.67,0,0,1-.1,2.665A3.426,3.426,0,0,1,58.61,35H53.82a1,1,0,1,0,0,2h4.79a5.409,5.409,0,0,0,4.684-2.536,4.636,4.636,0,0,0,.175-4.623ZM27,12.047a1.025,1.025,0,0,0-.816-.937,2.921,2.921,0,0,0-.9.024c-.837.077-1.7.193-2.537.354a1.5,1.5,0,0,1-.53-2.946A31.158,31.158,0,0,1,35,8.815V11.9a27.522,27.522,0,0,0-4.928-.813,1.03,1.03,0,0,0-1.072,1v3.948c-.332-.014-.665-.025-1-.025s-.668.011-1,.025V12.047ZM43.319,41.892l-.831.885A4.29,4.29,0,0,0,41.474,47l.346,1.144-1.2.467A4.465,4.465,0,0,0,37.8,51.966l-.21,1.209L36.233,53.1a4.755,4.755,0,0,0-4.023,1.843l-.743,1.066-1.239-.653a4.836,4.836,0,0,0-4.453,0l-1.164.684-.819-1.1A4.7,4.7,0,0,0,19.768,53.1l-1.351.072L18.2,51.959a4.459,4.459,0,0,0-2.822-3.351l-1.2-.468L14.525,47a4.283,4.283,0,0,0-1.005-4.219l-.838-.892.8-.849.038-.04h3.537a10.994,10.994,0,0,0,21.9,0h3.535ZM22.091,41a5.993,5.993,0,0,0,11.82,0h3.031A9,9,0,0,1,19.06,41Zm2.052,0h7.716a3.981,3.981,0,0,1-7.716,0ZM49,39H7a21,21,0,1,1,42,0ZM31,16.2V13.186a24.835,24.835,0,0,1,4.706.99A25.8,25.8,0,0,1,43.3,18H37.358A22.81,22.81,0,0,0,31,16.2ZM46.493,18A27.93,27.93,0,0,0,37,12.5V9.358A31.152,31.152,0,0,1,50.79,18Z"/><circle cx="48" cy="44" r="1"/></svg>