<svg id="SvgjsSvg1016" width="288" height="288" xmlns="http://www.w3.org/2000/svg" version="1.1" xmlns:xlink="http://www.w3.org/1999/xlink" xmlns:svgjs="http://svgjs.com/svgjs"><defs id="SvgjsDefs1017"></defs><g id="SvgjsG1018" transform="matrix(1,0,0,1,0,0)"><svg xmlns="http://www.w3.org/2000/svg" width="288" height="288" fill="none" viewBox="0 0 24 24"><g clip-path="url(#clip0)" fill="#ffffff" class="color000 svgShape"><path fill="#ffffff" d="M7 8C5.89543 8 5 8.89543 5 10 5 11.1046 5.89543 12 7 12 8.10457 12 9 11.1046 9 10 9 8.89543 8.10457 8 7 8zM10 10C10 8.89543 10.8954 8 12 8 13.1046 8 14 8.89543 14 10 14 11.1046 13.1046 12 12 12 10.8954 12 10 11.1046 10 10zM17 8C15.8954 8 15 8.89543 15 10 15 11.1046 15.8954 12 17 12 18.1046 12 19 11.1046 19 10 19 8.89543 18.1046 8 17 8z" class="color000 svgShape"></path><path fill="#ffffff" fill-rule="evenodd" d="M3 0C1.34315 0 0 1.34315 0 3V17C0 18.6569 1.34315 20 3 20H16.8496C17.061 20 17.2669 20.067 17.4378 20.1913L22.4118 23.8087C22.716 24.03 23.1186 24.0618 23.4538 23.8911C23.7889 23.7204 24 23.3761 24 23V3C24 1.34315 22.6569 0 21 0H3ZM2 3C2 2.44772 2.44772 2 3 2H21C21.5523 2 22 2.44771 22 3V21.0362L18.6141 18.5738C18.1014 18.2009 17.4837 18 16.8496 18H3C2.44772 18 2 17.5523 2 17V3Z" clip-rule="evenodd" class="color000 svgShape"></path></g><defs><clipPath id="clip0"><rect width="24" height="24" fill="#074ead" class="colorfff svgShape"></rect></clipPath></defs></svg></g></svg>