<svg width="51" height="51" viewBox="0 0 51 51" fill="none" xmlns="http://www.w3.org/2000/svg">
<path d="M20.2486 42.618C22.9753 42.618 25.5506 41.5576 27.5199 39.6388L33.8822 33.2765C34.3367 32.822 34.3367 32.0141 33.8822 31.5596C33.4278 31.1052 32.6199 31.1052 32.1654 31.5596L25.803 37.8715C24.3387 39.3359 22.3694 40.1438 20.2486 40.1438C18.1278 40.1438 16.209 39.3359 14.6941 37.8715C13.1793 36.4071 12.4219 34.4378 12.4219 32.3171C12.4219 30.1963 13.2298 28.2774 14.6941 26.7626L29.0852 12.3715C30.1456 11.3111 31.509 10.7557 33.0238 10.7557C34.4882 10.7557 35.902 11.3111 36.9624 12.3715C38.0228 13.4319 38.5783 14.7953 38.5783 16.3101C38.5783 17.7745 38.0228 19.1883 36.9624 20.2487L22.5209 34.6903C21.2585 35.9527 19.1377 35.9527 17.8753 34.6903C17.2694 34.0844 16.9159 33.226 16.9159 32.3675C16.9159 31.5091 17.2694 30.6507 17.8753 30.0448L24.2882 23.6319C24.2882 23.6319 29.5397 17.4545 29.0852 17C28.6308 16.5455 23.0258 21.4606 22.5714 21.9151L16.209 28.3279C15.1486 29.3883 14.5426 30.8527 14.5426 32.3675C14.5426 33.8824 15.1486 35.3468 16.209 36.4071C18.4308 38.6289 22.0664 38.6289 24.2882 36.4071L38.6793 22.0161C40.1941 20.5012 41.002 18.5319 41.002 16.3606C41.002 14.1893 40.1941 12.22 38.6793 10.7052C35.5991 7.62497 30.4991 7.62497 27.4189 10.7052L13.0278 25.0963C11.109 27.0151 10.0486 29.5903 10.0486 32.3675C10.0486 35.0943 11.109 37.6695 13.0278 39.6388C14.9466 41.5576 17.5218 42.618 20.2486 42.618Z" fill="#00277D"/>
</svg>
