<svg width="495" height="549" viewBox="0 0 495 549" fill="none" xmlns="http://www.w3.org/2000/svg">
<path opacity="0.3" d="M448.594 77.2031V497.531L394.453 435.79L340.312 497.531L286.172 435.79L232.031 497.531L177.891 437.034L123.75 497.531V77.2031C123.75 70.3779 126.195 63.8323 130.546 59.0062C134.897 54.18 140.799 51.4688 146.953 51.4688H425.391C431.544 51.4688 437.446 54.18 441.798 59.0062C446.149 63.8323 448.594 70.3779 448.594 77.2031Z" fill="#5679E0"/>
<path d="M426.357 77.2031V440.701L394.453 402.85L340.312 464.591L286.172 402.85L232.031 464.591L177.891 404.094L123.75 464.591V77.2031C123.75 70.3779 126.195 63.8323 130.546 59.0062C134.897 54.18 140.799 51.4688 146.953 51.4688H403.154C409.308 51.4688 415.21 54.18 419.561 59.0062C423.913 63.8323 426.357 70.3779 426.357 77.2031Z" fill="white"/>
<path d="M448.594 501.82C448.077 501.818 447.567 501.701 447.092 501.476C446.617 501.252 446.188 500.924 445.829 500.512L394.453 441.945L343.078 500.534C342.334 501.334 341.339 501.782 340.303 501.782C339.267 501.782 338.271 501.334 337.528 500.534L286.172 441.945L234.796 500.534C234.436 500.941 234.006 501.265 233.531 501.486C233.056 501.707 232.546 501.821 232.031 501.82C231.521 501.821 231.016 501.709 230.544 501.492C230.073 501.275 229.645 500.956 229.286 500.555L177.891 443.125L126.496 500.555C125.956 501.159 125.267 501.571 124.515 501.739C123.764 501.907 122.985 501.824 122.276 501.5C121.567 501.176 120.962 500.626 120.535 499.919C120.109 499.212 119.882 498.381 119.883 497.531V77.2031C119.883 69.2404 122.735 61.6038 127.812 55.9734C132.888 50.3429 139.774 47.1797 146.953 47.1797H425.391C432.57 47.1797 439.456 50.3429 444.532 55.9734C449.609 61.6038 452.461 69.2404 452.461 77.2031V497.531C452.461 498.669 452.053 499.76 451.328 500.564C450.603 501.368 449.619 501.82 448.594 501.82ZM177.891 432.745C178.401 432.745 178.906 432.856 179.377 433.073C179.849 433.29 180.277 433.609 180.636 434.01L232.031 491.419L283.426 432.809C284.17 432.009 285.165 431.561 286.201 431.561C287.237 431.561 288.232 432.009 288.976 432.809L340.312 491.376L391.688 432.788C392.431 431.987 393.427 431.54 394.463 431.54C395.499 431.54 396.494 431.987 397.238 432.788L444.727 486.98V77.2031C444.727 71.5155 442.689 66.0608 439.063 62.039C435.437 58.0172 430.519 55.7578 425.391 55.7578H146.953C141.825 55.7578 136.907 58.0172 133.281 62.039C129.654 66.0608 127.617 71.5155 127.617 77.2031V487.13L175.145 434.032C175.503 433.626 175.93 433.304 176.401 433.083C176.873 432.862 177.379 432.747 177.891 432.745Z" fill="#00277D"/>
<path d="M315.176 355.542H162.422C159.345 355.542 156.394 354.186 154.218 351.773C152.043 349.36 150.82 346.087 150.82 342.675C150.82 339.262 152.043 335.989 154.218 333.576C156.394 331.163 159.345 329.808 162.422 329.808H315.176C318.253 329.808 321.204 331.163 323.379 333.576C325.555 335.989 326.777 339.262 326.777 342.675C326.777 346.087 325.555 349.36 323.379 351.773C321.204 354.186 318.253 355.542 315.176 355.542Z" fill="#5679E0"/>
<path d="M251.077 107.227H162.422C159.345 107.227 156.394 105.871 154.218 103.458C152.043 101.045 150.82 97.772 150.82 94.3594C150.82 90.9468 152.043 87.674 154.218 85.2609C156.394 82.8478 159.345 81.4922 162.422 81.4922H251.077C254.154 81.4922 257.105 82.8478 259.281 85.2609C261.456 87.674 262.679 90.9468 262.679 94.3594C262.679 97.772 261.456 101.045 259.281 103.458C257.105 105.871 254.154 107.227 251.077 107.227Z" fill="#5679E0"/>
<path d="M385.733 169.311H162.422C159.345 169.311 156.394 167.955 154.218 165.542C152.043 163.129 150.82 159.856 150.82 156.444C150.82 153.031 152.043 149.758 154.218 147.345C156.394 144.932 159.345 143.576 162.422 143.576H385.733C388.81 143.576 391.76 144.932 393.936 147.345C396.112 149.758 397.334 153.031 397.334 156.444C397.334 159.856 396.112 163.129 393.936 165.542C391.76 167.955 388.81 169.311 385.733 169.311Z" fill="#5679E0"/>
<path d="M385.733 231.395H162.422C159.345 231.395 156.394 230.039 154.218 227.626C152.043 225.213 150.82 221.94 150.82 218.528C150.82 215.115 152.043 211.842 154.218 209.429C156.394 207.016 159.345 205.661 162.422 205.661H385.733C388.81 205.661 391.76 207.016 393.936 209.429C396.112 211.842 397.334 215.115 397.334 218.528C397.334 221.94 396.112 225.213 393.936 227.626C391.76 230.039 388.81 231.395 385.733 231.395Z" fill="#5679E0"/>
<path d="M315.176 293.457H162.422C159.345 293.457 156.394 292.102 154.218 289.689C152.043 287.276 150.82 284.003 150.82 280.59C150.82 277.178 152.043 273.905 154.218 271.492C156.394 269.079 159.345 267.723 162.422 267.723H315.176C318.253 267.723 321.204 269.079 323.379 271.492C325.555 273.905 326.777 277.178 326.777 280.59C326.777 284.003 325.555 287.276 323.379 289.689C321.204 292.102 318.253 293.457 315.176 293.457Z" fill="#5679E0"/>
<path d="M201.094 175.337H46.4062V283.593H201.094V175.337Z" fill="#064EAD"/>
<path d="M200.243 191.592L201.094 175.337H47.5859V191.893L123.75 263.885L200.243 191.592Z" fill="#064EAD"/>
<path d="M201.095 287.882H46.4072C45.3816 287.882 44.398 287.43 43.6727 286.626C42.9475 285.821 42.54 284.73 42.54 283.593V175.337C42.54 174.199 42.9475 173.108 43.6727 172.304C44.398 171.5 45.3816 171.048 46.4072 171.048H201.095C202.12 171.048 203.104 171.5 203.829 172.304C204.554 173.108 204.962 174.199 204.962 175.337V283.593C204.962 284.73 204.554 285.821 203.829 286.626C203.104 287.43 202.12 287.882 201.095 287.882ZM50.2744 279.304H197.228V179.626H50.2744V279.304Z" fill="#00277D"/>
<path d="M201.094 283.593L123.75 229.465L46.4062 283.593H201.094Z" fill="#064EAD"/>
<path d="M173.057 274.5L123.17 242.804L74.4434 274.5H173.057Z" fill="#064EAD"/>
<path d="M201.094 287.882H46.4062C45.5682 287.882 44.7529 287.581 44.0829 287.023C43.4129 286.464 42.9245 285.68 42.6911 284.788C42.4577 283.895 42.4921 282.942 42.7889 282.073C43.0858 281.204 43.6292 280.466 44.3372 279.969L121.681 225.841C122.298 225.41 123.012 225.182 123.74 225.182C124.469 225.182 125.183 225.41 125.8 225.841L203.143 279.969C203.851 280.466 204.395 281.204 204.692 282.073C204.988 282.942 205.023 283.895 204.789 284.788C204.556 285.68 204.068 286.464 203.398 287.023C202.728 287.581 201.912 287.882 201.074 287.882H201.094ZM59.7866 279.304H187.713L123.75 234.526L59.7866 279.304Z" fill="#00277D"/>
<path d="M201.535 174.503L123.75 243.128L45.9639 174.503H201.535Z" fill="#064EAD"/>
<path d="M123.75 252.932C122.827 252.932 121.935 252.564 121.233 251.894L43.7844 178.194C43.1827 177.62 42.7532 176.853 42.5537 175.997C42.3542 175.142 42.3943 174.238 42.6685 173.409C42.9428 172.579 43.4381 171.864 44.0876 171.358C44.7372 170.853 45.5098 170.582 46.3014 170.582H201.199C201.99 170.582 202.763 170.853 203.413 171.358C204.062 171.864 204.558 172.579 204.832 173.409C205.106 174.238 205.146 175.142 204.947 175.997C204.747 176.853 204.318 177.62 203.716 178.194L126.267 251.894C125.566 252.564 124.673 252.932 123.75 252.932ZM56.8151 179.232L123.75 242.941L190.685 179.232H56.8151Z" fill="#00277D"/>
<path d="M479.531 308.812C482.735 308.812 485.332 305.932 485.332 302.379C485.332 298.826 482.735 295.945 479.531 295.945C476.328 295.945 473.73 298.826 473.73 302.379C473.73 305.932 476.328 308.812 479.531 308.812Z" fill="#5679E0"/>
<path d="M365.449 17.1562C367.585 17.1562 369.316 15.236 369.316 12.8672C369.316 10.4984 367.585 8.57812 365.449 8.57812C363.313 8.57812 361.582 10.4984 361.582 12.8672C361.582 15.236 363.313 17.1562 365.449 17.1562Z" fill="#5679E0"/>
<path d="M464.062 109.371C465.13 109.371 465.996 108.411 465.996 107.227C465.996 106.042 465.13 105.082 464.062 105.082C462.995 105.082 462.129 106.042 462.129 107.227C462.129 108.411 462.995 109.371 464.062 109.371Z" fill="#5679E0"/>
<path d="M473.73 270.211C479.07 270.211 483.398 265.41 483.398 259.488C483.398 253.566 479.07 248.766 473.73 248.766C468.391 248.766 464.062 253.566 464.062 259.488C464.062 265.41 468.391 270.211 473.73 270.211Z" fill="#5679E0"/>
<path d="M431.191 30.0234C435.463 30.0234 438.926 26.1829 438.926 21.4453C438.926 16.7077 435.463 12.8672 431.191 12.8672C426.92 12.8672 423.457 16.7077 423.457 21.4453C423.457 26.1829 426.92 30.0234 431.191 30.0234Z" fill="#5679E0"/>
<path d="M46.4072 130.816C48.543 130.816 50.2744 128.896 50.2744 126.527C50.2744 124.159 48.543 122.238 46.4072 122.238C44.2714 122.238 42.54 124.159 42.54 126.527C42.54 128.896 44.2714 130.816 46.4072 130.816Z" fill="#5679E0"/>
<path d="M164.355 36.457C165.423 36.457 166.289 35.4969 166.289 34.3125C166.289 33.1281 165.423 32.168 164.355 32.168C163.288 32.168 162.422 33.1281 162.422 34.3125C162.422 35.4969 163.288 36.457 164.355 36.457Z" fill="#5679E0"/>
<path d="M473.73 386.016C478.002 386.016 481.465 382.175 481.465 377.438C481.465 372.7 478.002 368.859 473.73 368.859C469.459 368.859 465.996 372.7 465.996 377.438C465.996 382.175 469.459 386.016 473.73 386.016Z" fill="#00277D"/>
<path d="M253.301 32.168C256.504 32.168 259.102 29.2876 259.102 25.7344C259.102 22.1812 256.504 19.3008 253.301 19.3008C250.097 19.3008 247.5 22.1812 247.5 25.7344C247.5 29.2876 250.097 32.168 253.301 32.168Z" fill="#00277D"/>
<path d="M435.059 514.688C437.194 514.688 438.926 512.767 438.926 510.398C438.926 508.03 437.194 506.109 435.059 506.109C432.923 506.109 431.191 508.03 431.191 510.398C431.191 512.767 432.923 514.688 435.059 514.688Z" fill="#00277D"/>
<path d="M402.188 488.953C403.255 488.953 404.121 487.993 404.121 486.809C404.121 485.624 403.255 484.664 402.188 484.664C401.12 484.664 400.254 485.624 400.254 486.809C400.254 487.993 401.12 488.953 402.188 488.953Z" fill="#00277D"/>
<path d="M483.398 177.996C487.67 177.996 491.133 174.156 491.133 169.418C491.133 164.68 487.67 160.84 483.398 160.84C479.127 160.84 475.664 164.68 475.664 169.418C475.664 174.156 479.127 177.996 483.398 177.996Z" fill="#064EAD"/>
<path d="M338.379 527.555C341.583 527.555 344.18 524.674 344.18 521.121C344.18 517.568 341.583 514.688 338.379 514.688C335.175 514.688 332.578 517.568 332.578 521.121C332.578 524.674 335.175 527.555 338.379 527.555Z" fill="#064EAD"/>
<path d="M303.574 34.3125C304.642 34.3125 305.508 33.3524 305.508 32.168C305.508 30.9836 304.642 30.0234 303.574 30.0234C302.506 30.0234 301.641 30.9836 301.641 32.168C301.641 33.3524 302.506 34.3125 303.574 34.3125Z" fill="#064EAD"/>
<path d="M11.4911 160.779C17.8374 160.779 22.9821 155.073 22.9821 148.034C22.9821 140.995 17.8374 135.289 11.4911 135.289C5.14473 135.289 0 140.995 0 148.034C0 155.073 5.14473 160.779 11.4911 160.779Z" fill="#5679E0"/>
<path d="M260.758 527.432C266.128 527.432 270.482 523.043 270.482 517.629C270.482 512.214 266.128 507.825 260.758 507.825C255.388 507.825 251.035 512.214 251.035 517.629C251.035 523.043 255.388 527.432 260.758 527.432Z" fill="#5679E0"/>
<path d="M22.9826 223.522C26.888 223.522 30.054 220.01 30.054 215.679C30.054 211.347 26.888 207.836 22.9826 207.836C19.0771 207.836 15.9111 211.347 15.9111 215.679C15.9111 220.01 19.0771 223.522 22.9826 223.522Z" fill="#064EAD"/>
<path d="M96.3485 517.628C102.695 517.628 107.84 511.922 107.84 504.884C107.84 497.845 102.695 492.139 96.3485 492.139C90.0021 492.139 84.8574 497.845 84.8574 504.884C84.8574 511.922 90.0021 517.628 96.3485 517.628Z" fill="#00277D"/>
<path d="M34.4735 401.946C40.8198 401.946 45.9646 396.24 45.9646 389.202C45.9646 382.163 40.8198 376.457 34.4735 376.457C28.1272 376.457 22.9824 382.163 22.9824 389.202C22.9824 396.24 28.1272 401.946 34.4735 401.946Z" fill="#064EAD"/>
<path d="M27.4021 45.0965C29.843 45.0965 31.8217 42.9019 31.8217 40.1948C31.8217 37.4876 29.843 35.293 27.4021 35.293C24.9612 35.293 22.9824 37.4876 22.9824 40.1948C22.9824 42.9019 24.9612 45.0965 27.4021 45.0965Z" fill="#5679E0"/>
<path d="M27.4018 117.643C28.8663 117.643 30.0536 116.326 30.0536 114.702C30.0536 113.078 28.8663 111.761 27.4018 111.761C25.9372 111.761 24.75 113.078 24.75 114.702C24.75 116.326 25.9372 117.643 27.4018 117.643Z" fill="#5679E0"/>
<path d="M92.8122 33.3321C95.2531 33.3321 97.2318 31.1375 97.2318 28.4304C97.2318 25.7232 95.2531 23.5286 92.8122 23.5286C90.3713 23.5286 88.3926 25.7232 88.3926 28.4304C88.3926 31.1375 90.3713 33.3321 92.8122 33.3321Z" fill="#064EAD"/>
</svg>
