<svg width="174" height="189" viewBox="0 0 174 189" fill="none" xmlns="http://www.w3.org/2000/svg">
<path d="M43.0274 43.7575C49.5018 43.7575 54.7504 38.0565 54.7504 31.024C54.7504 23.9914 49.5018 18.2904 43.0274 18.2904C36.553 18.2904 31.3044 23.9914 31.3044 31.024C31.3044 38.0565 36.553 43.7575 43.0274 43.7575Z" fill="url(#paint0_linear)"/>
<path d="M43.0394 43.9175C42.7595 43.9175 42.4759 43.9065 42.1965 43.8847L42.2172 43.5705C42.7191 43.6094 43.2293 43.6125 43.7312 43.5798L43.7486 43.8942C43.5133 43.9097 43.2747 43.9175 43.0394 43.9175ZM45.2881 43.6823L45.2328 43.3729C45.7264 43.2688 46.2186 43.1279 46.6958 42.9542L46.788 43.2528C46.2987 43.4309 45.7941 43.5754 45.2881 43.6823ZM40.6595 43.6558L40.6303 43.6493C40.1176 43.5342 39.6144 43.3836 39.1285 43.2009L39.2234 42.9034C39.6973 43.0817 40.1885 43.2282 40.6831 43.3395L40.7162 43.3469L40.6595 43.6558ZM48.2237 42.6144L48.0967 42.3311C48.5489 42.0915 48.9912 41.817 49.4111 41.5157L49.571 41.7784C49.1405 42.0875 48.6873 42.3687 48.2237 42.6144ZM37.6986 42.5462C37.2373 42.2948 36.7867 42.0075 36.3596 41.6921L36.5226 41.4317C36.9392 41.7391 37.3786 42.0195 37.8287 42.2646L37.6986 42.5462ZM50.8074 40.7597L50.6175 40.5216C50.9982 40.1631 51.3607 39.7742 51.6946 39.3655L51.9115 39.5747C51.5691 39.9936 51.1975 40.3922 50.8074 40.7597ZM35.1354 40.6547C34.7507 40.2822 34.3845 39.8777 34.0469 39.4527L34.2666 39.2469C34.596 39.6616 34.9533 40.0562 35.3285 40.4195L35.1354 40.6547ZM52.8637 38.2428L52.6236 38.0664C52.9056 37.6133 53.1628 37.1351 53.3874 36.6458L53.6471 36.7863C53.4164 37.2882 53.1531 37.7781 52.8637 38.2428ZM33.1118 38.1076C32.8282 37.6391 32.5701 37.146 32.3452 36.6422L32.6062 36.5049C32.8256 36.9965 33.0774 37.4774 33.3542 37.9346L33.1118 38.1076ZM54.2466 35.2319L53.9724 35.1294C54.1327 34.6231 54.265 34.0983 54.3657 33.5701L54.3707 33.5435L54.6551 33.6058L54.6497 33.6346C54.5466 34.1749 54.4111 34.7127 54.2466 35.2319ZM31.7606 35.0815C31.5976 34.5491 31.4657 34.0006 31.3687 33.4515L31.6535 33.392C31.7482 33.928 31.877 34.4628 32.0359 34.9822L31.7606 35.0815ZM54.867 31.9361L54.5778 31.9134C54.5977 31.6146 54.6077 31.3107 54.6077 31.0109C54.6077 30.7639 54.601 30.5144 54.5874 30.2691L54.8769 30.2502C54.8908 30.5018 54.8977 30.7578 54.8977 31.0109C54.8979 31.3183 54.8875 31.6295 54.867 31.9361ZM31.1769 31.7786C31.1637 31.5319 31.157 31.2824 31.157 31.0369C31.157 30.724 31.1678 30.4065 31.1891 30.0927L31.4783 30.1158C31.4576 30.4218 31.447 30.7318 31.447 31.0369C31.447 31.2763 31.4536 31.5199 31.4663 31.7603L31.1769 31.7786ZM54.3984 28.6374C54.3027 28.1011 54.1733 27.5662 54.0138 27.0479L54.2889 26.948C54.4525 27.4793 54.5851 28.0276 54.6831 28.5774L54.3984 28.6374ZM31.689 28.4776L31.4031 28.4241L31.405 28.414C31.5092 27.8667 31.6467 27.323 31.8135 26.798L32.0877 26.9009C31.9249 27.4129 31.7907 27.9434 31.689 28.4776ZM53.4414 25.5261C53.2211 25.0349 52.9688 24.5542 52.6914 24.0977L52.9335 23.9242C53.2177 24.3923 53.4763 24.8847 53.7022 25.3883L53.4414 25.5261ZM32.675 25.3852L32.4156 25.2443C32.6468 24.7426 32.9109 24.2531 33.2009 23.789L33.4408 23.9658C33.158 24.4183 32.9005 24.8959 32.675 25.3852ZM51.7771 22.7866C51.4473 22.3727 51.0895 21.9788 50.7136 21.6157L50.9064 21.3803C51.2917 21.7524 51.6584 22.1562 51.9964 22.5804L51.7771 22.7866ZM34.3715 22.668L34.155 22.4586C34.4978 22.0403 34.8698 21.6421 35.2607 21.2755L35.4501 21.5138C35.0691 21.8717 34.706 22.2599 34.3715 22.668ZM49.5182 20.6058C49.101 20.299 48.661 20.0195 48.2107 19.7748L48.3405 19.493C48.8021 19.7435 49.253 20.0302 49.6808 20.3447L49.5182 20.6058ZM36.6579 20.5218L36.4984 20.2586C36.9293 19.9504 37.3831 19.6698 37.8469 19.4249L37.9735 19.7082C37.5211 19.9472 37.0784 20.2208 36.6579 20.5218ZM46.8151 19.1383C46.346 18.9627 45.8604 18.818 45.3712 18.7082L45.4128 18.3959L45.4294 18.3997C45.9311 18.5123 46.429 18.6608 46.9096 18.8407L46.8151 19.1383ZM39.3752 19.0875L39.2834 18.7886C39.7727 18.6114 40.2775 18.4678 40.7838 18.3617L40.8387 18.671C40.345 18.7746 39.8523 18.9146 39.3752 19.0875ZM43.8547 18.4785C43.3507 18.4386 42.8405 18.4348 42.3407 18.4665L42.3237 18.1521C42.8359 18.1194 43.3592 18.1234 43.8758 18.1643L43.8547 18.4785Z" fill="#E2DCE3"/>
<path d="M133.504 148.076C141.531 148.076 148.038 141.008 148.038 132.289C148.038 123.57 141.531 116.502 133.504 116.502C125.477 116.502 118.97 123.57 118.97 132.289C118.97 141.008 125.477 148.076 133.504 148.076Z" fill="url(#paint1_linear)"/>
<path d="M133.529 148.233L133.529 147.918C134.031 147.917 134.537 147.888 135.032 147.831L135.062 148.144C134.557 148.202 134.041 148.232 133.529 148.233ZM131.995 148.15C131.487 148.094 130.976 148.007 130.477 147.894L130.537 147.585C131.026 147.697 131.526 147.781 132.024 147.836L131.995 148.15ZM136.579 147.882L136.519 147.574C137.008 147.461 137.497 147.318 137.973 147.15L138.063 147.449C137.578 147.621 137.079 147.767 136.579 147.882ZM128.992 147.466C128.506 147.295 128.023 147.095 127.557 146.87L127.674 146.582C128.131 146.802 128.605 146.999 129.081 147.166L128.992 147.466ZM139.496 146.848L139.378 146.561C139.834 146.339 140.285 146.088 140.717 145.815L140.863 146.088C140.421 146.366 139.962 146.622 139.496 146.848ZM126.187 146.114C125.744 145.837 125.31 145.532 124.897 145.206L125.068 144.951C125.472 145.27 125.897 145.569 126.332 145.841L126.187 146.114ZM142.149 145.176L141.978 144.921C142.381 144.601 142.775 144.254 143.146 143.889L143.341 144.123C142.961 144.495 142.56 144.85 142.149 145.176ZM123.703 144.158C123.323 143.788 122.957 143.392 122.614 142.98L122.829 142.769C123.165 143.172 123.524 143.561 123.896 143.923L123.703 144.158ZM144.426 142.942L144.21 142.731C144.544 142.327 144.863 141.899 145.157 141.459L145.392 141.644C145.092 142.093 144.767 142.53 144.426 142.942ZM121.645 141.686C121.342 141.237 121.06 140.767 120.804 140.29L121.055 140.131C121.305 140.599 121.583 141.06 121.879 141.501L121.645 141.686ZM146.228 140.244L145.977 140.087C146.227 139.615 146.457 139.125 146.66 138.629L146.925 138.757C146.718 139.262 146.484 139.763 146.228 140.244ZM120.103 138.805C119.894 138.299 119.708 137.775 119.55 137.249L119.825 137.151C119.98 137.667 120.163 138.18 120.368 138.677L120.103 138.805ZM147.474 137.198L147.198 137.101C147.352 136.584 147.482 136.052 147.585 135.52L147.869 135.585C147.764 136.128 147.631 136.67 147.474 137.198ZM119.149 135.638C119.043 135.097 118.961 134.542 118.908 133.99L119.196 133.957C119.249 134.498 119.329 135.042 119.433 135.572L119.149 135.638ZM148.105 133.937L147.817 133.905C147.867 133.371 147.893 132.827 147.893 132.289L148.183 132.271V132.289C148.183 132.838 148.157 133.392 148.105 133.937ZM119.115 132.324H118.825V132.288C118.825 131.733 118.852 131.173 118.904 130.623L119.192 130.655C119.141 131.194 119.115 131.744 119.115 132.288V132.324ZM147.814 130.638C147.761 130.097 147.682 129.553 147.578 129.023L147.862 128.957C147.968 129.498 148.049 130.053 148.102 130.605L147.814 130.638ZM119.426 129.04L119.143 128.974C119.248 128.432 119.382 127.89 119.539 127.362L119.815 127.459C119.661 127.976 119.53 128.508 119.426 129.04ZM147.188 127.443C147.033 126.927 146.851 126.413 146.647 125.916L146.911 125.788C147.12 126.295 147.306 126.819 147.464 127.345L147.188 127.443ZM120.355 125.932L120.09 125.804C120.297 125.298 120.532 124.798 120.788 124.318L121.039 124.475C120.789 124.946 120.558 125.437 120.355 125.932ZM145.961 124.461C145.71 123.991 145.434 123.53 145.139 123.091L145.373 122.906C145.674 123.354 145.956 123.824 146.212 124.303L145.961 124.461ZM121.86 123.104L121.626 122.918C121.926 122.471 122.251 122.035 122.593 121.622L122.809 121.833C122.474 122.237 122.155 122.665 121.86 123.104ZM144.19 121.821C143.855 121.418 143.496 121.029 143.124 120.666L143.318 120.431C143.697 120.802 144.063 121.199 144.405 121.61L144.19 121.821ZM123.874 120.676L123.68 120.442C124.058 120.071 124.46 119.717 124.872 119.391L125.043 119.645C124.638 119.966 124.245 120.312 123.874 120.676ZM141.954 119.636C141.548 119.316 141.123 119.016 140.691 118.745L140.836 118.472C141.277 118.749 141.71 119.055 142.124 119.381L141.954 119.636ZM126.305 118.753L126.159 118.48C126.602 118.202 127.062 117.947 127.527 117.722L127.645 118.009C127.189 118.23 126.738 118.48 126.305 118.753ZM139.349 118.002C138.892 117.781 138.419 117.584 137.943 117.417L138.032 117.117C138.518 117.288 139 117.489 139.467 117.714L139.349 118.002ZM129.051 117.422L128.961 117.122C129.446 116.951 129.945 116.806 130.445 116.691L130.505 116.999C130.015 117.112 129.526 117.254 129.051 117.422ZM136.487 116.995C135.998 116.884 135.498 116.798 135 116.743L135.03 116.429C135.537 116.486 136.048 116.573 136.547 116.687L136.487 116.995ZM131.992 116.744L131.962 116.431C132.468 116.374 132.984 116.345 133.496 116.344L133.496 116.659C132.994 116.659 132.488 116.688 131.992 116.744Z" fill="#E2DCE3"/>
<path d="M44.3529 150.998C54.1124 150.998 62.0241 142.404 62.0241 131.803C62.0241 121.202 54.1124 112.608 44.3529 112.608C34.5933 112.608 26.6816 121.202 26.6816 131.803C26.6816 142.404 34.5933 150.998 44.3529 150.998Z" fill="url(#paint2_linear)"/>
<path d="M44.3687 151.155L44.3683 150.84C44.877 150.84 45.3911 150.815 45.8961 150.767L45.9214 151.081C45.4081 151.13 44.8857 151.155 44.3687 151.155ZM42.8159 151.084C42.3014 151.036 41.7829 150.962 41.2748 150.866L41.3247 150.555C41.8246 150.65 42.3349 150.722 42.8408 150.77L42.8159 151.084ZM47.4624 150.86L47.412 150.55C47.9123 150.454 48.4146 150.333 48.9049 150.19L48.9799 150.495C48.4815 150.64 47.9709 150.763 47.4624 150.86ZM39.7569 150.504C39.2585 150.36 38.7595 150.19 38.2741 149.999L38.3729 149.703C38.8506 149.891 39.3413 150.058 39.8316 150.2L39.7569 150.504ZM50.4624 149.987L50.363 149.691C50.8404 149.502 51.3156 149.288 51.7755 149.055L51.8983 149.34C51.4308 149.577 50.9477 149.795 50.4624 149.987ZM36.8376 149.355C36.3701 149.119 35.9061 148.857 35.4588 148.577L35.6038 148.304C36.0438 148.58 36.5001 148.837 36.96 149.07L36.8376 149.355ZM53.2765 148.559L53.1312 148.286C53.5702 148.01 54.0037 147.708 54.4195 147.391L54.5864 147.648C54.1636 147.971 53.723 148.277 53.2765 148.559ZM34.1482 147.67C33.7259 147.349 33.3112 147.004 32.9158 146.643L33.1022 146.402C33.4912 146.757 33.8991 147.097 34.3144 147.413L34.1482 147.67ZM55.8179 146.617L55.631 146.377C56.0147 146.025 56.3898 145.651 56.7459 145.265L56.8594 145.364L56.9536 145.484C56.5891 145.88 56.2079 146.261 55.8179 146.617ZM31.7707 145.505L31.7529 145.485C31.3893 145.09 31.0359 144.672 30.7041 144.243L30.9261 144.041C31.2524 144.462 31.6 144.874 31.9598 145.265L31.7707 145.505ZM58.0117 144.23L57.7897 144.028C58.1161 143.606 58.4293 143.163 58.7202 142.711L58.9578 142.892C58.6617 143.351 58.3434 143.801 58.0117 144.23ZM29.756 142.905C29.4587 142.445 29.1772 141.966 28.9195 141.481L29.1706 141.324C29.4241 141.8 29.7009 142.272 29.9934 142.724L29.756 142.905ZM59.7925 141.469L59.5413 141.312C59.795 140.834 60.0322 140.339 60.2464 139.839L60.5093 139.972C60.2916 140.48 60.0504 140.984 59.7925 141.469ZM28.2012 139.984C27.9833 139.476 27.7834 138.951 27.6069 138.423L27.8795 138.316C28.0531 138.835 28.2497 139.351 28.464 139.851L28.2012 139.984ZM61.1027 138.412L60.8301 138.304C61.0031 137.786 61.157 137.253 61.2877 136.72L61.5678 136.801C61.435 137.343 61.2786 137.885 61.1027 138.412ZM27.1408 136.813C27.0078 136.272 26.8951 135.717 26.8057 135.164L27.0915 135.109C27.1795 135.653 27.2902 136.199 27.4211 136.731L27.1408 136.813ZM61.9019 135.152L61.6162 135.098C61.7036 134.556 61.7699 134.002 61.8138 133.451L62.1026 133.478C62.0583 134.038 61.9909 134.601 61.9019 135.152ZM26.6041 133.49C26.5594 132.932 26.5366 132.364 26.5366 131.804H26.8266C26.8266 132.355 26.8489 132.913 26.8929 133.463L26.6041 133.49ZM61.8791 131.792C61.8787 131.24 61.8561 130.682 61.8118 130.133L62.1007 130.105C62.1455 130.663 62.1687 131.231 62.1691 131.792L61.8791 131.792ZM26.8929 130.144L26.6041 130.117C26.6488 129.558 26.7166 128.995 26.8057 128.443L27.0915 128.497C27.0037 129.041 26.937 129.595 26.8929 130.144ZM61.6125 128.486C61.5243 127.942 61.4132 127.397 61.2821 126.864L61.5622 126.783C61.6954 127.324 61.8083 127.879 61.898 128.432L61.6125 128.486ZM27.4209 126.876L27.1408 126.795C27.274 126.252 27.4308 125.711 27.6067 125.184L27.8793 125.292C27.7063 125.81 27.552 126.343 27.4209 126.876ZM60.8227 125.28C60.6489 124.761 60.4519 124.245 60.2373 123.746L60.5001 123.612C60.7183 124.12 60.9186 124.645 61.0951 125.172L60.8227 125.28ZM28.4636 123.758L28.2008 123.624C28.4189 123.116 28.6604 122.612 28.9185 122.127L29.1696 122.285C28.9158 122.762 28.6782 123.257 28.4636 123.758ZM59.5301 122.273C59.2763 121.797 58.999 121.326 58.7063 120.874L58.9437 120.692C59.2413 121.152 59.523 121.631 59.7811 122.115L59.5301 122.273ZM29.9915 120.886L29.7541 120.705C30.0501 120.247 30.3687 119.797 30.7008 119.368L30.9228 119.57C30.596 119.992 30.2826 120.435 29.9915 120.886ZM57.7731 119.557C57.4489 119.139 57.1032 118.73 56.7459 118.342L56.9437 118.111L56.953 118.121C57.3141 118.513 57.6654 118.929 57.995 119.354L57.7731 119.557ZM31.9602 118.342L31.7475 118.127L31.7632 118.111C32.1195 117.723 32.5035 117.341 32.8959 116.982L33.0827 117.223C32.6964 117.576 32.3188 117.952 31.9602 118.342ZM55.6114 117.212C55.223 116.857 54.8155 116.517 54.3998 116.201L54.5663 115.943C54.9889 116.265 55.4032 116.61 55.798 116.971L55.6114 117.212ZM34.2947 116.209L34.128 115.951C34.5511 115.628 34.9921 115.322 35.4383 115.042L35.5835 115.315C35.1446 115.591 34.7109 115.891 34.2947 116.209ZM53.1112 115.308C52.6714 115.032 52.2153 114.775 51.7554 114.542L51.878 114.257C52.3455 114.493 52.8093 114.755 53.2563 115.036L53.1112 115.308ZM36.9395 114.547L36.8169 114.262C37.284 114.025 37.7674 113.808 38.2532 113.616L38.3524 113.912C37.8745 114.101 37.3991 114.315 36.9395 114.547ZM50.3429 113.908C49.8665 113.72 49.3759 113.553 48.8846 113.41L48.9592 113.106C49.4588 113.25 49.9578 113.421 50.4419 113.612L50.3429 113.908ZM39.8109 113.413L39.7361 113.109C40.2337 112.965 40.7443 112.842 41.2537 112.745L41.304 113.055C40.8031 113.151 40.3006 113.271 39.8109 113.413ZM47.3913 113.053C46.8907 112.958 46.3805 112.885 45.8752 112.838L45.9003 112.524C46.414 112.573 46.9323 112.646 47.4414 112.743L47.3913 113.053ZM42.8201 112.839L42.7948 112.525C43.3096 112.476 43.832 112.451 44.3476 112.451V112.766C43.8405 112.766 43.3267 112.791 42.8201 112.839Z" fill="#E2DCE3"/>
<path d="M48.7259 137.631L38.8098 126.86H61.3824L71.2591 137.588L48.7259 137.631Z" fill="url(#paint3_linear)"/>
<path d="M61.3849 126.862C60.6707 129.056 61.121 131.598 62.7369 133.353L66.6435 137.596L71.259 137.588L61.3849 126.862Z" fill="url(#paint4_linear)"/>
<path d="M38.8106 126.861C38.0955 129.055 38.5455 131.597 40.1618 133.353L47.3876 141.202C49.0039 142.957 51.3446 143.446 53.3647 142.669L38.8106 126.861Z" fill="url(#paint5_linear)"/>
<path d="M74.5053 139.672L70.8432 137.179H70.4944H69.8497H49.1646V138.15L50.5662 139.672H74.5053Z" fill="#250F52"/>
<path d="M54.2429 158.894V141.802C54.2429 139.249 52.3373 137.179 49.9865 137.179H48.3099C45.9594 137.179 44.0537 139.249 44.0537 141.802V158.894H54.2429Z" fill="url(#paint6_linear)"/>
<path d="M70.8433 137.179V139.672H74.5054L70.8433 137.179Z" fill="#5C60D5"/>
<path d="M54.243 156.687H44.054V158.894H54.243V156.687Z" fill="#FF8066"/>
<path d="M54.243 145.917H44.0539C43.9472 145.917 43.8606 145.823 43.8606 145.707C43.8606 145.591 43.9472 145.497 44.0539 145.497H54.243C54.3497 145.497 54.4363 145.591 54.4363 145.707C54.4363 145.823 54.3499 145.917 54.243 145.917Z" fill="#5670C4"/>
<path d="M57.9236 135.232H56.6418V141.75H57.9236V135.232Z" fill="#724A5F"/>
<path d="M70.5101 144.65L70.275 144.394H70.2748L55.0852 127.882H54.3699L55.0852 129.08L69.2564 144.654C69.3872 144.654 69.4953 144.652 69.5893 144.65H70.5101Z" fill="#724A5F"/>
<path d="M64.067 138.427L54.3698 127.882L54.3696 144.65H61.4561H62.5327H69.8055L64.067 138.427ZM57.3315 141.433V135.541L62.7499 141.433H57.3315Z" fill="url(#paint7_linear)"/>
<path d="M55.5545 143.53H54.3696C54.3228 143.53 54.2849 143.489 54.2849 143.438C54.2849 143.387 54.3226 143.346 54.3696 143.346H55.5545C55.6011 143.346 55.6392 143.387 55.6392 143.438C55.639 143.489 55.6011 143.53 55.5545 143.53ZM55.5543 142.25H54.3698C54.323 142.25 54.2851 142.209 54.2851 142.158C54.2851 142.107 54.3228 142.066 54.3698 142.066H55.5543C55.6011 142.066 55.639 142.107 55.639 142.158C55.6388 142.209 55.6011 142.25 55.5543 142.25ZM55.5543 140.97H54.3698C54.323 140.97 54.2851 140.929 54.2851 140.878C54.2851 140.828 54.3228 140.786 54.3698 140.786H55.5543C55.6011 140.786 55.639 140.827 55.639 140.878C55.6388 140.929 55.6011 140.97 55.5543 140.97ZM55.5543 139.691H54.3696C54.3228 139.691 54.2849 139.65 54.2849 139.599C54.2849 139.548 54.3226 139.507 54.3696 139.507H55.5543C55.6011 139.507 55.639 139.548 55.639 139.599C55.639 139.65 55.6011 139.691 55.5543 139.691ZM55.5543 138.411H54.3698C54.323 138.411 54.2851 138.37 54.2851 138.319C54.2851 138.269 54.3228 138.227 54.3698 138.227H55.5543C55.6011 138.227 55.639 138.268 55.639 138.319C55.6388 138.37 55.6011 138.411 55.5543 138.411ZM55.5543 137.131H54.3698C54.323 137.131 54.2851 137.09 54.2851 137.039C54.2851 136.989 54.3228 136.948 54.3698 136.948H55.5543C55.6011 136.948 55.639 136.988 55.639 137.039C55.6388 137.09 55.6011 137.131 55.5543 137.131ZM55.5543 135.852H54.3698C54.323 135.852 54.2851 135.811 54.2851 135.76C54.2851 135.709 54.3228 135.668 54.3698 135.668H55.5543C55.6011 135.668 55.639 135.709 55.639 135.76C55.6388 135.811 55.6011 135.852 55.5543 135.852ZM55.5543 134.572H54.3698C54.323 134.572 54.2851 134.531 54.2851 134.48C54.2851 134.429 54.3228 134.388 54.3698 134.388H55.5543C55.6011 134.388 55.639 134.429 55.639 134.48C55.6388 134.531 55.6011 134.572 55.5543 134.572ZM55.5543 133.292H54.3698C54.323 133.292 54.2851 133.252 54.2851 133.2C54.2851 133.15 54.3228 133.109 54.3698 133.109H55.5543C55.6011 133.109 55.639 133.15 55.639 133.2C55.6388 133.251 55.6011 133.292 55.5543 133.292ZM55.5543 132.013H54.3698C54.323 132.013 54.2851 131.972 54.2851 131.921C54.2851 131.87 54.3228 131.829 54.3698 131.829H55.5543C55.6011 131.829 55.639 131.87 55.639 131.921C55.6388 131.972 55.6011 132.013 55.5543 132.013ZM55.5543 130.733H54.3698C54.323 130.733 54.2851 130.692 54.2851 130.641C54.2851 130.591 54.3228 130.549 54.3698 130.549H55.5543C55.6011 130.549 55.639 130.59 55.639 130.641C55.6388 130.692 55.6011 130.733 55.5543 130.733Z" fill="#FF8066"/>
<path d="M71.5263 137.179H70.8432L74.5053 139.672H53.7642C54.0696 140.31 54.243 141.034 54.243 141.802V158.894H65.5933H70.4945H75.7825V141.802C75.7825 139.249 73.8768 137.179 71.5263 137.179Z" fill="url(#paint8_linear)"/>
<path d="M75.7824 145.917H54.2431C54.1364 145.917 54.0498 145.823 54.0498 145.707C54.0498 145.591 54.1364 145.497 54.2431 145.497H75.7824C75.8891 145.497 75.9757 145.591 75.9757 145.707C75.9757 145.823 75.8891 145.917 75.7824 145.917Z" fill="#3E3EBA"/>
<path d="M58.5476 146.692C58.5476 147.229 58.9482 147.664 59.4425 147.664C59.9367 147.664 60.3373 147.229 60.3373 146.692V146.166H58.5476V146.692ZM60.3373 144.67C60.3373 144.133 59.9367 143.698 59.4425 143.698C58.9482 143.698 58.5476 144.133 58.5476 144.67V145.248H60.3373V144.67ZM72.4558 144.709C72.4558 144.173 72.0554 143.738 71.5611 143.738C71.0667 143.738 70.6663 144.173 70.6663 144.709V145.248H72.4558V144.709ZM70.6663 146.731C70.6663 147.268 71.0667 147.703 71.5611 147.703C72.0554 147.703 72.4558 147.268 72.4558 146.731V146.166H70.6663V146.731Z" fill="#E3DDE4"/>
<path d="M75.7824 156.687H54.2432V158.893H75.7824V156.687Z" fill="url(#paint9_linear)"/>
<path d="M74.1438 132.387C74.1436 132.385 74.144 132.383 74.1436 132.381C74.1417 132.369 74.138 132.357 74.1328 132.345C74.132 132.343 74.1303 132.342 74.1291 132.34C74.1245 132.331 74.1191 132.322 74.1125 132.314C74.1123 132.314 74.1123 132.314 74.1119 132.314L71.7399 129.609C71.7239 129.59 71.7016 129.58 71.6786 129.574C71.6763 129.574 71.6742 129.573 71.6719 129.573C71.6651 129.571 71.6591 129.568 71.6521 129.568L69.1697 129.567C69.1309 129.541 69.0822 129.541 69.0427 129.567L66.4979 129.567C66.4926 129.567 66.4876 129.57 66.4822 129.57C66.4739 129.572 66.4658 129.573 66.4582 129.576C66.4509 129.578 66.4451 129.582 66.4383 129.586C66.4312 129.591 66.4244 129.595 66.4182 129.602C66.4159 129.604 66.4132 129.604 66.4111 129.607L63.9799 132.31C63.9795 132.31 63.9793 132.311 63.9785 132.312C63.9741 132.317 63.9702 132.324 63.9664 132.33C63.9638 132.334 63.9606 132.338 63.9582 132.343C63.958 132.343 63.958 132.344 63.9577 132.344C63.9546 132.351 63.9536 132.358 63.9519 132.364C63.9505 132.369 63.948 132.374 63.9476 132.379C63.9455 132.39 63.9451 132.402 63.9461 132.413C63.9464 132.418 63.948 132.423 63.9486 132.427C63.9503 132.435 63.9517 132.444 63.9546 132.451C63.9546 132.452 63.9546 132.453 63.9548 132.453C63.9561 132.457 63.9588 132.459 63.9604 132.463C63.9637 132.469 63.9664 132.476 63.9706 132.483L69.0083 139.606C69.0091 139.608 69.0104 139.608 69.0114 139.609C69.0209 139.622 69.0313 139.632 69.0435 139.64C69.0547 139.647 69.0671 139.651 69.0798 139.654C69.0883 139.656 69.0967 139.658 69.1054 139.658C69.1059 139.658 69.1063 139.657 69.1067 139.657C69.1231 139.657 69.1388 139.652 69.1537 139.645C69.1568 139.643 69.1595 139.642 69.1624 139.641C69.1769 139.632 69.1895 139.621 69.1995 139.607C69.1999 139.606 69.201 139.606 69.2014 139.605L74.1212 132.484C74.126 132.477 74.1291 132.469 74.1326 132.462C74.1336 132.46 74.1349 132.458 74.1355 132.456C74.1357 132.456 74.1357 132.456 74.1359 132.455C74.1398 132.445 74.1421 132.435 74.1436 132.424C74.1438 132.422 74.1448 132.42 74.145 132.419C74.1459 132.408 74.1452 132.397 74.1438 132.387ZM73.7407 132.272L72.0763 132.272L71.8116 130.073L73.7407 132.272ZM71.5375 129.832L71.806 132.064L69.4532 129.831L71.5375 129.832ZM69.1059 129.852L71.6564 132.272L66.5006 132.271L69.1059 129.852ZM66.6046 129.831L68.7539 129.831L66.3331 132.079L66.6046 129.831ZM66.3304 130.074L66.0652 132.271L64.3553 132.27L66.3304 130.074ZM64.3134 132.534L66.093 132.535L68.5731 138.558L64.3134 132.534ZM69.1036 139.2L66.3592 132.535L71.7944 132.536L69.1036 139.2ZM69.6368 138.536L72.0595 132.536L73.7811 132.536L69.6368 138.536Z" fill="#FF8066"/>
<path d="M84.044 99.8716C85.1024 99.8716 85.9603 98.9397 85.9603 97.7901C85.9603 96.6405 85.1024 95.7086 84.044 95.7086C82.9856 95.7086 82.1277 96.6405 82.1277 97.7901C82.1277 98.9397 82.9856 99.8716 84.044 99.8716Z" fill="#92A6EB"/>
<path d="M84.0439 106.939C79.3997 106.939 75.6213 102.835 75.6213 97.7898C75.6213 92.7451 79.3997 88.6411 84.0439 88.6411C88.6884 88.6411 92.4669 92.7451 92.4669 97.7898C92.4669 102.835 88.6884 106.939 84.0439 106.939ZM84.0439 89.0611C79.6129 89.0611 76.008 92.9768 76.008 97.7898C76.008 102.603 79.6129 106.519 84.0439 106.519C88.4751 106.519 92.0802 102.603 92.0802 97.7898C92.0802 92.9768 88.4751 89.0611 84.0439 89.0611Z" fill="#E3DDE4"/>
<path d="M84.0439 76.321C73.1279 76.321 64.2788 85.933 64.2788 97.79C64.2788 109.647 73.1279 119.259 84.0439 119.259C94.9597 119.259 103.809 109.647 103.809 97.79C103.809 85.933 94.9598 76.321 84.0439 76.321ZM84.0439 113.869C75.8684 113.869 69.2411 106.67 69.2411 97.79C69.2411 88.9097 75.8686 81.7111 84.0439 81.7111C92.2192 81.7111 98.8468 88.9099 98.8468 97.79C98.8468 106.67 92.2193 113.869 84.0439 113.869Z" fill="url(#paint10_linear)"/>
<path d="M84.0439 76.321V81.7111C92.1976 81.7111 98.8102 88.8721 98.8452 97.7198H103.808C103.773 85.8952 94.9385 76.321 84.0439 76.321Z" fill="url(#paint11_linear)"/>
<path d="M54.1819 34.8599H40.3504C39.3182 34.8599 38.4814 35.7687 38.4814 36.8899C38.4814 38.0111 39.3182 38.9198 40.3504 38.9198H54.1819V34.8599Z" fill="#BCB3B8"/>
<path d="M92.7115 34.8599H55.5513V38.9198H92.7115C93.7435 38.9198 94.5802 38.0111 94.5802 36.8899C94.5802 35.7687 93.7435 34.8599 92.7115 34.8599Z" fill="url(#paint12_linear)"/>
<path d="M78.7594 24.5701H40.3504C39.3182 24.5701 38.4814 25.4789 38.4814 26.6001C38.4814 27.7213 39.3182 28.63 40.3504 28.63H78.7594V24.5701Z" fill="#BCB3B8"/>
<path d="M103.441 24.5701H80.1287V28.63H103.441C104.474 28.63 105.31 27.7213 105.31 26.6001C105.31 25.4789 104.474 24.5701 103.441 24.5701Z" fill="url(#paint13_linear)"/>
<path d="M58.433 56.7001C53.2695 56.7927 49.1602 61.4062 49.2454 67.0147C49.3305 72.6232 53.5778 77.0867 58.7414 76.9943C63.9047 76.9017 68.014 72.2884 67.929 66.6798C67.8439 61.0713 63.5966 56.6079 58.433 56.7001ZM58.6755 72.6622C55.7165 72.7152 53.2826 70.1574 53.2339 66.9435C53.1852 63.7295 55.5398 61.0858 58.499 61.0329C61.4577 60.9799 63.8916 63.5375 63.9405 66.7514C63.9892 69.9654 61.6344 72.6091 58.6755 72.6622Z" fill="#B5A8AE"/>
<path d="M59.7184 54.158L60.311 54.7808L57.6763 54.8281L57.0835 54.2052L59.7184 54.158Z" fill="#C6BDC2"/>
<path d="M64.2144 55.6613L64.8071 56.2841L66.964 57.9286L66.3712 57.3058L64.2144 55.6613Z" fill="#B5A8AE"/>
<path d="M69.1893 61.3812L69.7816 62.0041L66.773 62.0194L66.1804 61.3964L69.1893 61.3812Z" fill="#B5A8AE"/>
<path d="M70.1225 69.1917L70.7152 69.8146L68.2724 67.9063L67.6797 67.2834L70.1225 69.1917Z" fill="#B5A8AE"/>
<path d="M57.4684 79.5365L58.061 80.1594L57.0489 77.0816L56.4563 76.4587L57.4684 79.5365Z" fill="#B5A8AE"/>
<path d="M50.8098 76.395L51.4026 77.0179L52.2502 73.8821L51.6576 73.2593L50.8098 76.395Z" fill="#B5A8AE"/>
<path d="M47.7207 70.2266L47.1279 69.6037L49.5112 67.6091L50.1039 68.232L47.7207 70.2266Z" fill="#B5A8AE"/>
<path d="M48.5745 72.9348L47.9819 72.312L47.1279 69.604L47.7207 70.2269L48.5745 72.9348Z" fill="#C6BDC2"/>
<path d="M47.0488 64.5005L47.6414 65.1233L48.4157 62.3873L47.8229 61.7644L47.0488 64.5005Z" fill="#C6BDC2"/>
<path d="M50.8307 61.6715L51.4231 62.2946L48.4158 62.3872L47.823 61.7643L50.8307 61.6715Z" fill="#B5A8AE"/>
<path d="M50.5156 57.5901L51.1082 58.2127L53.2138 56.4918L52.6212 55.8689L50.5156 57.5901Z" fill="#C6BDC2"/>
<path d="M52.0503 61.3163L51.4577 60.6937L50.5156 57.5901L51.1082 58.2127L52.0503 61.3163Z" fill="#B5A8AE"/>
<path d="M52.6213 55.8689L53.2139 56.4918L55.6984 58.335L55.1057 57.7121L52.6213 55.8689Z" fill="#B5A8AE"/>
<path d="M56.1655 57.3174L56.7583 57.9403L57.6762 54.8281L57.0835 54.2052L56.1655 57.3174Z" fill="#B5A8AE"/>
<path d="M61.7871 57.5924L62.3799 58.2151L64.8072 56.2841L64.2144 55.6613L61.7871 57.5924Z" fill="#B5A8AE"/>
<path d="M69.944 72.5513L70.7153 69.8142L68.5035 68.0863C68.5178 67.8272 68.526 67.5663 68.5221 67.3024C68.518 67.0392 68.502 66.7797 68.4799 66.5218L70.6387 64.7105L69.7818 62.0038L67.0628 62.0175C66.8037 61.5763 66.5135 61.1594 66.1967 60.7684L66.9642 57.928L64.8074 56.2835L62.6138 58.0286C62.1676 57.837 61.7044 57.6831 61.2278 57.5676L60.3112 54.7803L57.6765 54.8275L56.8461 57.6426C56.3682 57.7759 55.905 57.9477 55.4603 58.1573L53.2143 56.4909L51.1088 58.2119L51.9627 61.025C51.6586 61.4268 51.3815 61.8531 51.1364 62.3027L48.4162 62.3865L47.6421 65.1226L49.8571 66.8572C49.843 67.115 49.8349 67.3744 49.8389 67.6369C49.843 67.9002 49.859 68.16 49.8811 68.4179L47.7208 70.2258L48.5747 72.9339L51.2996 72.9236C51.56 73.367 51.8521 73.7857 52.1707 74.1784L51.4032 77.0172L53.5596 78.6621L55.7571 76.9143C56.2042 77.1056 56.6686 77.2593 57.1464 77.3744L58.062 80.1586L60.6967 80.1113L61.5283 77.2927C61.9969 77.1612 62.4512 76.9922 62.888 76.7872L65.1364 78.4546L67.2418 76.7333L66.389 73.9258C66.6962 73.5213 66.9762 73.0916 67.2235 72.6383L69.944 72.5513ZM53.8268 67.5661C53.7781 64.3521 56.1327 61.7084 59.0917 61.6555C62.0504 61.6023 64.4843 64.1601 64.5332 67.3742C64.582 70.588 62.2273 73.2317 59.2684 73.2848C56.3094 73.3378 53.8755 70.78 53.8268 67.5661Z" fill="url(#paint14_linear)"/>
<path d="M59.1771 75.7174C55.0607 75.7174 51.6563 72.0787 51.5882 67.6061C51.5548 65.4018 52.3124 63.3165 53.722 61.7341C55.1314 60.1518 57.0253 59.2603 59.0548 59.224C63.2354 59.1505 66.703 62.8152 66.7719 67.334C66.8409 71.8809 63.4914 75.6411 59.3055 75.7163C59.2624 75.717 59.2197 75.7174 59.1771 75.7174ZM59.1827 59.6429C59.1423 59.6429 59.1017 59.6434 59.0611 59.644C57.135 59.6784 55.3375 60.5245 53.9999 62.0262C52.6624 63.5279 51.9432 65.5072 51.9749 67.5992C52.04 71.888 55.3412 75.3732 59.2989 75.2961C63.2717 75.2249 66.4505 71.6562 66.385 67.3409C66.3204 63.0962 63.0894 59.6429 59.1827 59.6429Z" fill="#E3DDE4"/>
<path d="M57.2731 66.9528C57.2861 67.7976 57.9258 68.4703 58.7038 68.4562C59.4816 68.4421 60.1007 67.7472 60.0879 66.9024C60.0751 66.0573 59.4352 65.3851 58.6572 65.3988C57.8792 65.4128 57.2604 66.1079 57.2731 66.9528Z" fill="#C6BDC2"/>
<path d="M59.136 67.8299C59.062 67.8299 58.9879 67.7992 58.9313 67.7381L42.6617 50.1359C42.6072 50.0769 42.5764 49.9967 42.5764 49.9129C42.5764 49.8291 42.607 49.7491 42.6613 49.6899L54.6507 36.6671C54.764 36.5441 54.9474 36.5441 55.0607 36.6671C55.174 36.79 55.174 36.9897 55.0607 37.1125L43.2769 49.9122L59.3405 67.2916C59.454 67.4145 59.4544 67.614 59.3413 67.7373C59.2849 67.799 59.2104 67.8299 59.136 67.8299Z" fill="#C6BDC2"/>
<path d="M54.8557 41.3352C57.1158 41.3352 58.948 39.3451 58.948 36.8901C58.948 34.4352 57.1158 32.4451 54.8557 32.4451C52.5956 32.4451 50.7634 34.4352 50.7634 36.8901C50.7634 39.3451 52.5956 41.3352 54.8557 41.3352Z" fill="url(#paint15_linear)"/>
<path d="M57.7724 67.4954C57.7854 68.3402 58.4251 69.0128 59.2031 68.9987C59.9809 68.9847 60.5999 68.2898 60.5871 67.4449C60.5744 66.5999 59.9345 65.9277 59.1565 65.9414C58.3787 65.9556 57.7597 66.6505 57.7724 67.4954Z" fill="#BE4118"/>
<path d="M54.8557 38.6401C55.7454 38.6401 56.4667 37.8566 56.4667 36.8902C56.4667 35.9237 55.7454 35.1403 54.8557 35.1403C53.9659 35.1403 53.2446 35.9237 53.2446 36.8902C53.2446 37.8566 53.9659 38.6401 54.8557 38.6401Z" fill="#FF8066"/>
<path d="M82.4732 43.9944C76.3451 42.924 70.5888 47.4443 69.6034 54.1006C68.618 60.757 72.7795 67.0095 78.9078 68.0799C85.0359 69.1503 90.7922 64.63 91.7776 57.9737C92.763 51.3173 88.6013 45.0648 82.4732 43.9944ZM79.6687 62.9383C76.157 62.3249 73.7723 58.7421 74.337 54.9276C74.9017 51.113 78.2002 48.5228 81.7121 49.1362C85.2238 49.7494 87.6083 53.3325 87.0438 57.1469C86.4791 60.9613 83.1806 63.5515 79.6687 62.9383Z" fill="#B5A8AE"/>
<path d="M84.4868 41.2799L85.0674 42.1524L81.9402 41.6062L81.3596 40.7336L84.4868 41.2799Z" fill="#C6BDC2"/>
<path d="M89.5159 44.0861L90.0966 44.9584L92.3302 47.3973L91.7495 46.5248L89.5159 44.0861Z" fill="#B5A8AE"/>
<path d="M94.2948 51.9918L94.8753 52.8643L91.3122 52.1946L90.7314 51.3223L94.2948 51.9918Z" fill="#B5A8AE"/>
<path d="M93.8866 61.4475L94.4674 62.32L91.9465 59.5037L91.3657 58.6313L93.8866 61.4475Z" fill="#B5A8AE"/>
<path d="M76.9088 70.7974L77.4896 71.67L76.888 67.7965L76.3074 66.9242L76.9088 70.7974Z" fill="#B5A8AE"/>
<path d="M69.6377 65.5586L70.2185 66.431L71.8289 62.9141L71.2483 62.0417L69.6377 65.5586Z" fill="#B5A8AE"/>
<path d="M67.1762 57.5531L66.5955 56.6805L69.8021 54.8649L70.3829 55.7374L67.1762 57.5531Z" fill="#B5A8AE"/>
<path d="M67.6623 60.9527L67.0815 60.0804L66.5955 56.6807L67.1762 57.5532L67.6623 60.9527Z" fill="#C6BDC2"/>
<path d="M67.491 50.6237L68.0717 51.4963L69.5177 48.4353L68.9369 47.5627L67.491 50.6237Z" fill="#C6BDC2"/>
<path d="M72.5141 48.1402L73.0946 49.0128L69.5178 48.4353L68.937 47.5627L72.5141 48.1402Z" fill="#B5A8AE"/>
<path d="M72.9319 43.238L73.5127 44.1105L76.3377 42.5551L75.7569 41.6827L72.9319 43.238Z" fill="#C6BDC2"/>
<path d="M74.0265 47.9986L73.4458 47.1263L72.9319 43.2382L73.5127 44.1107L74.0265 47.9986Z" fill="#B5A8AE"/>
<path d="M75.7568 41.6827L76.3376 42.5551L78.9205 45.3038L78.34 44.4314L75.7568 41.6827Z" fill="#B5A8AE"/>
<path d="M79.6704 44.2068L80.2512 45.0794L81.9401 41.6062L81.3596 40.7336L79.6704 44.2068Z" fill="#B5A8AE"/>
<path d="M86.2695 45.8165L86.8501 46.689L90.0966 44.9584L89.5158 44.0861L86.2695 45.8165Z" fill="#B5A8AE"/>
<path d="M92.3583 58.8464C92.4045 58.5341 92.4356 58.2233 92.4596 57.9134L95.3648 56.2632L94.8753 52.8643L91.6551 52.2593C91.4339 51.6778 91.1712 51.1184 90.8719 50.5833L92.3302 47.3976L90.0965 44.9587L87.1626 46.5225C86.6718 46.1941 86.1534 45.906 85.6119 45.6605L85.0671 42.1527L81.9399 41.6064L80.4122 44.748C79.8208 44.7966 79.2394 44.894 78.6724 45.0406L76.3373 42.5554L73.5123 44.1109L73.9781 47.6349C73.5404 48.0406 73.1301 48.4818 72.7529 48.9579L69.5177 48.4356L68.0717 51.4966L70.3567 54.0555C70.2902 54.3572 70.2303 54.6624 70.1841 54.9738C70.1379 55.2863 70.1066 55.5975 70.0826 55.9079L67.176 57.5536L67.6621 60.9531L70.8884 61.5638C71.1107 62.148 71.3752 62.7102 71.6764 63.2478L70.2183 66.4316L72.4515 68.871L75.3904 67.3048C75.8826 67.6332 76.4023 67.9213 76.9452 68.1666L77.4892 71.6705L80.6162 72.2167L82.146 69.0711C82.7262 69.0228 83.2965 68.9266 83.8531 68.7838L86.1909 71.2706L89.0155 69.7147L88.5504 66.1977C88.9921 65.7892 89.4067 65.3446 89.7869 64.8648L93.0241 65.3831L94.4668 62.3204L92.1839 59.7702C92.2515 59.4663 92.3119 59.1595 92.3583 58.8464ZM74.9179 55.8001C75.4826 51.9857 78.7811 49.3953 82.2928 50.0088C85.8045 50.6222 88.189 54.205 87.6245 58.0194C87.0598 61.8339 83.7613 64.424 80.2494 63.8108C76.7377 63.1974 74.3531 59.6146 74.9179 55.8001Z" fill="url(#paint16_linear)"/>
<path d="M81.285 66.7817C80.8007 66.7817 80.3108 66.7389 79.8286 66.6549C74.8818 65.7909 71.5043 60.7165 72.2997 55.343C73.0121 50.5308 76.7792 47.0383 81.2574 47.0383C81.7417 47.0383 82.2318 47.0812 82.7139 47.1652C87.6608 48.0291 91.0383 53.1036 90.2427 58.4768C89.5303 63.289 85.7632 66.7817 81.285 66.7817ZM81.2574 47.4581C76.9702 47.4581 73.3636 50.8022 72.6815 55.4096C71.9199 60.5544 75.1536 65.4127 79.8901 66.2401C80.352 66.3207 80.8212 66.3617 81.285 66.3617C85.5722 66.3617 89.1788 63.0177 89.8609 58.4103C90.6222 53.2655 87.3887 48.4071 82.6525 47.5799C82.1908 47.4991 81.7212 47.4581 81.2574 47.4581Z" fill="#E3DDE4"/>
<path d="M80.6763 58.0894C81.6106 58.0894 82.368 57.2668 82.368 56.2519C82.368 55.2371 81.6106 54.4144 80.6763 54.4144C79.742 54.4144 78.9846 55.2371 78.9846 56.2519C78.9846 57.2668 79.742 58.0894 80.6763 58.0894Z" fill="#C6BDC2"/>
<path d="M81.2725 57.2143C81.2031 57.2143 81.1333 57.1874 81.0778 57.1326L65.4822 41.7783C65.4234 41.7203 65.389 41.6388 65.387 41.5525C65.3851 41.4664 65.4157 41.3831 65.4719 41.3222L79.2309 26.3771C79.3442 26.254 79.5276 26.254 79.6409 26.3771C79.7542 26.4999 79.7542 26.6996 79.6409 26.8225L66.0974 41.5336L81.4673 56.6658C81.5861 56.7826 81.5951 56.9819 81.4875 57.1108C81.4302 57.1795 81.3515 57.2143 81.2725 57.2143Z" fill="#C6BDC2"/>
<path d="M79.436 31.0452C81.6961 31.0452 83.5283 29.055 83.5283 26.6001C83.5283 24.1452 81.6961 22.155 79.436 22.155C77.1759 22.155 75.3438 24.1452 75.3438 26.6001C75.3438 29.055 77.1759 31.0452 79.436 31.0452Z" fill="url(#paint17_linear)"/>
<path d="M81.2727 58.7368C82.207 58.7368 82.9644 57.9141 82.9644 56.8993C82.9644 55.8844 82.207 55.0618 81.2727 55.0618C80.3384 55.0618 79.5811 55.8844 79.5811 56.8993C79.5811 57.9141 80.3384 58.7368 81.2727 58.7368Z" fill="#BE4118"/>
<path d="M79.436 28.3502C80.3257 28.3502 81.047 27.5667 81.047 26.6003C81.047 25.6338 80.3257 24.8503 79.436 24.8503C78.5462 24.8503 77.825 25.6338 77.825 26.6003C77.825 27.5667 78.5462 28.3502 79.436 28.3502Z" fill="#92A6EB"/>
<path d="M134.213 160.41C135.137 160.415 136.336 159.992 137.084 159.685C136.845 158.698 136.536 157.711 136.469 157.08C136.34 155.855 135.96 152.092 135.987 151.428L131.282 151.46C131.282 151.46 132.715 156.94 132.024 157.658C131.731 157.961 131.367 158.227 130.959 158.461C131.221 158.501 131.479 158.592 131.723 158.754C132.521 159.283 133.102 160.405 134.213 160.41Z" fill="url(#paint18_linear)"/>
<path d="M123.614 161.753C123.807 161.998 124.994 163.002 129.478 163.223C133.023 163.398 137.147 162.58 137.308 161.963C137.336 161.857 137.354 161.953 137.364 161.831C137.416 161.232 137.271 160.459 137.084 159.686C136.336 159.993 135.137 160.415 134.213 160.41C133.102 160.405 132.521 159.283 131.723 158.754C131.479 158.592 131.221 158.501 130.959 158.461C128.765 159.716 125.274 160.045 124.532 160.318C123.968 160.526 123.675 161.021 123.581 161.423C123.525 161.664 123.541 161.661 123.614 161.753Z" fill="url(#paint19_linear)"/>
<path d="M119.538 84.6172C119.231 87.4999 120.841 107.31 123.29 122.71C125.739 138.11 128.881 148.05 129.155 151.69C129.204 152.348 131.41 152.662 133.352 152.46C134.995 152.289 136.003 151.722 136.132 151.302C136.261 150.882 136.396 139.691 135.019 130.34C133.183 117.863 134.381 113.543 135.281 104.684C136.437 93.31 136.051 89.1801 135.164 84.525C134.49 80.9828 130.575 84.0263 127.351 84.243C124.126 84.4597 119.538 84.6172 119.538 84.6172Z" fill="url(#paint20_linear)"/>
<path d="M125.019 104.296L124.893 102.848L125.244 101.916L125.405 104.262L125.019 104.296Z" fill="url(#paint21_linear)"/>
<path d="M131.338 149.925C131.306 149.524 131.265 149.105 131.215 148.682L131.598 148.629C131.649 149.058 131.691 149.482 131.723 149.889L131.338 149.925ZM131.108 147.856C131.053 147.461 130.988 147.045 130.917 146.62L131.298 146.545C131.37 146.974 131.434 147.394 131.49 147.793L131.108 147.856ZM130.774 145.798C130.701 145.395 130.623 144.986 130.54 144.569L130.918 144.481C131.001 144.9 131.08 145.311 131.153 145.717L130.774 145.798ZM130.375 143.75C130.293 143.349 130.207 142.941 130.119 142.524L130.495 142.429C130.584 142.847 130.67 143.257 130.753 143.659L130.375 143.75Z" fill="#6A74EF"/>
<path d="M130.323 141.613L130.058 140.388L129.682 140.484L129.947 141.709L130.323 141.613Z" fill="#6A74EF"/>
<path d="M129.502 139.663C129.416 139.263 129.328 138.854 129.239 138.436L129.616 138.342C129.704 138.759 129.792 139.168 129.878 139.568L129.502 139.663ZM129.066 137.617C128.982 137.215 128.897 136.806 128.812 136.387L129.189 136.296C129.274 136.714 129.359 137.123 129.443 137.524L129.066 137.617ZM128.646 135.566C128.566 135.163 128.486 134.752 128.405 134.332L128.784 134.247C128.864 134.665 128.944 135.075 129.024 135.477L128.646 135.566ZM128.25 133.509C128.174 133.104 128.099 132.691 128.025 132.271L128.404 132.191C128.479 132.611 128.553 133.022 128.629 133.425L128.25 133.509ZM127.88 131.445C127.81 131.039 127.74 130.625 127.672 130.204L128.053 130.131C128.121 130.551 128.19 130.963 128.26 131.368L127.88 131.445ZM127.539 129.375C127.475 128.968 127.411 128.553 127.349 128.131L127.73 128.064C127.793 128.485 127.856 128.898 127.92 129.304L127.539 129.375ZM127.227 127.3C127.169 126.891 127.111 126.475 127.054 126.053L127.437 125.992C127.494 126.414 127.551 126.828 127.609 127.236L127.227 127.3ZM126.945 125.22C126.892 124.81 126.84 124.393 126.789 123.97L127.173 123.916C127.224 124.338 127.275 124.753 127.328 125.162L126.945 125.22ZM126.692 123.136C126.644 122.725 126.598 122.307 126.553 121.884L126.937 121.835C126.982 122.258 127.028 122.674 127.075 123.084L126.692 123.136ZM126.466 121.048C126.424 120.641 126.382 120.223 126.339 119.793L126.724 119.748C126.766 120.177 126.808 120.595 126.85 121.001L126.466 121.048ZM126.257 118.957C126.217 118.547 126.177 118.128 126.137 117.701L126.522 117.658C126.562 118.085 126.602 118.503 126.642 118.913L126.257 118.957ZM126.059 116.864C126.021 116.452 125.983 116.033 125.945 115.608L126.33 115.568C126.368 115.992 126.406 116.411 126.444 116.823L126.059 116.864ZM125.87 114.771C125.833 114.357 125.797 113.938 125.76 113.515L126.145 113.476C126.181 113.898 126.218 114.317 126.255 114.731L125.87 114.771ZM125.688 112.678C125.652 112.262 125.617 111.843 125.582 111.422L125.967 111.383C126.002 111.805 126.037 112.224 126.073 112.639L125.688 112.678ZM125.512 110.584C125.478 110.167 125.444 109.748 125.41 109.327L125.795 109.29C125.829 109.711 125.863 110.13 125.897 110.546L125.512 110.584Z" fill="#6A74EF"/>
<path d="M125.712 108.45L125.613 107.193L125.227 107.229L125.327 108.486L125.712 108.45Z" fill="#6A74EF"/>
<path d="M125.56 106.36L125.464 105.101L125.079 105.136L125.175 106.394L125.56 106.36Z" fill="#6A74EF"/>
<path d="M124.866 102.202C124.836 101.781 124.807 101.361 124.778 100.944L125.163 100.913C125.192 101.329 125.222 101.749 125.252 102.169L124.866 102.202ZM124.72 100.105C124.691 99.6831 124.662 99.2633 124.634 98.8471L125.02 98.8166C125.048 99.2324 125.076 99.652 125.105 100.074L124.72 100.105ZM124.579 98.0085C124.551 97.5843 124.524 97.1646 124.497 96.7496L124.883 96.7208C124.91 97.1356 124.936 97.5549 124.964 97.9785L124.579 98.0085ZM124.445 95.9102C124.419 95.4846 124.393 95.0646 124.369 94.6511L124.755 94.624C124.779 95.0368 124.805 95.4564 124.831 95.8823L124.445 95.9102ZM124.32 93.8115C124.295 93.3831 124.272 92.9627 124.25 92.5515L124.636 92.5269C124.658 92.9377 124.681 93.3575 124.706 93.7854L124.32 93.8115ZM124.205 91.7115C124.183 91.2791 124.162 90.8583 124.142 90.4504L124.529 90.4288C124.548 90.8362 124.569 91.2562 124.591 91.6878L124.205 91.7115ZM124.104 89.6094C124.085 89.1709 124.068 88.7494 124.053 88.3471L124.439 88.3303C124.454 88.7318 124.471 89.152 124.49 89.5897L124.104 89.6094ZM124.024 87.505C124.01 87.0529 123.999 86.6301 123.992 86.2402L124.379 86.2318C124.386 86.6201 124.397 87.0409 124.41 87.4909L124.024 87.505ZM123.982 85.3949L123.982 85.2107C123.982 84.7805 123.988 84.4146 124.002 84.1238L124.388 84.145C124.375 84.4289 124.368 84.7876 124.368 85.2109L124.368 85.3897L123.982 85.3949Z" fill="#6A74EF"/>
<path d="M123.614 161.963C123.807 162.208 124.994 163.211 129.478 163.433C133.023 163.608 137.147 162.789 137.308 162.173C137.37 161.936 137.385 161.656 137.368 161.35C128.974 163.645 124.33 161.42 123.726 161.037C123.524 161.421 123.504 161.824 123.614 161.963Z" fill="url(#paint22_linear)"/>
<path d="M133.352 152.46C134.995 152.289 136.003 151.722 136.132 151.302C136.173 151.171 136.214 149.98 136.208 148.12C132.886 150.184 129.348 149.1 128.716 148.953C128.948 150.087 129.103 151.002 129.155 151.69C129.204 152.348 131.41 152.662 133.352 152.46Z" fill="url(#paint23_linear)"/>
<path d="M132.103 150.339L132.094 150.024C132.492 150.011 132.884 149.976 133.261 149.919L133.301 150.231C132.914 150.289 132.511 150.326 132.103 150.339ZM131.302 150.338C130.908 150.324 130.505 150.289 130.105 150.236L130.141 149.923C130.532 149.976 130.926 150.009 131.312 150.023L131.302 150.338ZM134.091 150.079L134.029 149.771C134.415 149.679 134.793 149.561 135.15 149.419L135.249 149.716C134.88 149.862 134.49 149.984 134.091 150.079ZM129.367 149.795C129.194 149.76 129.025 149.722 128.861 149.682C128.883 149.797 128.903 149.909 128.923 150.019C129.052 150.049 129.182 150.078 129.315 150.104L129.367 149.795ZM135.995 149.377C136.067 149.339 136.136 149.296 136.206 149.257C136.208 149.142 136.208 149.023 136.209 148.9C136.097 148.966 135.985 149.033 135.87 149.093L135.995 149.377Z" fill="#5C60D5"/>
<path d="M103.82 160.939C104.521 161.857 105.148 162.527 105.898 162.514C106.777 162.498 107.626 162.126 108.161 161.835C108.015 161.007 107.822 160.193 107.759 159.6C107.63 158.375 108.597 155.295 108.758 154.595L104.183 153.825C104.183 153.825 104.167 158.095 102.958 159.775C102.829 159.955 102.674 160.12 102.503 160.274C102.994 160.299 103.473 160.483 103.82 160.939Z" fill="url(#paint24_linear)"/>
<path d="M94.5483 163.87C94.7416 164.115 95.929 165.118 100.413 165.34C103.957 165.515 108.082 164.696 108.243 164.08C108.272 163.968 108.293 164.061 108.308 163.938C108.382 163.321 108.291 162.572 108.161 161.835C107.626 162.126 106.777 162.497 105.898 162.513C105.148 162.527 104.521 161.857 103.82 160.938C103.473 160.483 102.994 160.299 102.503 160.273C100.576 162.002 96.2751 162.137 95.4664 162.435C94.8348 162.667 94.5428 163.261 94.4906 163.679C94.4686 163.859 94.4903 163.796 94.5483 163.87Z" fill="url(#paint25_linear)"/>
<path d="M114.704 88.7249C114.011 90.9999 109.512 103.849 107.502 112C104.424 124.477 102.565 152.597 102.668 153.72C102.717 154.245 104.484 154.782 105.794 154.901C107.055 155.016 108.533 155.155 108.839 154.822C109.231 154.397 114.913 135.31 115.815 129.5C116.717 123.69 118.973 116.34 122.259 108.99C125.546 101.64 128.47 93.7599 128.845 84.925C126.711 83.9226 124.603 84.1935 121.196 84.1049C117.859 84.0182 116.419 84.8718 115.69 86.24C114.961 87.6081 114.704 88.7249 114.704 88.7249Z" fill="url(#paint26_linear)"/>
<path d="M121.366 110.852C121.747 109.932 122.15 109.02 122.547 108.109C122.943 107.197 123.33 106.281 123.704 105.359C124.454 103.515 125.154 101.648 125.78 99.753C125.807 99.6708 125.89 99.6282 125.966 99.6576C126.041 99.6868 126.08 99.7769 126.053 99.8588C126.053 99.8592 126.053 99.8607 126.053 99.8609C125.402 101.756 124.678 103.619 123.905 105.457C123.519 106.376 123.12 107.288 122.714 108.196C122.306 109.104 121.894 110.006 121.502 110.921C121.484 110.961 121.44 110.979 121.402 110.96C121.365 110.941 121.349 110.893 121.366 110.852Z" fill="#5C60D5"/>
<path d="M107.619 152.614L107.235 152.565C107.277 152.177 107.32 151.759 107.365 151.313L107.75 151.359C107.705 151.806 107.661 152.225 107.619 152.614ZM107.833 150.522L107.449 150.477L107.572 149.223L107.957 149.267L107.833 150.522ZM108.039 148.432L107.655 148.387C107.695 147.981 107.737 147.563 107.78 147.132L108.164 147.178C108.121 147.608 108.079 148.026 108.039 148.432ZM108.25 146.343L107.865 146.296C107.908 145.888 107.951 145.47 107.997 145.043L108.381 145.091C108.335 145.518 108.292 145.935 108.25 146.343ZM108.471 144.257L108.087 144.207C108.131 143.797 108.178 143.379 108.227 142.955L108.61 143.006C108.562 143.43 108.515 143.847 108.471 144.257ZM108.706 142.173L108.323 142.12C108.371 141.708 108.421 141.291 108.472 140.868L108.856 140.924C108.804 141.345 108.754 141.762 108.706 142.173ZM108.959 140.091L108.576 140.034C108.628 139.622 108.682 139.206 108.737 138.784L109.12 138.844C109.064 139.264 109.011 139.68 108.959 140.091ZM109.232 138.013L108.849 137.952C108.905 137.539 108.964 137.123 109.023 136.704L109.405 136.769C109.346 137.187 109.288 137.602 109.232 138.013ZM109.526 135.939L109.144 135.873C109.205 135.46 109.268 135.045 109.333 134.627L109.715 134.697C109.65 135.114 109.587 135.528 109.526 135.939ZM109.845 133.87L109.464 133.797C109.53 133.385 109.598 132.971 109.668 132.555L110.048 132.63C109.979 133.045 109.911 133.459 109.845 133.87ZM110.19 131.805L109.81 131.728C109.881 131.316 109.955 130.902 110.031 130.488L110.41 130.57C110.335 130.983 110.261 131.395 110.19 131.805ZM110.563 129.747L110.185 129.663C110.262 129.253 110.342 128.842 110.424 128.431L110.802 128.52C110.72 128.929 110.64 129.339 110.563 129.747ZM110.967 127.702L110.59 127.61C110.675 127.2 110.761 126.79 110.85 126.381L111.226 126.477C111.138 126.885 111.051 127.294 110.967 127.702ZM111.406 125.662L111.03 125.563C111.122 125.154 111.216 124.745 111.312 124.337L111.687 124.442C111.591 124.848 111.497 125.255 111.406 125.662ZM111.882 123.63L111.508 123.522C111.608 123.114 111.711 122.707 111.815 122.301L112.188 122.415C112.083 122.819 111.981 123.224 111.882 123.63ZM112.4 121.607L112.029 121.489C112.138 121.083 112.249 120.679 112.363 120.276L112.733 120.399C112.619 120.8 112.508 121.203 112.4 121.607ZM112.963 119.599L112.595 119.472C112.713 119.069 112.834 118.669 112.958 118.271L113.324 118.405C113.201 118.801 113.081 119.199 112.963 119.599ZM113.575 117.613L113.21 117.474C113.339 117.075 113.471 116.678 113.606 116.285L113.969 116.432C113.835 116.823 113.703 117.217 113.575 117.613ZM114.243 115.649L113.882 115.497C114.023 115.102 114.167 114.711 114.314 114.323L114.672 114.483C114.526 114.868 114.383 115.257 114.243 115.649ZM114.97 113.708L114.613 113.546L115.062 112.382L115.419 112.545L114.97 113.708ZM115.718 111.77L115.362 111.607L115.812 110.444L116.169 110.607L115.718 111.77ZM116.469 109.832L116.113 109.669L116.563 108.506L116.92 108.669L116.469 109.832ZM117.221 107.894L116.864 107.731L117.314 106.571L117.671 106.734L117.221 107.894ZM117.972 105.959L117.615 105.796L118.066 104.632L118.423 104.795L117.972 105.959ZM118.723 104.02L118.367 103.857L118.817 102.695L119.174 102.857L118.723 104.02ZM119.474 102.082L119.117 101.919L119.566 100.756L119.923 100.919L119.474 102.082ZM120.222 100.143L119.865 99.9808L120.313 98.817L120.67 98.9787L120.222 100.143ZM120.968 98.2023L120.611 98.0406C120.764 97.6414 120.913 97.2524 121.057 96.8757L121.414 97.0366C121.27 97.4133 121.121 97.8027 120.968 98.2023ZM121.71 96.2587L121.352 96.0987C121.507 95.6913 121.654 95.3011 121.793 94.9317L122.151 95.0909C122.012 95.4607 121.865 95.8509 121.71 96.2587ZM122.444 94.3108L122.085 94.1531C122.244 93.7257 122.389 93.3341 122.517 92.9832L122.876 93.1377C122.748 93.4895 122.603 93.8822 122.444 94.3108ZM123.158 92.3508L122.797 92.2009C122.919 91.8565 123.009 91.5873 123.066 91.4006C123.101 91.288 123.137 91.1616 123.175 91.0234L123.546 91.1431C123.507 91.2861 123.469 91.417 123.433 91.5333C123.373 91.7284 123.284 91.9959 123.158 92.3508ZM123.755 90.326L123.382 90.2185C123.473 89.8422 123.569 89.4281 123.665 88.9988L124.041 89.0979C123.944 89.5301 123.848 89.9472 123.755 90.326ZM124.221 88.2777L123.844 88.1819C123.934 87.767 124.021 87.3512 124.104 86.9534L124.481 87.0456C124.398 87.4444 124.311 87.8615 124.221 88.2777ZM124.65 86.223L124.272 86.1325C124.37 85.6508 124.454 85.2249 124.519 84.8994L124.897 84.9874C124.833 85.3135 124.748 85.7405 124.65 86.223Z" fill="#6A74EF"/>
<path d="M94.5483 164.08C94.7416 164.325 95.9291 165.328 100.413 165.55C103.957 165.725 108.082 164.907 108.243 164.29C108.308 164.041 108.335 163.759 108.335 163.459C99.9203 165.769 95.2654 163.538 94.6612 163.154C94.459 163.538 94.4387 163.941 94.5483 164.08Z" fill="url(#paint27_linear)"/>
<path d="M102.794 150.812C102.694 152.47 102.65 153.521 102.668 153.72C102.717 154.245 104.484 154.782 105.794 154.901C107.055 155.016 108.533 155.155 108.839 154.823C108.929 154.724 109.3 153.636 109.828 151.949C105.098 152.209 103.474 151.095 102.794 150.812Z" fill="url(#paint28_linear)"/>
<path d="M108.294 153.04C107.958 153.04 107.627 153.032 107.309 153.017L107.322 152.702C107.64 152.718 107.968 152.729 108.306 152.725L108.377 152.725L108.38 153.04L108.306 153.04C108.302 153.04 108.298 153.04 108.294 153.04ZM106.596 152.967C106.227 152.933 105.868 152.887 105.53 152.83L105.575 152.519C105.906 152.575 106.258 152.62 106.62 152.653L106.596 152.967ZM104.825 152.688C104.456 152.601 104.115 152.5 103.784 152.379L103.877 152.08C104.197 152.197 104.528 152.295 104.887 152.38L104.825 152.688ZM103.112 152.101L103.225 151.811C103.133 151.768 103.05 151.728 102.974 151.692C102.889 151.651 102.816 151.617 102.749 151.587C102.742 151.702 102.736 151.814 102.73 151.92C102.77 151.939 102.811 151.959 102.857 151.98C102.933 152.017 103.018 152.058 103.112 152.101ZM109.094 153.027C109.223 153.023 109.358 153.016 109.491 153.009C109.524 152.907 109.559 152.8 109.594 152.69C109.421 152.699 109.251 152.707 109.086 152.712L109.094 153.027Z" fill="#5C60D5"/>
<path d="M141.812 46.0801C142.229 41.6542 142.342 36.2452 140.851 33.39C139.423 30.6531 134.888 28.3607 130.307 27.6413C125.725 26.9218 116.701 28.0088 115.879 27.7988C115.058 27.5888 112.714 25.0425 112.303 24.9638C111.892 24.885 111.602 25.27 111.723 26.5125C111.868 28.0117 113.177 31.0082 113.177 31.0082C113.177 31.0082 111.104 32.5488 110.201 33.2197C109.066 33.1807 107.728 31.4601 107.058 31.7888C106.47 32.0775 107.975 34.6061 109.177 34.825C111.868 35.3149 116.455 32.3087 122.087 31.9561C127.72 31.6036 133.454 32.242 135.341 38.1148C135.914 39.8956 135.88 41.7415 135.589 43.4007C137.125 43.1506 139.623 43.3913 141.812 46.0801Z" fill="url(#paint29_radial)"/>
<path d="M136.445 54.3638C137.535 57.481 139.047 61.6262 139.249 65.8875C139.84 63.057 140.457 55.7025 141.013 52.2201C141.202 51.0359 141.562 48.735 141.812 46.0804C139.624 43.3913 137.125 43.1506 135.589 43.4012C135.028 46.6007 133.505 49.1054 133.505 49.1054C133.505 49.1054 135.261 50.9776 136.445 54.3638Z" fill="url(#paint30_linear)"/>
<path d="M141.576 48.4726C141.508 48.4726 141.443 48.4344 141.407 48.3664C139.785 45.2615 136.19 44.8144 135.318 44.9658C135.211 44.9839 135.113 44.9058 135.097 44.7913C135.08 44.6769 135.152 44.5691 135.257 44.5509C136.188 44.3906 140.02 44.8615 141.744 48.1589C141.796 48.2597 141.764 48.388 141.671 48.4451C141.641 48.4638 141.608 48.4726 141.576 48.4726Z" fill="#FF8066"/>
<path d="M125.804 44.6951C125.77 46.1653 124.902 50.4701 124.289 52.1851C123.677 53.9002 127.576 52.7101 129.638 52.0801C131.7 51.4501 133.215 49.4902 133.215 49.4902C133.215 49.4902 131.861 46.5853 131.604 43.4002C131.346 40.2151 129.284 40.3201 128.156 40.7752C127.028 41.2303 125.804 44.6951 125.804 44.6951Z" fill="url(#paint31_linear)"/>
<path d="M122.13 32.2351C120.229 34.195 117.558 44.1282 121.889 46.4802C125.723 48.5626 129.767 42.0001 129.767 42.0001C129.767 42.0001 134.633 34.3351 129.541 30.8701C124.922 27.7257 122.13 32.2351 122.13 32.2351Z" fill="url(#paint32_linear)"/>
<path d="M131.999 41.3701C132.216 39.2701 136.33 37.4169 134.204 31.6156C132.99 28.3044 130.331 26.9589 127.99 26.9982C126.219 27.0278 125.208 27.6676 124.12 27.3264C123.033 26.9851 121.196 26.1189 120.229 26.8539C119.263 27.5889 119.77 28.7701 119.238 29.3214C118.707 29.8726 116 29.1376 115.493 30.8964C115.31 31.5306 115.758 33.7314 119.408 33.7051C123.057 33.6789 125.111 31.1851 126.392 32.9176C127.673 34.6501 124.821 36.4089 125.159 38.2201C125.226 38.5765 125.437 38.6924 125.715 38.6895C126.239 38.6051 127.632 36.6496 128.728 37.6863C129.477 38.3951 129.292 40.3989 127.89 40.8976C127.955 41.833 128.518 42.7876 129.098 43.4834C129.581 44.0619 131.064 45.1449 131.974 44.2054C132.297 43.8727 131.898 42.3395 131.999 41.3701Z" fill="url(#paint33_linear)"/>
<path d="M131.25 29.2599C131.476 29.2297 131.697 29.3108 131.897 29.4158C132.096 29.526 132.277 29.6804 132.424 29.8706C132.571 30.0607 132.68 30.2894 132.733 30.5313C132.784 30.7738 132.78 31.0277 132.7 31.2549C132.618 31.0286 132.543 30.8293 132.448 30.6464C132.355 30.4639 132.248 30.2975 132.127 30.1394C132.006 29.9819 131.872 29.8328 131.726 29.6877C131.58 29.5424 131.429 29.3981 131.25 29.2599ZM133.183 32.13C133.308 32.1298 133.421 32.2029 133.523 32.2726C133.623 32.3488 133.716 32.4366 133.796 32.5364C133.957 32.7352 134.08 32.9729 134.152 33.2321C134.224 33.4904 134.241 33.773 134.187 34.0391C134.133 34.3043 134.011 34.55 133.827 34.7201C133.869 34.4629 133.895 34.2315 133.885 34.0059C133.877 33.7814 133.84 33.5656 133.782 33.3524C133.723 33.1397 133.644 32.9299 133.547 32.7235C133.498 32.6208 133.448 32.516 133.389 32.4167C133.331 32.3152 133.272 32.2146 133.183 32.13Z" fill="#8F3421"/>
<path d="M117.426 30.4501C117.492 30.6419 117.644 30.7725 117.795 30.8792C117.948 30.9869 118.115 31.0705 118.287 31.1393C118.63 31.2765 118.992 31.3559 119.354 31.3985C120.081 31.489 120.814 31.4294 121.529 31.267C122.249 31.1039 122.967 30.9039 123.696 30.7271C124.425 30.5583 125.169 30.4046 125.943 30.4155C126.328 30.4274 126.726 30.4873 127.1 30.6645C127.286 30.7536 127.464 30.8726 127.617 31.0243C127.764 31.1696 127.901 31.3353 128.009 31.5239C128.232 31.8987 128.324 32.3655 128.284 32.7983C128.249 33.2345 128.111 33.6373 127.943 34.009C127.604 34.7547 127.14 35.3971 126.691 36.0382C126.464 36.3568 126.236 36.6735 126.037 37.0093C125.938 37.1773 125.846 37.3507 125.78 37.5355C125.714 37.717 125.67 37.9238 125.739 38.1155C125.651 37.9324 125.674 37.7098 125.725 37.5154C125.778 37.318 125.861 37.1327 125.948 36.953C126.127 36.5943 126.334 36.256 126.537 35.9185C126.95 35.2493 127.373 34.5857 127.67 33.8706C127.814 33.5134 127.924 33.1413 127.946 32.771C127.97 32.401 127.888 32.0398 127.701 31.7393C127.608 31.5883 127.496 31.4504 127.367 31.3262C127.245 31.2072 127.103 31.1133 126.949 31.0409C126.639 30.8966 126.288 30.8435 125.933 30.8353C125.219 30.8164 124.492 30.9615 123.77 31.1154C123.046 31.2679 122.323 31.4604 121.582 31.5885C120.84 31.7282 120.07 31.745 119.326 31.6013C118.956 31.5259 118.59 31.4128 118.247 31.242C118.076 31.1561 117.91 31.0564 117.761 30.931C117.616 30.804 117.473 30.6496 117.426 30.4501ZM119.746 30.2401C120.103 30.2731 120.452 30.2309 120.794 30.1498C121.136 30.0723 121.471 29.9587 121.804 29.8384C122.469 29.5902 123.127 29.3058 123.795 29.0372C124.467 28.7779 125.149 28.5219 125.869 28.3951C126.228 28.3316 126.598 28.3024 126.964 28.3495C127.328 28.398 127.693 28.5353 127.963 28.7964C127.645 28.6145 127.297 28.5469 126.953 28.5553C126.609 28.5582 126.266 28.6288 125.929 28.7164C125.254 28.901 124.593 29.1666 123.927 29.4318C123.26 29.6908 122.589 29.9619 121.889 30.1519C121.54 30.2481 121.183 30.3214 120.821 30.3531C120.46 30.38 120.087 30.3649 119.746 30.2401Z" fill="#BE4118"/>
<path d="M129.437 40.924C129.549 41.2503 129.709 41.5325 129.876 41.8045C130.046 42.0733 130.237 42.3202 130.451 42.5281C130.666 42.7344 130.906 42.9026 131.178 42.9952C131.45 43.089 131.751 43.1056 132.074 43.0739C131.806 43.2711 131.46 43.3646 131.116 43.3161C130.771 43.2707 130.446 43.0886 130.194 42.8419C129.94 42.5955 129.748 42.2894 129.613 41.963C129.482 41.6382 129.39 41.2782 129.437 40.924Z" fill="#8F3421"/>
<path d="M91.5771 49.4412C91.5771 49.4412 93.4221 49.8574 95.7321 48.7122C97.6101 47.7813 97.8574 47.3376 97.8574 47.3376L94.8052 44.4119L91.5771 49.4412Z" fill="#724A5F"/>
<path d="M117.049 24.0325C115.943 22.353 113.794 21.9651 112.248 23.1661C111.691 23.5989 111.291 24.18 111.055 24.8234L98.1253 35.3547L98.1232 35.3515C98.1232 35.3515 96.3103 36.8703 94.4823 37.3934C92.4782 37.9669 90.3953 36.6122 87.9484 38.8079C85.1969 41.2771 87.1444 46.0886 87.1444 46.0886C87.1444 46.0886 89.1676 42.732 89.7729 42.4882C90.3249 42.2664 91.0427 42.7876 91.0427 42.7876L97.8529 48.184C97.8529 48.184 98.3678 45.6753 99.2115 43.4372C100.003 41.338 100.694 40.3697 101.119 39.9682L114.641 29.9199C115.203 29.8504 115.758 29.6307 116.252 29.2473C117.799 28.0467 118.155 25.7119 117.049 24.0325ZM115.192 27.638C114.464 28.2033 113.452 28.0209 112.932 27.2306C112.412 26.4404 112.58 25.341 113.307 24.7759C114.035 24.2106 115.046 24.3933 115.567 25.1835C116.087 25.974 115.92 27.0727 115.192 27.638Z" fill="url(#paint34_linear)"/>
<path d="M94.4735 38.7416C94.7221 38.3126 95.2445 38.1836 95.6395 38.4541L98.3106 40.2807C98.7054 40.5506 98.8245 41.1173 98.5751 41.5468L97.2838 43.7745C97.0352 44.2041 96.5136 44.3329 96.1182 44.0624L93.4471 42.2358C93.0517 41.9655 92.9332 41.3987 93.182 40.9697L94.4735 38.7416Z" fill="#724A5F"/>
<path d="M97.4813 41.187C97.6059 40.9726 97.8667 40.9079 98.0641 41.0436C98.2618 41.1784 98.3212 41.4619 98.1969 41.6763L97.2285 43.3475C97.1042 43.5619 96.8426 43.6264 96.645 43.4913C96.448 43.3563 96.3884 43.0728 96.5128 42.8582L97.4813 41.187ZM96.4977 40.5142C96.6218 40.3 96.883 40.2353 97.0806 40.3703C97.2782 40.5053 97.3375 40.789 97.213 41.0039L96.2444 42.6746C96.1199 42.8895 95.8595 42.9535 95.6613 42.8185C95.4639 42.6833 95.4044 42.4 95.5283 42.1853L96.4977 40.5142ZM95.5134 39.8415C95.6383 39.6267 95.8987 39.5626 96.0965 39.6975C96.2939 39.8325 96.3534 40.116 96.2291 40.3304L95.2605 42.0018C95.1364 42.2164 94.8756 42.2807 94.6776 42.1454C94.4799 42.0104 94.4207 41.7271 94.5446 41.5125L95.5134 39.8415ZM94.5301 39.1689C94.654 38.9541 94.9152 38.8896 95.1128 39.0244C95.3104 39.1596 95.3696 39.4436 95.2456 39.6582L94.2767 41.3292C94.152 41.5436 93.8913 41.608 93.694 41.473C93.4966 41.3376 93.437 41.0545 93.5611 40.8397L94.5301 39.1689Z" fill="#5C60D5"/>
<path d="M100.183 38.8499C99.8753 38.8499 99.5853 38.6878 99.4071 38.4161L98.8015 37.4937C98.6538 37.269 98.5958 36.9952 98.6376 36.7228C98.6794 36.4505 98.8166 36.2121 99.0235 36.0517L109.136 28.2168C109.299 28.091 109.49 28.0244 109.688 28.0244C109.996 28.0244 110.286 28.1865 110.464 28.4581L111.07 29.3804C111.218 29.6053 111.276 29.8791 111.234 30.1515C111.192 30.4239 111.055 30.6624 110.848 30.8227L100.735 38.6576C100.573 38.7836 100.382 38.8499 100.183 38.8499ZM109.689 28.4446C109.571 28.4446 109.457 28.4841 109.361 28.5587L99.2483 36.3935C99.1254 36.4889 99.044 36.6304 99.019 36.7921C98.9941 36.9538 99.0287 37.1164 99.1163 37.2499L99.722 38.1725C99.8958 38.4377 100.265 38.5061 100.51 38.3159L110.623 30.481C110.746 30.3857 110.828 30.2443 110.853 30.0824C110.878 29.9207 110.843 29.7582 110.755 29.6244L110.149 28.7021C110.044 28.5408 109.871 28.4446 109.689 28.4446Z" fill="#5C60D5"/>
<path d="M107.348 27.2081C107.026 27.3194 106.204 27.5391 106.011 28.5414C105.87 29.2749 106.103 30.3877 106.367 30.9759C106.63 31.5642 107.417 32.2872 107.914 31.9426C108.25 31.7101 107.632 30.5845 107.538 30.0858C107.26 28.6074 107.348 27.2081 107.348 27.2081Z" fill="url(#paint35_linear)"/>
<path d="M108.358 26.3814C108.225 26.3409 107.234 26.479 107.026 27.3195C106.903 27.8146 106.879 29.1807 107.275 30.0381C107.67 30.8956 108.619 31.6946 108.914 31.5008C109.397 31.1828 109.089 30.5787 109.089 30.5787C109.089 30.5787 108.358 28.9411 108.387 28.1939C108.416 27.4467 108.358 26.3814 108.358 26.3814Z" fill="url(#paint36_linear)"/>
<path d="M109.435 25.7527C109.133 25.6979 108.13 25.6254 107.992 27.2559C107.853 28.8863 108.797 31.3895 109.397 31.1826C109.997 30.9758 109.425 29.2868 109.426 28.3348C109.426 27.3831 109.435 25.7527 109.435 25.7527Z" fill="url(#paint37_linear)"/>
<path d="M110.674 25.7937C110.319 26.493 110.509 28.7664 109.968 28.8937C109.263 29.0592 108.865 26.1912 109.411 25.1893C109.836 24.4104 111.109 24.6966 111.109 24.6966L110.674 25.7937Z" fill="url(#paint38_linear)"/>
<path d="M107.166 27.3577C107.092 27.6592 107.074 27.9978 107.072 28.3266C107.072 28.6578 107.097 28.99 107.155 29.3138C107.213 29.6414 107.313 29.9426 107.465 30.2374C107.61 30.5297 107.779 30.812 107.997 31.039L107.998 31.0396C108.022 31.0646 108.023 31.1058 108 31.1318C107.978 31.1572 107.941 31.1585 107.917 31.1358C107.673 30.9044 107.486 30.619 107.323 30.3241C107.158 30.0352 107.027 29.6983 106.956 29.3619C106.88 29.0238 106.839 28.679 106.825 28.3327C106.813 27.9856 106.814 27.6401 106.885 27.2814C106.902 27.1964 106.979 27.1422 107.058 27.1607C107.136 27.1792 107.186 27.263 107.169 27.348C107.168 27.3503 107.168 27.3526 107.167 27.3552L107.166 27.3577ZM108.383 26.3614C108.18 26.7004 108.114 27.1382 108.1 27.5662C108.089 27.9986 108.135 28.4371 108.214 28.8676C108.294 29.2981 108.406 29.7237 108.558 30.1307C108.635 30.3338 108.722 30.5329 108.827 30.7175C108.932 30.8964 109.058 31.086 109.225 31.1576L109.231 31.1599C109.257 31.1713 109.27 31.204 109.26 31.233C109.249 31.2616 109.22 31.2756 109.193 31.2651C108.97 31.1753 108.841 30.976 108.721 30.7926C108.603 30.6028 108.507 30.4012 108.42 30.1954C108.249 29.7832 108.119 29.3529 108.022 28.9134C107.925 28.4736 107.861 28.0232 107.856 27.5635C107.857 27.1082 107.904 26.6252 108.135 26.1978L108.136 26.1955C108.177 26.1206 108.266 26.0954 108.335 26.1393C108.404 26.1831 108.427 26.2797 108.386 26.3549C108.385 26.3572 108.384 26.3595 108.383 26.3614ZM109.346 28.5036C109.151 28.0482 109.07 27.5494 109.033 27.0555C109.002 26.5595 109.014 26.0584 109.12 25.5584C109.138 25.4736 109.216 25.4204 109.294 25.44C109.372 25.4595 109.421 25.5439 109.403 25.6287C109.402 25.6317 109.402 25.6344 109.401 25.6371L109.4 25.6401C109.28 26.0849 109.24 26.5685 109.246 27.0446C109.256 27.5211 109.309 28.0034 109.471 28.4457C109.485 28.4835 109.468 28.5265 109.433 28.5417C109.4 28.5564 109.361 28.5389 109.346 28.5036Z" fill="#9B6D6D"/>
<path d="M111.479 32.2702C111.002 32.6245 110.526 32.9783 110.201 33.2196C109.066 33.1805 107.728 31.46 107.059 31.7887C106.47 32.0774 107.975 34.606 109.177 34.8248C110.066 34.9867 111.164 34.7658 112.436 34.3861C112.457 33.1001 111.847 32.5087 111.479 32.2702Z" fill="url(#paint39_linear)"/>
<path d="M109.149 56.4825C105.722 58.1975 102.681 59.7331 102.443 59.4651C102.25 59.2488 102.862 57.75 103.732 53.3052C104.602 48.8603 105.488 40.9503 105.149 39.3753C104.904 38.232 104.403 37.5283 104.403 37.5283L102.931 38.6222C102.931 38.6222 102.225 37.984 101.597 36.3565C100.969 34.729 101.186 33.3115 101.324 32.7498L101.793 32.3676C101.793 32.3676 101.127 32.1441 100.775 32.2615C100.461 32.3665 100.3 32.7953 100.3 32.7953C100.3 32.7953 100.002 32.6815 99.6518 33.0228C99.3185 33.3472 99.3013 33.8365 99.3013 33.8365C99.3013 33.8365 98.6892 33.8453 98.4313 34.8603C98.1734 35.8752 98.6729 39.1302 98.544 39.2703C98.415 39.4103 97.9479 38.1503 97.819 37.5552C97.69 36.96 97.6889 35.6889 97.225 36.0186C96.7612 36.3483 96.2883 38.0802 97.2753 40.7203C98.2623 43.3604 101.315 43.7151 101.509 44.2752C101.702 44.8353 98.4152 53.6901 97.6098 55.8252C96.8044 57.9602 95.5154 64.6802 97.4164 66.2552C99.4078 67.9048 105.57 66.4995 110.521 65.205C111.591 60.2438 110.064 57.6051 109.149 56.4825Z" fill="url(#paint40_radial)"/>
<path d="M100.365 32.8117C100.295 33.1918 100.269 33.5889 100.259 33.9808C100.251 34.3739 100.266 34.7672 100.304 35.1574C100.38 35.9375 100.547 36.7059 100.814 37.4292C100.844 37.5098 100.808 37.6016 100.733 37.6339C100.659 37.6663 100.575 37.627 100.545 37.5464C100.544 37.5449 100.543 37.5426 100.543 37.5411C100.29 36.7784 100.144 35.9795 100.093 35.1776C100.068 34.7762 100.065 34.3741 100.087 33.9734C100.11 33.5723 100.149 33.1748 100.235 32.7785C100.244 32.7395 100.279 32.7155 100.315 32.7248C100.35 32.7338 100.372 32.7712 100.365 32.8092L100.365 32.8117ZM99.3671 33.8462C99.3316 34.2197 99.3203 34.6026 99.3163 34.9814C99.3134 35.3611 99.3225 35.7406 99.3468 36.1184C99.3988 36.8699 99.4963 37.6308 99.7544 38.3097L99.755 38.3114C99.7855 38.3918 99.7503 38.4838 99.6763 38.517C99.6022 38.5502 99.5175 38.5119 99.487 38.4315C99.4864 38.4302 99.4858 38.4281 99.4852 38.4271C99.3557 38.0539 99.2792 37.6698 99.2264 37.2855C99.174 36.901 99.1473 36.5153 99.1353 36.1301C99.1237 35.745 99.1278 35.36 99.1436 34.9764C99.161 34.5919 99.1852 34.2109 99.2349 33.8264C99.2399 33.7869 99.2737 33.7592 99.3103 33.7649C99.3459 33.7704 99.3708 33.8054 99.3673 33.8438L99.3671 33.8462Z" fill="#9B6D6D"/>
<path d="M117.329 63.77C117.974 64.6799 117.652 68.39 117.652 68.39C117.652 68.39 120.165 69.125 122.227 66.675C124.289 64.2249 121.937 51.87 121.937 51.87C121.937 51.87 121.712 51.6249 118.296 52.395C116.568 52.7843 112.657 54.7272 109.149 56.4824C110.064 57.6048 111.591 60.2435 110.521 65.2047C114.107 64.2671 117.059 63.3876 117.329 63.77Z" fill="url(#paint41_linear)"/>
<path d="M112.405 64.9157C112.385 64.9157 112.365 64.9121 112.344 64.905C112.243 64.8689 112.188 64.75 112.221 64.64C113.657 59.9003 111.492 56.3739 110.751 55.7985C110.664 55.7311 110.644 55.5999 110.706 55.5056C110.769 55.4113 110.889 55.3895 110.976 55.4569C111.768 56.072 114.092 59.8085 112.589 64.7712C112.562 64.8594 112.486 64.9157 112.405 64.9157Z" fill="#FF8066"/>
<path d="M120.719 51.9226C120.882 51.9011 121.754 51.7285 122.876 51.4979C124.53 51.1579 127.018 51.0771 128.285 50.785C129.839 50.4267 131.589 49.4061 132.768 49.0684C133.202 48.9441 133.52 48.8601 133.653 48.8452C135.18 49.1749 137.826 51.948 138.761 55.868C139.74 59.9779 140.384 64.3123 137.339 75.2323C135.078 83.3421 135.164 84.5248 135.164 84.5248C135.164 84.5248 128.729 88.1555 123.516 87.6223C118.303 87.0892 115.396 86.1523 115.396 86.1523C115.396 86.1523 117.088 77.2798 117.378 73.2373C117.668 69.1948 117.717 67.2337 117.717 67.2337C117.717 67.2337 119.3 67.4124 120.358 66.3949C121.897 64.9161 122.211 60.1386 121.534 54.9325C121.192 52.3022 120.719 51.9226 120.719 51.9226Z" fill="url(#paint42_linear)"/>
<path d="M126.223 64.1551C126.803 65.2051 129.716 65.546 132.168 64.9951C134.504 64.4701 135.793 63.5776 136.228 62.0026C136.663 60.4276 136.308 52.4651 132.768 49.0687C131.589 49.4064 129.55 50.0419 127.995 50.4001C126.728 50.6922 124.53 51.1578 122.876 51.498C123.563 52.6022 124.652 54.6692 125.304 57.6451C126.005 60.8449 125.829 63.4432 126.223 64.1551Z" fill="url(#paint43_linear)"/>
<path d="M119.227 68.2699L119.143 67.8599C119.531 67.7663 119.89 67.6413 120.211 67.4885L120.366 67.873C120.023 68.0368 119.639 68.1705 119.227 68.2699ZM121.075 67.4528L120.858 67.105C121.107 66.9215 121.34 66.627 121.55 66.2299L121.885 66.4387C121.646 66.8918 121.373 67.2331 121.075 67.4528ZM122.228 65.6518L121.868 65.4987C121.993 65.1503 122.106 64.7547 122.203 64.3227L122.579 64.4222C122.478 64.8723 122.36 65.286 122.228 65.6518ZM122.739 63.5869L122.359 63.5134C122.422 63.1251 122.475 62.7103 122.516 62.2805L122.901 62.3237C122.859 62.7639 122.805 63.1889 122.739 63.5869ZM122.965 61.4778L122.579 61.4518C122.602 61.0478 122.616 60.628 122.619 60.2036L123.006 60.2075C123.003 60.6391 122.989 61.0667 122.965 61.4778ZM122.614 59.3705C122.605 58.9583 122.587 58.538 122.56 58.1214L122.946 58.092C122.973 58.5149 122.991 58.9419 123 59.3606L122.614 59.3705ZM122.495 57.2913C122.457 56.8765 122.41 56.459 122.356 56.0498L122.738 55.9895C122.794 56.4047 122.841 56.8286 122.88 57.2495L122.495 57.2913ZM122.234 55.2268C122.167 54.8147 122.091 54.4021 122.008 54.0008L122.386 53.9088C122.47 54.3166 122.547 54.7356 122.615 55.1541L122.234 55.2268ZM121.828 53.1908C121.731 52.7824 121.574 52.1723 121.461 51.7842L121.838 51.7093C121.954 52.1043 122.103 52.6698 122.203 53.0854L121.828 53.1908ZM129.573 66.726C129.293 66.726 129.015 66.7171 128.747 66.6997L128.77 66.2805C129.14 66.3045 129.527 66.3112 129.918 66.3015L129.927 66.7213C129.809 66.7245 129.691 66.726 129.573 66.726ZM130.713 66.6791L130.684 66.2604C131.07 66.2287 131.454 66.1808 131.825 66.1176L131.885 66.5325C131.503 66.5972 131.109 66.6466 130.713 66.6791ZM127.961 66.6218C127.534 66.5634 127.14 66.4811 126.791 66.3771L126.893 65.972C127.225 66.0705 127.6 66.1491 128.009 66.2049L127.961 66.6218ZM132.658 66.3767L132.578 65.966C132.978 65.8736 133.353 65.7711 133.692 65.6615L133.802 66.064C133.454 66.1768 133.069 66.282 132.658 66.3767ZM126.03 66.0808C125.631 65.8778 125.349 65.6329 125.19 65.353C125.154 65.2906 125.122 65.22 125.093 65.1375L125.453 64.9857C125.474 65.043 125.496 65.0924 125.518 65.1323C125.637 65.3416 125.865 65.5327 126.194 65.7005L126.03 66.0808ZM134.552 65.7883L134.413 65.3962C134.792 65.2377 135.135 65.0594 135.431 64.8666L135.63 65.2268C135.315 65.4321 134.952 65.6209 134.552 65.7883ZM136.287 64.7169L136.035 64.3979C136.328 64.1255 136.56 63.8292 136.746 63.4915L137.078 63.7068C136.873 64.0789 136.607 64.4187 136.287 64.7169ZM124.912 64.2698C124.865 63.9059 124.828 63.48 124.788 63.0012L125.173 62.9634C125.212 63.4363 125.249 63.8567 125.295 64.211L124.912 64.2698ZM137.416 62.8995L137.049 62.7681L137.071 62.6908C137.142 62.4436 137.198 62.0467 137.23 61.5734L137.616 61.6043C137.581 62.1156 137.521 62.5339 137.441 62.8147L137.416 62.8995ZM124.717 62.1622C124.676 61.6904 124.636 61.2924 124.593 60.9102L124.976 60.8588C125.02 61.2449 125.06 61.6465 125.102 62.1225L124.717 62.1622ZM137.648 60.7485L137.261 60.7441L137.262 60.5656C137.262 60.2193 137.252 59.8587 137.232 59.4938L137.618 59.469C137.639 59.8421 137.649 60.2111 137.649 60.5658L137.648 60.7485ZM124.489 60.0794C124.431 59.658 124.365 59.2418 124.293 58.8423L124.672 58.7613C124.746 59.167 124.813 59.5897 124.871 60.0175L124.489 60.0794ZM137.171 58.6613C137.133 58.248 137.082 57.8301 137.021 57.4192L137.403 57.3522C137.465 57.7715 137.517 58.1976 137.556 58.6193L137.171 58.6613ZM124.131 58.0246C124.113 57.9377 124.094 57.8503 124.074 57.7625C124.002 57.4446 123.924 57.1247 123.84 56.812L124.211 56.6949C124.297 57.0134 124.377 57.3389 124.449 57.6626C124.469 57.752 124.489 57.8413 124.508 57.9297L124.131 58.0246ZM136.883 56.5976C136.806 56.1856 136.717 55.7757 136.618 55.3796L136.991 55.2698C137.092 55.6745 137.183 56.0932 137.262 56.5141L136.883 56.5976ZM123.612 56.0138C123.492 55.6178 123.36 55.2215 123.22 54.8357L123.579 54.6818C123.722 55.0749 123.857 55.4788 123.979 55.8824L123.612 56.0138ZM136.4 54.5798C136.282 54.1795 136.151 53.7843 136.01 53.4054L136.368 53.2481C136.513 53.6366 136.647 54.0415 136.768 54.4516L136.4 54.5798ZM122.924 54.0646C122.769 53.6818 122.603 53.3013 122.43 52.9333L122.774 52.742C122.95 53.1171 123.12 53.5054 123.278 53.8958L122.924 54.0646ZM135.704 52.6427C135.539 52.2613 135.361 51.8899 135.173 51.5389L135.507 51.3277C135.701 51.6893 135.885 52.0719 136.054 52.4646L135.704 52.6427ZM134.767 50.8361C134.552 50.4885 134.321 50.1548 134.08 49.8442L134.376 49.574C134.625 49.8959 134.865 50.2416 135.088 50.6015L134.767 50.8361ZM118.4 67.9964C118.161 68.0273 117.923 68.0426 117.687 68.05C117.682 68.1754 117.675 68.3161 117.668 68.4706C117.925 68.4637 118.185 68.4471 118.445 68.4135L118.4 67.9964Z" fill="#6A74EF"/>
<path d="M122.402 51.9925C122.337 51.868 122.274 51.7496 122.211 51.6339C122.068 51.6628 121.933 51.6901 121.805 51.7155C121.858 51.8798 121.863 52.12 121.951 52.2901L122.402 51.9925ZM133.837 48.9297C133.821 48.9129 133.805 48.8975 133.79 48.8807C133.744 48.8671 133.698 48.8549 133.653 48.8455C133.58 48.8536 133.449 48.8833 133.276 48.9284C133.372 49.0259 133.469 49.1229 133.562 49.2247L133.837 48.9297Z" fill="#6A74EF"/>
<path d="M115.793 83.9953C117.394 84.6998 125.739 85.2248 129.767 84.2447C133.795 83.2647 135.556 82.1935 135.556 82.1935C135.556 82.1935 136.067 82.0223 136.115 83.6847C136.159 85.2275 135.438 86.2047 135.438 86.2047C135.438 86.2047 128.833 89.9147 121.712 89.7047C115.083 89.5092 114.704 88.7247 114.704 88.7247L115.793 83.9953Z" fill="url(#paint44_linear)"/>
<path d="M120.68 86.6772C121.502 86.5372 122.776 84.7751 122.776 84.7751C122.776 84.7751 120.348 84.6764 119.538 84.6169C118.727 84.5575 116.984 84.3053 115.793 83.9951C113.024 84.9092 110.788 86.1346 110.788 86.1346C110.788 86.1346 112.464 86.6245 114.704 86.7646C116.944 86.9047 119.859 86.8173 120.68 86.6772Z" fill="#5B252C"/>
<path d="M116.421 89.9114C116.421 91.4289 115.289 92.6588 113.892 92.6588C112.495 92.6588 111.363 91.4289 111.363 89.9114V81.7214C111.363 80.204 112.495 78.974 113.892 78.974C115.289 78.974 116.421 80.204 116.421 81.7214V89.9114Z" fill="#FF8066"/>
<path d="M113.273 82.4776C113.273 81.7636 112.738 81.1825 112.081 81.1825C111.823 81.1825 111.58 81.2722 111.376 81.4362C111.367 81.5298 111.363 81.625 111.363 81.7211V81.9353C111.413 81.9353 111.464 81.9146 111.502 81.8717C111.656 81.698 111.861 81.6025 112.081 81.6025C112.525 81.6025 112.887 81.995 112.887 82.4776V92.432C113.007 92.4889 113.133 92.5334 113.262 92.5695C113.267 92.5506 113.273 92.532 113.273 92.5114V82.4776ZM116.408 81.4364C116.204 81.2724 115.96 81.1827 115.703 81.1827C115.045 81.1827 114.51 81.7638 114.51 82.4778V92.5116C114.51 92.5322 114.516 92.5509 114.521 92.5698C114.651 92.5336 114.777 92.4889 114.897 92.4322V82.4776C114.897 81.995 115.258 81.6025 115.703 81.6025C115.922 81.6025 116.128 81.6983 116.282 81.8717C116.32 81.9146 116.37 81.9353 116.421 81.9353V81.7211C116.421 81.625 116.416 81.53 116.408 81.4364Z" fill="#FF8066"/>
<path d="M114.564 71.155L114.774 71.4877H113.428L113.219 71.155H114.564Z" fill="#E2DCE3"/>
<path d="M112.256 74.2351L112.466 74.5675L113.428 71.4877L113.219 71.155L112.256 74.2351Z" fill="#E2DCE3"/>
<path d="M112.547 79.9445C112.547 79.9445 112.691 80.2248 112.762 80.312C112.833 80.3991 113.433 75.4099 113.433 75.4099L113.142 75.1714L112.547 79.9445Z" fill="#E2DCE3"/>
<path d="M114.834 75.3727L115.736 74.5677L114.774 71.4877H114.109H114.093H113.428L112.466 74.5677L113.368 75.3727L112.756 80.2726H112.757C112.757 80.2741 112.756 80.2755 112.756 80.277C112.756 80.4799 113.358 80.6445 114.101 80.6445C114.844 80.6445 115.446 80.4799 115.446 80.277C115.446 80.2755 115.446 80.2741 115.446 80.2726H115.446L114.834 75.3727Z" fill="#B5A8AE"/>
<path d="M118.455 79.2338L116.573 90.599L120.377 91.3419L122.258 79.9767L118.455 79.2338Z" fill="#92A6EB"/>
<path d="M119.568 79.4513L117.687 90.8164L119.28 91.1278L121.162 79.7626L119.568 79.4513Z" fill="#6A74EF"/>
<path d="M118.455 79.2317L121.02 75.5426L122.258 79.9744C122.258 79.9744 121.582 80.6433 120.22 80.3772C118.858 80.1112 118.455 79.2317 118.455 79.2317Z" fill="#FF8066"/>
<path d="M121.403 76.912L121.02 75.5426L120.227 76.6831C120.399 76.7511 120.584 76.8131 120.803 76.8557C121.023 76.8988 121.218 76.9114 121.403 76.912Z" fill="#6A74EF"/>
<path d="M110.788 86.1351C110.788 86.1351 109.548 95.1651 109.918 95.9001C110.615 97.2838 116.991 98.0875 119.101 97.65C120.628 97.3336 121.293 96.2151 121.293 96.2151L122.776 84.7754C122.776 84.7754 121.502 86.5375 120.68 86.6776C119.859 86.8176 116.944 86.905 114.704 86.7651C112.464 86.6253 110.788 86.1351 110.788 86.1351Z" fill="url(#paint45_linear)"/>
<path d="M121.293 96.2152L122.776 84.7754C122.776 84.7754 121.581 86.4252 120.759 86.6553L120.759 86.6597C120.761 88.0075 119.681 96.6698 119.101 97.6499C120.628 97.3336 121.293 96.2152 121.293 96.2152Z" fill="url(#paint46_linear)"/>
<path d="M118.188 89.234L118.186 88.919C118.579 88.9172 118.967 88.9062 119.34 88.8873L119.353 89.2019C118.977 89.2212 118.585 89.2319 118.188 89.234ZM117.41 89.2271C117.031 89.2185 116.639 89.2023 116.246 89.179L116.262 88.8644C116.652 88.8877 117.04 88.9039 117.417 88.9123L117.41 89.2271ZM120.13 89.1479L120.107 88.834C120.248 88.8214 120.39 88.8077 120.53 88.792C120.592 88.7617 120.807 88.6517 121.109 88.4404L121.266 88.7055C120.883 88.9734 120.633 89.087 120.623 89.0917L120.582 89.1028C120.432 89.1196 120.282 89.1345 120.13 89.1479ZM115.471 89.1234C115.085 89.0912 114.695 89.052 114.311 89.0066L114.342 88.6935C114.723 88.7384 115.11 88.7773 115.493 88.8094L115.471 89.1234ZM113.539 88.9064C113.138 88.8493 112.75 88.7861 112.386 88.7185L112.434 88.4079C112.795 88.4747 113.179 88.5373 113.577 88.594L113.539 88.9064ZM111.62 88.5616C111.212 88.469 110.681 88.3304 110.465 88.1981L110.607 87.9236C110.746 88.0091 111.147 88.1324 111.679 88.2533L111.62 88.5616ZM121.905 88.2017L121.722 87.957C122.012 87.7019 122.291 87.4169 122.551 87.1101L122.765 87.3237C122.494 87.6416 122.205 87.9371 121.905 88.2017Z" fill="#FF8066"/>
<path d="M122.776 84.7754C122.904 84.7 124.144 84.3675 125.707 84.2976C127.27 84.2277 128.732 84.1815 128.895 84.4234C129.058 84.6653 127.737 92.7501 127.447 93.1701C127.157 93.5901 126.271 94.5525 124.66 94.5525C122.678 94.5525 121.672 93.2864 121.672 93.2864C121.672 93.2864 122.202 89.1961 122.295 88.4829C122.388 87.7697 122.776 84.7754 122.776 84.7754Z" fill="url(#paint47_linear)"/>
<path d="M125.61 88.7075C128.522 88.6366 128.836 84.9225 128.907 84.4983C128.905 84.462 128.902 84.4334 128.895 84.4233C128.731 84.1816 127.27 84.2276 125.707 84.2975C124.144 84.3675 122.904 84.7001 122.776 84.7753C122.726 85.1592 122.743 88.7775 125.61 88.7075Z" fill="url(#paint48_linear)"/>
<path d="M125.804 87.3948C126.24 87.3948 126.593 87.0109 126.593 86.5374C126.593 86.0638 126.24 85.6799 125.804 85.6799C125.368 85.6799 125.014 86.0638 125.014 86.5374C125.014 87.0109 125.368 87.3948 125.804 87.3948Z" fill="#FF8066"/>
<defs>
<linearGradient id="paint0_linear" x1="34.7376" y1="22.0189" x2="52.6854" y2="38.5438" gradientUnits="userSpaceOnUse">
<stop stop-color="white"/>
<stop offset="1" stop-color="#EFEEEF"/>
</linearGradient>
<linearGradient id="paint1_linear" x1="123.227" y1="121.126" x2="145.477" y2="141.61" gradientUnits="userSpaceOnUse">
<stop stop-color="#EFEEEF"/>
<stop offset="1" stop-color="white"/>
</linearGradient>
<linearGradient id="paint2_linear" x1="31.8564" y1="118.231" x2="58.9097" y2="143.136" gradientUnits="userSpaceOnUse">
<stop stop-color="white"/>
<stop offset="1" stop-color="#EFEEEF"/>
</linearGradient>
<linearGradient id="paint3_linear" x1="55.0345" y1="137.631" x2="55.0345" y2="126.86" gradientUnits="userSpaceOnUse">
<stop stop-color="#92A6EB"/>
<stop offset="1" stop-color="#6A74EF"/>
</linearGradient>
<linearGradient id="paint4_linear" x1="66.1577" y1="137.631" x2="66.1577" y2="126.86" gradientUnits="userSpaceOnUse">
<stop stop-color="#2421A2"/>
<stop offset="1" stop-color="#5C60D5"/>
</linearGradient>
<linearGradient id="paint5_linear" x1="37.6543" y1="128.117" x2="53.4092" y2="142.621" gradientUnits="userSpaceOnUse">
<stop stop-color="#5C60D5"/>
<stop offset="1" stop-color="#2421A2"/>
</linearGradient>
<linearGradient id="paint6_linear" x1="42.2269" y1="141.872" x2="57.2125" y2="155.668" gradientUnits="userSpaceOnUse">
<stop stop-color="#5C60D5"/>
<stop offset="1" stop-color="#2421A2"/>
</linearGradient>
<linearGradient id="paint7_linear" x1="54.3696" y1="136.266" x2="69.8055" y2="136.266" gradientUnits="userSpaceOnUse">
<stop stop-color="#DC6734"/>
<stop offset="1" stop-color="#AE2E41"/>
</linearGradient>
<linearGradient id="paint8_linear" x1="54.9153" y1="138.422" x2="76.4104" y2="158.212" gradientUnits="userSpaceOnUse">
<stop stop-color="#92A6EB"/>
<stop offset="1" stop-color="#6A74EF"/>
</linearGradient>
<linearGradient id="paint9_linear" x1="54.2432" y1="157.79" x2="75.7826" y2="157.79" gradientUnits="userSpaceOnUse">
<stop stop-color="#E9AA4A"/>
<stop offset="1" stop-color="#EA971D"/>
</linearGradient>
<linearGradient id="paint10_linear" x1="70.068" y1="82.6093" x2="100.326" y2="110.466" gradientUnits="userSpaceOnUse">
<stop stop-color="#E3DDE4"/>
<stop offset="1" stop-color="#B5A8AE"/>
</linearGradient>
<linearGradient id="paint11_linear" x1="84.0439" y1="87.0205" x2="103.808" y2="87.0205" gradientUnits="userSpaceOnUse">
<stop stop-color="#DC6734"/>
<stop offset="1" stop-color="#AE2E41"/>
</linearGradient>
<linearGradient id="paint12_linear" x1="55.5513" y1="36.8899" x2="94.5802" y2="36.8899" gradientUnits="userSpaceOnUse">
<stop stop-color="#E9AA4A"/>
<stop offset="1" stop-color="#F2D265"/>
</linearGradient>
<linearGradient id="paint13_linear" x1="80.1287" y1="26.5999" x2="105.31" y2="26.5999" gradientUnits="userSpaceOnUse">
<stop stop-color="#6A74EF"/>
<stop offset="1" stop-color="#92A6EB"/>
</linearGradient>
<linearGradient id="paint14_linear" x1="50.8831" y1="58.4574" x2="68.8441" y2="74.9929" gradientUnits="userSpaceOnUse">
<stop stop-color="#F2D265"/>
<stop offset="1" stop-color="#DCBB60"/>
</linearGradient>
<linearGradient id="paint15_linear" x1="51.9621" y1="33.7471" x2="58.227" y2="39.5148" gradientUnits="userSpaceOnUse">
<stop stop-color="#DC6734"/>
<stop offset="1" stop-color="#AE2E41"/>
</linearGradient>
<linearGradient id="paint16_linear" x1="71.493" y1="46.2901" x2="92.6608" y2="65.7779" gradientUnits="userSpaceOnUse">
<stop stop-color="#92A6EB"/>
<stop offset="1" stop-color="#6A74EF"/>
</linearGradient>
<linearGradient id="paint17_linear" x1="76.5424" y1="23.457" x2="82.8071" y2="29.2245" gradientUnits="userSpaceOnUse">
<stop stop-color="#DC6734"/>
<stop offset="1" stop-color="#AE2E41"/>
</linearGradient>
<linearGradient id="paint18_linear" x1="130.959" y1="155.919" x2="137.084" y2="155.919" gradientUnits="userSpaceOnUse">
<stop stop-color="#EAAEA4"/>
<stop offset="0.313" stop-color="#E8A89D"/>
<stop offset="0.782" stop-color="#E39688"/>
<stop offset="1" stop-color="#E08C7C"/>
</linearGradient>
<linearGradient id="paint19_linear" x1="123.548" y1="160.854" x2="137.375" y2="160.854" gradientUnits="userSpaceOnUse">
<stop stop-color="#DC6734"/>
<stop offset="1" stop-color="#AE2E41"/>
</linearGradient>
<linearGradient id="paint20_linear" x1="127.854" y1="152.521" x2="127.854" y2="82.8207" gradientUnits="userSpaceOnUse">
<stop stop-color="#5C60D5"/>
<stop offset="0.588" stop-color="#2421A2"/>
<stop offset="1" stop-color="#250F52"/>
</linearGradient>
<linearGradient id="paint21_linear" x1="125.149" y1="104.296" x2="125.149" y2="101.916" gradientUnits="userSpaceOnUse">
<stop stop-color="#6A74EF"/>
<stop offset="1" stop-color="#5C60D5"/>
</linearGradient>
<linearGradient id="paint22_linear" x1="123.548" y1="162.247" x2="137.375" y2="162.247" gradientUnits="userSpaceOnUse">
<stop stop-color="#E9AA4A"/>
<stop offset="1" stop-color="#EA971D"/>
</linearGradient>
<linearGradient id="paint23_linear" x1="128.716" y1="150.32" x2="136.209" y2="150.32" gradientUnits="userSpaceOnUse">
<stop stop-color="#92A6EB"/>
<stop offset="1" stop-color="#6A74EF"/>
</linearGradient>
<linearGradient id="paint24_linear" x1="102.503" y1="158.169" x2="108.758" y2="158.169" gradientUnits="userSpaceOnUse">
<stop stop-color="#EAAEA4"/>
<stop offset="0.313" stop-color="#E8A89D"/>
<stop offset="0.782" stop-color="#E39688"/>
<stop offset="1" stop-color="#E08C7C"/>
</linearGradient>
<linearGradient id="paint25_linear" x1="94.4821" y1="162.819" x2="108.335" y2="162.819" gradientUnits="userSpaceOnUse">
<stop stop-color="#DC6734"/>
<stop offset="1" stop-color="#AE2E41"/>
</linearGradient>
<linearGradient id="paint26_linear" x1="102.664" y1="119.565" x2="128.845" y2="119.565" gradientUnits="userSpaceOnUse">
<stop stop-color="#5C60D5"/>
<stop offset="0.588" stop-color="#2421A2"/>
<stop offset="1" stop-color="#250F52"/>
</linearGradient>
<linearGradient id="paint27_linear" x1="94.4824" y1="164.364" x2="108.335" y2="164.364" gradientUnits="userSpaceOnUse">
<stop stop-color="#E9AA4A"/>
<stop offset="1" stop-color="#EA971D"/>
</linearGradient>
<linearGradient id="paint28_linear" x1="102.664" y1="152.921" x2="109.828" y2="152.921" gradientUnits="userSpaceOnUse">
<stop stop-color="#92A6EB"/>
<stop offset="1" stop-color="#6A74EF"/>
</linearGradient>
<radialGradient id="paint29_radial" cx="0" cy="0" r="1" gradientUnits="userSpaceOnUse" gradientTransform="translate(140.746 33.6271) scale(21.4372 23.2852)">
<stop stop-color="#E08D7D"/>
<stop offset="0.035" stop-color="#E49587"/>
<stop offset="0.137" stop-color="#EFAA9E"/>
<stop offset="0.247" stop-color="#F6B8AE"/>
<stop offset="0.369" stop-color="#FBC0B8"/>
<stop offset="0.527" stop-color="#FCC3BB"/>
<stop offset="1" stop-color="#EAAEA4"/>
</radialGradient>
<linearGradient id="paint30_linear" x1="133.505" y1="54.6061" x2="141.812" y2="54.6061" gradientUnits="userSpaceOnUse">
<stop stop-color="#E9AA4A"/>
<stop offset="1" stop-color="#EA971D"/>
</linearGradient>
<linearGradient id="paint31_linear" x1="128.72" y1="53.072" x2="128.72" y2="40.5392" gradientUnits="userSpaceOnUse">
<stop stop-color="#EAAEA4"/>
<stop offset="0.313" stop-color="#E8A89D"/>
<stop offset="0.782" stop-color="#E39688"/>
<stop offset="1" stop-color="#E08C7C"/>
</linearGradient>
<linearGradient id="paint32_linear" x1="119.555" y1="38.3219" x2="131.864" y2="38.3219" gradientUnits="userSpaceOnUse">
<stop stop-color="#EAAEA4"/>
<stop offset="0.313" stop-color="#E8A89D"/>
<stop offset="0.782" stop-color="#E39688"/>
<stop offset="1" stop-color="#E08C7C"/>
</linearGradient>
<linearGradient id="paint33_linear" x1="115.458" y1="35.5704" x2="134.812" y2="35.5704" gradientUnits="userSpaceOnUse">
<stop stop-color="#BE4118"/>
<stop offset="0.165" stop-color="#A2391E"/>
<stop offset="0.388" stop-color="#833024"/>
<stop offset="0.606" stop-color="#6D2A28"/>
<stop offset="0.814" stop-color="#60262B"/>
<stop offset="1" stop-color="#5B252C"/>
</linearGradient>
<linearGradient id="paint34_linear" x1="86.4756" y1="35.3263" x2="117.692" y2="35.3263" gradientUnits="userSpaceOnUse">
<stop stop-color="#5B252C"/>
<stop offset="1" stop-color="#250F50"/>
</linearGradient>
<linearGradient id="paint35_linear" x1="105.968" y1="29.62" x2="108.013" y2="29.62" gradientUnits="userSpaceOnUse">
<stop stop-color="#EAAEA4"/>
<stop offset="0.313" stop-color="#E8A89D"/>
<stop offset="0.782" stop-color="#E39688"/>
<stop offset="1" stop-color="#E08C7C"/>
</linearGradient>
<linearGradient id="paint36_linear" x1="106.946" y1="28.9526" x2="109.186" y2="28.9526" gradientUnits="userSpaceOnUse">
<stop stop-color="#EAAEA4"/>
<stop offset="0.313" stop-color="#E8A89D"/>
<stop offset="0.782" stop-color="#E39688"/>
<stop offset="1" stop-color="#E08C7C"/>
</linearGradient>
<linearGradient id="paint37_linear" x1="107.978" y1="28.4631" x2="109.671" y2="28.4631" gradientUnits="userSpaceOnUse">
<stop stop-color="#EAAEA4"/>
<stop offset="0.313" stop-color="#E8A89D"/>
<stop offset="0.782" stop-color="#E39688"/>
<stop offset="1" stop-color="#E08C7C"/>
</linearGradient>
<linearGradient id="paint38_linear" x1="109.156" y1="26.7727" x2="111.109" y2="26.7727" gradientUnits="userSpaceOnUse">
<stop stop-color="#EAAEA4"/>
<stop offset="0.313" stop-color="#E8A89D"/>
<stop offset="0.782" stop-color="#E39688"/>
<stop offset="1" stop-color="#E08C7C"/>
</linearGradient>
<linearGradient id="paint39_linear" x1="106.927" y1="33.3128" x2="112.437" y2="33.3128" gradientUnits="userSpaceOnUse">
<stop stop-color="#FCC3BB"/>
<stop offset="1" stop-color="#EAAEA4"/>
</linearGradient>
<radialGradient id="paint40_radial" cx="0" cy="0" r="1" gradientUnits="userSpaceOnUse" gradientTransform="translate(97.7614 65.9957) scale(25.3702 27.5572)">
<stop stop-color="#E08D7D"/>
<stop offset="0.035" stop-color="#E49587"/>
<stop offset="0.137" stop-color="#EFAA9E"/>
<stop offset="0.247" stop-color="#F6B8AE"/>
<stop offset="0.369" stop-color="#FBC0B8"/>
<stop offset="0.527" stop-color="#FCC3BB"/>
<stop offset="1" stop-color="#EAAEA4"/>
</radialGradient>
<linearGradient id="paint41_linear" x1="111.743" y1="53.665" x2="123.905" y2="64.8617" gradientUnits="userSpaceOnUse">
<stop stop-color="#E9AA4A"/>
<stop offset="1" stop-color="#EA971D"/>
</linearGradient>
<linearGradient id="paint42_linear" x1="115.658" y1="57.4208" x2="139.722" y2="79.5751" gradientUnits="userSpaceOnUse">
<stop stop-color="#5C60D5"/>
<stop offset="0.588" stop-color="#2421A2"/>
<stop offset="1" stop-color="#250F52"/>
</linearGradient>
<linearGradient id="paint43_linear" x1="123.827" y1="50.4654" x2="136.572" y2="62.1993" gradientUnits="userSpaceOnUse">
<stop stop-color="#E9AA4A"/>
<stop offset="1" stop-color="#EA971D"/>
</linearGradient>
<linearGradient id="paint44_linear" x1="114.704" y1="85.951" x2="136.117" y2="85.951" gradientUnits="userSpaceOnUse">
<stop stop-color="#DC6734"/>
<stop offset="1" stop-color="#AE2E41"/>
</linearGradient>
<linearGradient id="paint45_linear" x1="109.849" y1="91.2726" x2="122.776" y2="91.2726" gradientUnits="userSpaceOnUse">
<stop stop-color="#EA971D"/>
<stop offset="1" stop-color="#DC6734"/>
</linearGradient>
<linearGradient id="paint46_linear" x1="119.101" y1="91.2127" x2="122.776" y2="91.2127" gradientUnits="userSpaceOnUse">
<stop stop-color="#DC6734"/>
<stop offset="1" stop-color="#AE2E41"/>
</linearGradient>
<linearGradient id="paint47_linear" x1="121.672" y1="89.397" x2="128.909" y2="89.397" gradientUnits="userSpaceOnUse">
<stop stop-color="#DC6734"/>
<stop offset="1" stop-color="#AE2E41"/>
</linearGradient>
<linearGradient id="paint48_linear" x1="122.765" y1="86.475" x2="128.907" y2="86.475" gradientUnits="userSpaceOnUse">
<stop stop-color="#EA971D"/>
<stop offset="1" stop-color="#DC6734"/>
</linearGradient>
</defs>
</svg>
