<svg width="40" height="40" viewBox="0 0 40 40" fill="none" xmlns="http://www.w3.org/2000/svg">
<path d="M20 2.5C10.3523 2.5 2.49995 10.3522 2.5 20C2.5001 29.6478 10.3524 37.5 20 37.5C29.6476 37.5 37.4999 29.6478 37.5 20C37.5 10.3522 29.6477 2.5 20 2.5ZM20 5.41992C28.0715 5.41992 34.585 11.9285 34.585 20C34.5849 28.0715 28.0714 34.585 20 34.585C11.9286 34.585 5.42001 28.0715 5.41992 20C5.41988 11.9285 11.9285 5.41992 20 5.41992ZM13.75 12.5C11.6937 12.5 10 14.1938 10 16.25C10 18.3062 11.6937 20 13.75 20C15.8063 20 17.5 18.3062 17.5 16.25C17.5 14.1938 15.8063 12.5 13.75 12.5ZM26.25 12.5C24.1937 12.5 22.5 14.1938 22.5 16.25C22.5 18.3062 24.1937 20 26.25 20C28.3063 20 30 18.3062 30 16.25C30 14.1938 28.3063 12.5 26.25 12.5ZM13.75 15C14.4552 15 15 15.545 15 16.25C15 16.9552 14.4552 17.5 13.75 17.5C13.0448 17.5 12.5 16.9552 12.5 16.25C12.5 15.545 13.0448 15 13.75 15ZM26.25 15C26.9552 15 27.5 15.545 27.5 16.25C27.5 16.9552 26.9552 17.5 26.25 17.5C25.5448 17.5 25 16.9552 25 16.25C25 15.545 25.5448 15 26.25 15ZM13.0811 24.6338L11.3086 26.4014C13.6134 28.7061 16.7405 30 20 30C23.2595 30 26.3915 28.7061 28.6963 26.4014L26.9238 24.6338C25.0872 26.4705 22.5974 27.5 20 27.5C17.4026 27.5 14.9177 26.4705 13.0811 24.6338Z" fill="#00277D"/>
</svg>
