<svg xmlns="http://www.w3.org/2000/svg" data-name="Layer 3" viewBox="0 0 64 64"><path d="M40 17h2V15H40V14a1 1 0 0 0-1-1H25a1 1 0 0 0-1 1v1H22v2h2v2H1v2H24v5H22v2h2v5H1v2H24v2H22v2h2v1a1 1 0 0 0 1 1H39a1 1 0 0 0 1-1V39h2V37H40V35h5.178A3.678 3.678 0 0 0 45 36a4 4 0 0 0 8 0 3.678 3.678 0 0 0-.178-1H63V33H51.982a34.878 34.878 0 0 0-2.159-3.568 1.038 1.038 0 0 0-1.646 0A34.878 34.878 0 0 0 46.018 33H40V28h2V26H40V21h6.586L48 22.414V26a1 1 0 0 0 .553.895l4 2A1.011 1.011 0 0 0 53 29a1 1 0 0 0 .949-1.316l-.8-2.413 1.564-1.564a1 1 0 0 0 .124-1.262L53.868 21H63V19H40zM26 15h5V39H26zM38 39H33V15h5zm11-7.179c1.067 1.7 2 3.516 2 4.179a2 2 0 0 1-4 0C47 35.338 47.933 33.526 49 31.821zm3.713-8.948l-1.421 1.421a1 1 0 0 0-.241 1.023l.237.709L50 25.382V22a1 1 0 0 0-.293-.707L49.414 21h2.051zM56 50a4 4 0 0 0 4-4c0-1.874-2.646-5.8-3.177-6.568a1.038 1.038 0 0 0-1.646 0C54.646 40.2 52 44.126 52 46A4 4 0 0 0 56 50zm0-8.179c1.067 1.7 2 3.516 2 4.179a2 2 0 0 1-4 0C54 45.338 54.933 43.526 56 41.821zM47 48c0-1.278-1.522-3.621-2.177-4.568a1.038 1.038 0 0 0-1.646 0C42.522 44.379 41 46.722 41 48a3 3 0 0 0 6 0zm-4 0a7.457 7.457 0 0 1 1-2.147A7.457 7.457 0 0 1 45 48a1 1 0 0 1-2 0z"/></svg>