<svg xmlns="http://www.w3.org/2000/svg" width="32" height="32" viewBox="0 0 32 32"><g transform="translate(0 -1020.362)"><path fill="#2b4255" fill-rule="evenodd" style="line-height:normal;text-indent:0;text-align:start;text-decoration-line:none;text-decoration-style:solid;text-decoration-color:#000;text-transform:none;block-progression:tb;isolation:auto;mix-blend-mode:normal" d="m 1.5,1042.3613 a 0.50005,0.50005 0 0 0 -0.5,0.5 l 0,3 a 0.50005,0.50005 0 0 0 0.5,0.5 l 29,0 a 0.50005,0.50005 0 0 0 0.5,-0.5 l 0,-3 a 0.50005,0.50005 0 0 0 -0.5,-0.5 l -3.25,0 a 0.50005,0.50005 0 1 0 0,1 l 2.75,0 0,2 -28,0 0,-2 2.75,0 a 0.50005,0.50005 0 1 0 0,-1 l -3.25,0 z" color="#000" font-family="sans-serif" font-weight="400" overflow="visible"/><path fill="#2b4255" style="line-height:normal;text-indent:0;text-align:start;text-decoration-line:none;text-decoration-style:solid;text-decoration-color:#000;text-transform:none;block-progression:tb;isolation:auto;mix-blend-mode:normal" d="m 19.626953,1029.873 -0.277344,0.959 c 5.267559,1.5285 8.824919,6.4224 8.650391,11.8985 l 0.998047,0.031 c 0.18893,-5.9279 -3.670172,-11.2345 -9.371094,-12.8887 z" color="#000" font-family="sans-serif" font-weight="400" overflow="visible"/><path fill="#2b4255" style="line-height:normal;text-indent:0;text-align:start;text-decoration-line:none;text-decoration-style:solid;text-decoration-color:#000;text-transform:none;block-progression:tb;isolation:auto;mix-blend-mode:normal" d="m 12.5,1027.3574 a 0.50005,0.50005 0 0 0 -0.5,0.5 l 0,7 a 0.50005,0.50005 0 1 0 1,0 l 0,-6.5 6,0 0,6.5 a 0.50005,0.50005 0 1 0 1,0 l 0,-7 a 0.50005,0.50005 0 0 0 -0.5,-0.5 l -7,0 z" color="#000" font-family="sans-serif" font-weight="400" overflow="visible"/><path fill="#2b4255" fill-rule="evenodd" style="line-height:normal;text-indent:0;text-align:start;text-decoration-line:none;text-decoration-style:solid;text-decoration-color:#000;text-transform:none;block-progression:tb;isolation:auto;mix-blend-mode:normal" d="M 15.992188,1027.3613 A 0.50005,0.50005 0 0 0 15.5,1027.8691 l 0,6 a 0.50005,0.50005 0 1 0 1,0 l 0,-6 a 0.50005,0.50005 0 0 0 -0.507812,-0.5078 z" color="#000" font-family="sans-serif" font-weight="400" overflow="visible"/><path fill="#2b4255" style="line-height:normal;text-indent:0;text-align:start;text-decoration-line:none;text-decoration-style:solid;text-decoration-color:#000;text-transform:none;block-progression:tb;isolation:auto;mix-blend-mode:normal" d="m 12.380859,1029.8691 c -5.6594987,1.6379 -9.5121513,6.8785 -9.3828121,12.7637 l 1,-0.022 C 3.87857,1037.1749 7.42904,1032.3434 12.658203,1030.8301 l -0.277344,-0.961 z" color="#000" font-family="sans-serif" font-weight="400" overflow="visible"/><path fill="#2b4255" fill-rule="evenodd" style="line-height:normal;text-indent:0;text-align:start;text-decoration-line:none;text-decoration-style:solid;text-decoration-color:#000;text-transform:none;block-progression:tb;isolation:auto;mix-blend-mode:normal" d="m 9,1042.3574 a 0.50005,0.50005 0 1 0 0,1 l 14,0 a 0.50005,0.50005 0 1 0 0,-1 l -14,0 z" color="#000" font-family="sans-serif" font-weight="400" overflow="visible"/></g></svg>