<svg id="SvgjsSvg1001" width="288" height="288" xmlns="http://www.w3.org/2000/svg" version="1.1" xmlns:xlink="http://www.w3.org/1999/xlink" xmlns:svgjs="http://svgjs.com/svgjs"><defs id="SvgjsDefs1002"></defs><g id="SvgjsG1008" transform="matrix(1,0,0,1,0,0)"><svg xmlns="http://www.w3.org/2000/svg" viewBox="0 0 64 64" width="288" height="288"><path fill="#ffffff" d="M36.942,26.365a1.5,1.5,0,0,1-1.5,1.5H33.5v20.36a1.5,1.5,0,0,1-3,0V27.865H28.558a1.5,1.5,0,0,1,0-3H30.5v-9.09a1.5,1.5,0,1,1,3,0v9.09h1.942A1.5,1.5,0,0,1,36.942,26.365Zm13.778,9.5H48.778V15.775a1.5,1.5,0,1,0-3,0v20.09H43.836a1.5,1.5,0,0,0,0,3h1.942v9.36a1.5,1.5,0,0,0,3,0v-9.36H50.72a1.5,1.5,0,0,0,0-3Zm-30.556,0H18.222V15.775a1.5,1.5,0,0,0-3,0v20.09H13.28a1.5,1.5,0,0,0,0,3h1.942v9.36a1.5,1.5,0,1,0,3,0v-9.36h1.942a1.5,1.5,0,0,0,0-3Z" class="color88e2de svgShape"></path></svg></g></svg>