<svg xmlns="http://www.w3.org/2000/svg" data-name="Layer 1" viewBox="0 0 64 64"><path fill="none" stroke="#222" stroke-linecap="round" stroke-linejoin="round" stroke-width="3" d="M23.27,19.78l26-14.56a2.38,2.38,0,0,1,3.48,2.57L46.62,37a2.38,2.38,0,0,1-3.73,1.42L23,23.76A2.37,2.37,0,0,1,23.27,19.78Z"/><line x1="26.63" x2="37.29" y1="39.67" y2="25.18" fill="none" stroke="#222" stroke-linecap="round" stroke-linejoin="round" stroke-width="3"/><path fill="none" stroke="#222" stroke-linecap="round" stroke-linejoin="round" stroke-width="3" d="M17.72,37.45H22a2,2,0,0,1,2,2V56.73a3.5,3.5,0,0,1-3.5,3.5H19.22a3.5,3.5,0,0,1-3.5-3.5V39.45a2,2,0,0,1,2-2Z" transform="rotate(36.36 19.866 48.835)"/></svg>