<svg width="72" height="72" viewBox="0 0 72 72" fill="none" xmlns="http://www.w3.org/2000/svg">
<path d="M59.1429 39.8571V59.1428C59.1429 59.8393 58.8884 60.442 58.3795 60.9509C57.8706 61.4598 57.2679 61.7143 56.5715 61.7143H41.1429V46.2857H30.8572V61.7143H15.4286C14.7322 61.7143 14.1295 61.4598 13.6206 60.9509C13.1116 60.442 12.8572 59.8393 12.8572 59.1428V39.8571C12.8572 39.8303 12.8639 39.7902 12.8773 39.7366C12.8907 39.683 12.8973 39.6428 12.8973 39.6161L36 20.5714L59.1027 39.6161C59.1295 39.6696 59.1429 39.75 59.1429 39.8571ZM68.1027 37.0848L65.6116 40.058C65.3974 40.2991 65.1161 40.4464 64.7679 40.5H64.6474C64.2991 40.5 64.0179 40.4062 63.8036 40.2187L36 17.0357L8.19646 40.2187C7.87503 40.433 7.5536 40.5268 7.23217 40.5C6.88396 40.4464 6.60271 40.2991 6.38842 40.058L3.89735 37.0848C3.68306 36.8169 3.58931 36.5022 3.6161 36.1406C3.64288 35.779 3.7902 35.4911 4.05806 35.2768L32.9465 11.2098C33.8036 10.5134 34.8215 10.1652 36 10.1652C37.1786 10.1652 38.1965 10.5134 39.0536 11.2098L48.8572 19.4062V11.5714C48.8572 11.1964 48.9777 10.8884 49.2188 10.6473C49.4599 10.4062 49.7679 10.2857 50.1429 10.2857H57.8572C58.2322 10.2857 58.5402 10.4062 58.7813 10.6473C59.0224 10.8884 59.1429 11.1964 59.1429 11.5714V27.9643L67.942 35.2768C68.2099 35.4911 68.3572 35.779 68.384 36.1406C68.4107 36.5022 68.317 36.8169 68.1027 37.0848Z" fill="#ffffff"/>
</svg>
