<svg width="561" height="493" viewBox="0 0 561 493" fill="none" xmlns="http://www.w3.org/2000/svg">
<path d="M255.3 269.74C255.3 269.167 255.467 268.713 255.8 268.38C256.133 268.047 256.587 267.88 257.16 267.88H263.76C263.853 268.027 263.933 268.22 264 268.46C264.08 268.7 264.12 268.953 264.12 269.22C264.12 269.727 264.007 270.087 263.78 270.3C263.567 270.513 263.28 270.62 262.92 270.62H258.7V272.48H263.2C263.293 272.627 263.373 272.82 263.44 273.06C263.52 273.287 263.56 273.533 263.56 273.8C263.56 274.307 263.453 274.667 263.24 274.88C263.027 275.093 262.74 275.2 262.38 275.2H258.7V277.3H263.84C263.933 277.447 264.013 277.64 264.08 277.88C264.16 278.12 264.2 278.373 264.2 278.64C264.2 279.147 264.087 279.513 263.86 279.74C263.647 279.953 263.36 280.06 263 280.06H257.16C256.587 280.06 256.133 279.893 255.8 279.56C255.467 279.227 255.3 278.773 255.3 278.2V269.74ZM277.387 279.58C277.2 279.767 276.927 279.907 276.567 280C276.22 280.107 275.8 280.16 275.307 280.16C274.814 280.16 274.347 280.087 273.907 279.94C273.467 279.793 273.107 279.44 272.827 278.88L270.847 274.84C270.647 274.427 270.467 274.04 270.307 273.68C270.147 273.307 269.974 272.88 269.787 272.4L269.667 272.42C269.72 273.14 269.747 273.873 269.747 274.62C269.76 275.367 269.767 276.1 269.767 276.82V279.92C269.62 279.96 269.394 280 269.087 280.04C268.794 280.08 268.5 280.1 268.207 280.1C267.914 280.1 267.654 280.08 267.427 280.04C267.2 280 267.014 279.92 266.867 279.8C266.72 279.68 266.607 279.52 266.527 279.32C266.447 279.107 266.407 278.833 266.407 278.5V268.5C266.594 268.233 266.88 268.033 267.267 267.9C267.654 267.767 268.067 267.7 268.507 267.7C269 267.7 269.467 267.78 269.907 267.94C270.36 268.087 270.72 268.433 270.987 268.98L272.987 273.02C273.187 273.433 273.367 273.827 273.527 274.2C273.687 274.56 273.86 274.98 274.047 275.46L274.147 275.44C274.094 274.72 274.06 274 274.047 273.28C274.034 272.56 274.027 271.84 274.027 271.12V267.88C274.174 267.84 274.394 267.8 274.687 267.76C274.994 267.72 275.294 267.7 275.587 267.7C276.174 267.7 276.62 267.807 276.927 268.02C277.234 268.22 277.387 268.647 277.387 269.3V279.58ZM279.571 270.68C279.478 270.533 279.391 270.333 279.311 270.08C279.231 269.827 279.191 269.56 279.191 269.28C279.191 268.76 279.305 268.387 279.531 268.16C279.771 267.933 280.078 267.82 280.451 267.82H289.171C289.265 267.967 289.351 268.167 289.431 268.42C289.511 268.673 289.551 268.94 289.551 269.22C289.551 269.74 289.431 270.113 289.191 270.34C288.965 270.567 288.665 270.68 288.291 270.68H286.071V279.92C285.925 279.96 285.691 280 285.371 280.04C285.065 280.08 284.758 280.1 284.451 280.1C284.145 280.1 283.871 280.073 283.631 280.02C283.405 279.98 283.211 279.9 283.051 279.78C282.891 279.66 282.771 279.493 282.691 279.28C282.611 279.067 282.571 278.787 282.571 278.44V270.68H279.571ZM294.875 276.08V279.92C294.728 279.96 294.495 280 294.175 280.04C293.868 280.08 293.561 280.1 293.255 280.1C292.948 280.1 292.675 280.073 292.435 280.02C292.208 279.98 292.015 279.9 291.855 279.78C291.708 279.66 291.595 279.493 291.515 279.28C291.435 279.067 291.395 278.787 291.395 278.44V269.02C291.395 268.74 291.468 268.527 291.615 268.38C291.775 268.22 291.988 268.093 292.255 268C292.708 267.84 293.235 267.727 293.835 267.66C294.435 267.58 295.075 267.54 295.755 267.54C297.595 267.54 298.981 267.927 299.915 268.7C300.848 269.473 301.315 270.52 301.315 271.84C301.315 272.667 301.101 273.373 300.675 273.96C300.248 274.547 299.741 275 299.155 275.32C299.635 275.973 300.108 276.587 300.575 277.16C301.041 277.733 301.408 278.253 301.675 278.72C301.541 279.187 301.295 279.547 300.935 279.8C300.588 280.04 300.195 280.16 299.755 280.16C299.461 280.16 299.208 280.127 298.995 280.06C298.781 279.993 298.595 279.9 298.435 279.78C298.275 279.66 298.128 279.513 297.995 279.34C297.861 279.167 297.735 278.98 297.615 278.78L295.935 276.08H294.875ZM296.135 273.42C296.641 273.42 297.041 273.293 297.335 273.04C297.628 272.773 297.775 272.387 297.775 271.88C297.775 271.373 297.608 270.993 297.275 270.74C296.955 270.473 296.441 270.34 295.735 270.34C295.535 270.34 295.375 270.347 295.255 270.36C295.135 270.373 295.001 270.393 294.855 270.42V273.42H296.135ZM306.468 268.24C306.695 268.107 307.035 267.98 307.488 267.86C307.955 267.74 308.422 267.68 308.888 267.68C309.555 267.68 310.142 267.78 310.648 267.98C311.168 268.167 311.502 268.467 311.648 268.88C311.888 269.573 312.148 270.38 312.428 271.3C312.708 272.22 312.988 273.173 313.268 274.16C313.548 275.133 313.822 276.1 314.088 277.06C314.355 278.007 314.588 278.847 314.788 279.58C314.628 279.767 314.388 279.913 314.068 280.02C313.748 280.14 313.368 280.2 312.928 280.2C312.608 280.2 312.335 280.173 312.108 280.12C311.895 280.067 311.715 279.987 311.568 279.88C311.435 279.773 311.322 279.633 311.228 279.46C311.148 279.287 311.075 279.087 311.008 278.86L310.648 277.48H307.028C306.922 277.88 306.815 278.293 306.708 278.72C306.602 279.147 306.495 279.56 306.388 279.96C306.202 280.027 306.002 280.08 305.788 280.12C305.588 280.173 305.342 280.2 305.048 280.2C304.368 280.2 303.862 280.087 303.528 279.86C303.208 279.62 303.048 279.293 303.048 278.88C303.048 278.693 303.075 278.507 303.128 278.32C303.182 278.133 303.242 277.913 303.308 277.66C303.402 277.3 303.528 276.853 303.688 276.32C303.862 275.787 304.048 275.213 304.248 274.6C304.448 273.973 304.662 273.333 304.888 272.68C305.115 272.027 305.328 271.413 305.528 270.84C305.728 270.253 305.908 269.733 306.068 269.28C306.242 268.827 306.375 268.48 306.468 268.24ZM308.868 270.82C308.682 271.38 308.468 272.007 308.228 272.7C308.002 273.38 307.795 274.073 307.608 274.78H310.088C309.902 274.06 309.708 273.36 309.508 272.68C309.322 271.987 309.148 271.367 308.988 270.82H308.868ZM320.057 276.08V279.92C319.911 279.96 319.677 280 319.357 280.04C319.051 280.08 318.744 280.1 318.437 280.1C318.131 280.1 317.857 280.073 317.617 280.02C317.391 279.98 317.197 279.9 317.037 279.78C316.891 279.66 316.777 279.493 316.697 279.28C316.617 279.067 316.577 278.787 316.577 278.44V269.02C316.577 268.74 316.651 268.527 316.797 268.38C316.957 268.22 317.171 268.093 317.437 268C317.891 267.84 318.417 267.727 319.017 267.66C319.617 267.58 320.257 267.54 320.937 267.54C322.777 267.54 324.164 267.927 325.097 268.7C326.031 269.473 326.497 270.52 326.497 271.84C326.497 272.667 326.284 273.373 325.857 273.96C325.431 274.547 324.924 275 324.337 275.32C324.817 275.973 325.291 276.587 325.757 277.16C326.224 277.733 326.591 278.253 326.857 278.72C326.724 279.187 326.477 279.547 326.117 279.8C325.771 280.04 325.377 280.16 324.937 280.16C324.644 280.16 324.391 280.127 324.177 280.06C323.964 279.993 323.777 279.9 323.617 279.78C323.457 279.66 323.311 279.513 323.177 279.34C323.044 279.167 322.917 278.98 322.797 278.78L321.117 276.08H320.057ZM321.317 273.42C321.824 273.42 322.224 273.293 322.517 273.04C322.811 272.773 322.957 272.387 322.957 271.88C322.957 271.373 322.791 270.993 322.457 270.74C322.137 270.473 321.624 270.34 320.917 270.34C320.717 270.34 320.557 270.347 320.437 270.36C320.317 270.373 320.184 270.393 320.037 270.42V273.42H321.317Z" fill="white"/>
<path d="M12.5 173C18.299 173 23 168.299 23 162.5C23 156.701 18.299 152 12.5 152C6.70101 152 2 156.701 2 162.5C2 168.299 6.70101 173 12.5 173Z" fill="#5679E0"/>
<path d="M243 480C247.971 480 252 476.194 252 471.5C252 466.806 247.971 463 243 463C238.029 463 234 466.806 234 471.5C234 476.194 238.029 480 243 480Z" fill="#5679E0"/>
<path d="M532.5 266C536.09 266 539 262.866 539 259C539 255.134 536.09 252 532.5 252C528.91 252 526 255.134 526 259C526 262.866 528.91 266 532.5 266Z" fill="#5679E0"/>
<path d="M515 61C516.105 61 517 60.1046 517 59C517 57.8954 516.105 57 515 57C513.895 57 513 57.8954 513 59C513 60.1046 513.895 61 515 61Z" fill="#5679E0"/>
<path d="M368.5 31C374.851 31 380 25.6274 380 19C380 12.3726 374.851 7 368.5 7C362.149 7 357 12.3726 357 19C357 25.6274 362.149 31 368.5 31Z" fill="#5679E0"/>
<path d="M431.5 19C436.194 19 440 14.9706 440 10C440 5.02944 436.194 1 431.5 1C426.806 1 423 5.02944 423 10C423 14.9706 426.806 19 431.5 19Z" fill="#5679E0"/>
<path d="M23.5 225C27.0899 225 30 222.314 30 219C30 215.686 27.0899 213 23.5 213C19.9101 213 17 215.686 17 219C17 222.314 19.9101 225 23.5 225Z" fill="#064EAD"/>
<path d="M37.5 39C39.9853 39 42 37.2091 42 35C42 32.7909 39.9853 31 37.5 31C35.0147 31 33 32.7909 33 35C33 37.2091 35.0147 39 37.5 39Z" fill="#5679E0"/>
<path d="M36.5 99C37.8807 99 39 97.8807 39 96.5C39 95.1193 37.8807 94 36.5 94C35.1193 94 34 95.1193 34 96.5C34 97.8807 35.1193 99 36.5 99Z" fill="#5679E0"/>
<path d="M91.5 472C97.299 472 102 467.299 102 461.5C102 455.701 97.299 451 91.5 451C85.701 451 81 455.701 81 461.5C81 467.299 85.701 472 91.5 472Z" fill="#00277D"/>
<path d="M525 344C529.418 344 533 339.971 533 335C533 330.029 529.418 326 525 326C520.582 326 517 330.029 517 335C517 339.971 520.582 344 525 344Z" fill="#00277D"/>
<path d="M205.5 14C208.538 14 211 11.0899 211 7.5C211 3.91015 208.538 1 205.5 1C202.462 1 200 3.91015 200 7.5C200 11.0899 202.462 14 205.5 14Z" fill="#00277D"/>
<path d="M482 473C484.209 473 486 471.209 486 469C486 466.791 484.209 465 482 465C479.791 465 478 466.791 478 469C478 471.209 479.791 473 482 473Z" fill="#00277D"/>
<path d="M167 34C167.552 34 168 33.3284 168 32.5C168 31.6716 167.552 31 167 31C166.448 31 166 31.6716 166 32.5C166 33.3284 166.448 34 167 34Z" fill="#00277D"/>
<path d="M34 374C40.0751 374 45 369.299 45 363.5C45 357.701 40.0751 353 34 353C27.9249 353 23 357.701 23 363.5C23 369.299 27.9249 374 34 374Z" fill="#064EAD"/>
<path d="M536.5 132C541.194 132 545 127.971 545 123C545 118.029 541.194 114 536.5 114C531.806 114 528 118.029 528 123C528 127.971 531.806 132 536.5 132Z" fill="#064EAD"/>
<path d="M363 493C366.314 493 369 490.09 369 486.5C369 482.91 366.314 480 363 480C359.686 480 357 482.91 357 486.5C357 490.09 359.686 493 363 493Z" fill="#064EAD"/>
<path d="M98 28C100.209 28 102 26.433 102 24.5C102 22.567 100.209 21 98 21C95.7909 21 94 22.567 94 24.5C94 26.433 95.7909 28 98 28Z" fill="#064EAD"/>
<path d="M529 207C529.552 207 530 206.105 530 205C530 203.895 529.552 203 529 203C528.448 203 528 203.895 528 205C528 206.105 528.448 207 529 207Z" fill="#064EAD"/>
<path opacity="0.3" d="M486.813 152C486.813 152 488.999 431 71 431H489L486.813 152Z" fill="#5679E0"/>
<path d="M279.5 74C274.262 74 270 69.7387 270 64.4994C270 59.2613 274.262 55 279.5 55C284.738 55 289 59.2613 289 64.4994C289 69.7387 284.738 74 279.5 74ZM279.5 62.7207C278.493 62.7207 277.674 63.5193 277.674 64.4994C277.674 65.4807 278.493 66.2793 279.5 66.2793C280.507 66.2793 281.326 65.4807 281.326 64.4994C281.326 63.5193 280.507 62.7207 279.5 62.7207Z" fill="#5679E0"/>
<path d="M168.5 293C186.449 293 201 278.225 201 260C201 241.775 186.449 227 168.5 227C150.551 227 136 241.775 136 260C136 278.225 150.551 293 168.5 293Z" fill="#5679E0"/>
<path d="M222.43 303.999C211.643 293 179.286 293 179.286 293H168.5H157.714C157.714 293 125.357 293 114.57 303.999C103.784 315 93 359 93 359H168.5H244C244 359 233.215 315 222.43 303.999Z" fill="#5679E0"/>
<path d="M493.251 152.829H64.7493C61.5745 152.829 59 150.255 59 147.079V55.7503C59 52.575 61.5745 50 64.7493 50H255.194C258.369 50 260.944 52.575 260.944 55.7503V80.6121H296.19V55.7503C296.19 52.575 298.764 50 301.94 50H493.251C496.427 50 499 52.575 499 55.7503V147.079C499 150.255 496.427 152.829 493.251 152.829ZM70.4986 141.329H487.501V61.5005H307.689V86.3623C307.689 89.5376 305.116 92.1126 301.94 92.1126H255.194C252.02 92.1126 249.445 89.5376 249.445 86.3623V61.5005H70.4986V141.329ZM243.941 365H92.0182C88.8434 365 86.2689 362.426 86.2689 359.25V205.75C86.2689 202.575 88.8434 200 92.0182 200H243.941C247.116 200 249.69 202.575 249.69 205.75V359.25C249.69 362.426 247.116 365 243.941 365ZM97.7675 353.499H238.192V211.5H97.7675V353.499Z" fill="#00277D"/>
<path d="M279.5 44C274.262 44 270 39.5147 270 34C270 28.4853 274.262 24 279.5 24C284.738 24 289 28.4853 289 34C289 39.5147 284.738 44 279.5 44ZM279.5 32.1277C278.493 32.1277 277.674 32.9683 277.674 34C277.674 35.0317 278.493 35.8723 279.5 35.8723C280.507 35.8723 281.326 35.0317 281.326 34C281.326 32.9683 280.507 32.1277 279.5 32.1277Z" fill="#5679E0"/>
<path d="M469.287 254H306.713C303.557 254 301 251.458 301 248.321V201.679C301 198.543 303.557 196 306.713 196H469.287C472.443 196 475 198.543 475 201.679V248.321C475 251.458 472.443 254 469.287 254ZM312.426 242.643H463.574V207.357H312.426V242.643Z" fill="#064EAD"/>
<path d="M469.287 285.914H306.714C303.558 285.914 301.001 283.328 301.001 280.137C301.001 276.946 303.558 274.36 306.714 274.36H469.287C472.443 274.36 475 276.946 475 280.137C475 283.328 472.443 285.914 469.287 285.914ZM469.287 325.457H306.714C303.558 325.457 301.001 322.871 301.001 319.679C301.001 316.488 303.558 313.902 306.714 313.902H469.287C472.443 313.902 475 316.488 475 319.679C475 322.871 472.443 325.457 469.287 325.457ZM399.611 365H306.713C303.557 365 301 362.414 301 359.223C301 356.032 303.557 353.446 306.713 353.446H399.611C402.767 353.446 405.324 356.032 405.324 359.223C405.324 362.414 402.767 365 399.611 365ZM353.163 230.554H329.938C326.782 230.554 324.225 227.968 324.225 224.777C324.225 221.586 326.782 219 329.938 219H353.163C356.319 219 358.876 221.586 358.876 224.777C358.876 227.968 356.319 230.554 353.163 230.554ZM399.611 230.554H376.387C373.232 230.554 370.674 227.968 370.674 224.777C370.674 221.586 373.232 219 376.387 219H399.611C402.767 219 405.324 221.586 405.324 224.777C405.324 227.968 402.767 230.554 399.611 230.554ZM446.063 230.554H422.838C419.682 230.554 417.125 227.968 417.125 224.777C417.125 221.586 419.682 219 422.838 219H446.063C449.219 219 451.776 221.586 451.776 224.777C451.776 227.968 449.218 230.554 446.063 230.554Z" fill="#5679E0"/>
<path d="M493.251 442H64.7493C61.5745 442 59 439.421 59 436.238V146.49C59 143.308 61.5745 140.728 64.7493 140.728H493.251C496.427 140.728 499 143.308 499 146.49V436.238C499 439.42 496.427 442 493.251 442ZM70.4986 430.475H487.501V152.253H70.4986V430.475ZM301.94 91.4079H255.194C252.02 91.4079 249.445 88.8275 249.445 85.6456V30.4272C249.445 14.2004 262.509 1 278.566 1C294.625 1 307.689 14.2016 307.689 30.4272V85.6456C307.689 88.8275 305.116 91.4079 301.94 91.4079ZM260.944 79.8832H296.19V30.4272C296.19 20.5563 288.284 12.5247 278.566 12.5247C268.849 12.5247 260.944 20.5563 260.944 30.4272V79.8832Z" fill="#00277D"/>
</svg>
