<svg width="302" height="333" viewBox="0 0 302 333" fill="none" xmlns="http://www.w3.org/2000/svg">
<path opacity="0.11" d="M169.963 332.72C235.565 332.72 288.745 329.109 288.745 324.654C288.745 320.198 235.565 316.587 169.963 316.587C104.362 316.587 51.1822 320.198 51.1822 324.654C51.1822 329.109 104.362 332.72 169.963 332.72Z" fill="#2A94F4"/>
<path opacity="0.11" d="M54.3429 322.489C54.3429 322.489 4.45479 313.239 0.240883 225.937C-3.97302 138.635 47.8665 97.5851 95.6618 115.681C111.952 121.848 129.005 105.278 107.625 80.0811C84.4625 52.7974 116.42 -26.0639 234.495 8.69488C324.514 35.2 295.016 104.624 263.143 155.329C234.183 201.363 297.42 187.659 293.093 268.576C288.144 361.484 54.3429 322.489 54.3429 322.489Z" fill="#2A94F4"/>
<path d="M125.251 188.048H61.8725L63.0886 107.692H124.346L125.251 188.048Z" fill="#F7F7F7"/>
<path d="M195.247 188.048H58.6202V198.201H195.247V188.048Z" fill="#606060"/>
<path d="M151.1 226.388H102.739V232.306H151.1V226.388Z" fill="#606060"/>
<path d="M58.6202 325.899L117.473 192.159L123.639 195.461L66.1995 325.931L58.6202 325.899Z" fill="#606060"/>
<path d="M195.219 325.899L136.365 192.159L130.228 195.461L187.639 325.931L195.219 325.899Z" fill="#606060"/>
<path d="M94.0566 172.195C107.349 172.195 118.124 161.276 118.124 147.808C118.124 134.339 107.349 123.42 94.0566 123.42C80.7645 123.42 69.9892 134.339 69.9892 147.808C69.9892 161.276 80.7645 172.195 94.0566 172.195Z" fill="#2A94F4"/>
<path d="M94.0566 147.807H118.124C118.124 152.947 116.512 157.961 113.542 162.104C110.573 166.277 106.359 169.36 101.551 170.949L94.0566 147.807Z" fill="#CCE9FF"/>
<path d="M94.0566 147.807L77.9928 129.65C82.4047 125.663 88.1175 123.42 94.0566 123.42C107.264 123.42 118.124 134.415 118.124 147.807C118.124 147.839 118.124 147.901 118.124 147.932L94.0566 147.807Z" fill="#0B4870"/>
<path d="M185.971 188.048H132.434L133.452 146.25H185.179L185.971 188.048Z" fill="#F7F7F7"/>
<path d="M152.797 158.522H146.971V183.065H152.797V158.522Z" fill="#0B4870"/>
<path d="M162.78 161.449H156.954V183.096H162.78V161.449Z" fill="#0B4870"/>
<path d="M172.735 155.407H166.909V183.065H172.735V155.407Z" fill="#FF8066"/>
<path d="M142.672 152.697H142.05V183.407H142.672V152.697Z" fill="#0B4870"/>
<path d="M180.937 183.065H142.05V183.592H180.937V183.065Z" fill="#0B4870"/>
<path d="M69.0277 174.686H66.9066V177.022H69.0277V174.686Z" fill="#0B4870"/>
<path d="M78.3887 175.496H70.2155V176.244H78.3887V175.496Z" fill="#0B4870"/>
<path d="M78.3887 179.514H70.2155V180.261H78.3887V179.514Z" fill="#0B4870"/>
<path d="M78.3887 183.563H70.2155V184.31H78.3887V183.563Z" fill="#0B4870"/>
<path d="M69.0277 178.735H66.9066V181.071H69.0277V178.735Z" fill="#2A94F4"/>
<path d="M69.0277 182.753H66.9066V185.089H69.0277V182.753Z" fill="#CCE9FF"/>
<path d="M222.058 66.9529L185.122 54.1831C191.203 32.7859 211.65 20.1407 231.419 25.5601C252.036 31.1975 264.762 54.5257 259.643 77.231C254.524 99.9363 233.342 113.952 212.725 108.315C208.454 107.162 204.41 105.2 200.733 102.521L222.058 66.9529Z" fill="#FF8066"/>
<path d="M212.442 71.1264L190.694 107.692C183.51 102.521 178.052 94.8907 175.111 86.0141C172.198 77.1064 171.971 67.4201 174.488 58.3566L212.442 71.1264Z" fill="#FF8066"/>
<path d="M236.085 171.323L228.958 165.529L284.898 81.9963C286.001 80.3456 288.123 79.9719 289.65 81.2177L291.318 82.5881C292.817 83.8028 293.157 86.1387 292.025 87.8206L236.085 171.323Z" fill="#F2F2F2"/>
<path d="M239.677 175.091L232.861 168.831L293.241 89.1287C294.429 87.5403 296.579 87.3222 298.021 88.6615L299.605 90.1254C301.047 91.4335 301.245 93.8006 300.029 95.389L239.677 175.091Z" fill="#F7F7F7"/>
<path d="M292.246 85.6978C292.633 85.0516 291.636 83.5756 290.02 82.401C288.403 81.2264 286.779 80.7979 286.392 81.4441C286.005 82.0902 287.002 83.5662 288.618 84.7408C290.235 85.9154 291.859 86.3439 292.246 85.6978Z" fill="#D3D3D3"/>
<path d="M300.317 93.3672C300.704 92.7211 299.707 91.2451 298.09 90.0705C296.474 88.8958 294.849 88.4674 294.462 89.1135C294.075 89.7596 295.072 91.2356 296.689 92.4102C298.305 93.5849 299.93 94.0133 300.317 93.3672Z" fill="#D3D3D3"/>
<path d="M260.661 310.14L261.595 316.524C261.962 319.078 260.605 321.539 258.371 322.349L248.416 325.962H271.635L268.835 310.14H260.661Z" fill="#FCD2B1"/>
<path d="M271.041 322.349L259.558 321.695C259.558 321.695 245.107 324.155 245.022 327.612H273.671L271.041 322.349Z" fill="#0E538C"/>
<path d="M199.008 310.14L196.633 318.144C196.124 319.888 194.851 321.259 193.267 321.85L181.983 325.962H205.202L208.482 310.14H199.008V310.14Z" fill="#FCD2B1"/>
<path d="M205.654 322.349L193.098 321.695C193.098 321.695 178.646 324.155 178.561 327.612H207.21L205.654 322.349Z" fill="#0E538C"/>
<path d="M257.55 162.477C257.55 162.477 263.207 166.62 264.847 182.504C266.487 198.388 264.197 209.912 265.498 219.194C266.798 228.475 269.344 312.818 269.344 312.818H257.013L236.453 162.571L257.55 162.477Z" fill="#FF8066"/>
<path d="M230.712 160.764H252.545C252.545 160.764 255.231 178.673 250.508 189.138C245.757 199.603 243.212 202.406 241.854 208.48C240.497 214.553 207.634 312.818 207.634 312.818H197.113L230.712 160.764Z" fill="#FF8066"/>
<path d="M262.189 110.308C262.189 110.308 284.135 144.755 281.618 154.068C279.101 163.38 253.902 153.071 253.902 153.071V147.278L271.154 149.676L258.06 125.009L262.189 110.308Z" fill="#FCD2B1"/>
<path d="M224.829 128.31C226.13 120.897 233.936 109.81 233.936 109.81H264.847L256.702 156.497C256.165 159.487 262.896 162.602 255.627 162.602H230.401C229.156 162.602 228.166 161.512 228.166 160.141V143.322C228.166 141.08 227.601 138.837 226.441 136.969C224.518 133.761 224.461 130.397 224.829 128.31Z" fill="#2A94F4"/>
<path d="M238.913 84.3946L236.142 91.6204C236.142 91.6204 234.501 96.9775 235.463 100.123C236.566 103.736 241.487 103.705 241.487 103.705L240.016 112.519H252.545V84.6438L238.913 84.3946Z" fill="#FFE3CA"/>
<path d="M239.62 87.3535C237.358 85.6716 236.933 82.2455 238.687 79.9407C241.147 76.7327 245.39 72.8706 251.413 73.3378C257.352 73.805 263.065 77.8228 263.207 87.1977C263.292 93.4581 264.706 97.7873 268.722 105.636C272.483 113.018 266.459 121.334 267.308 128.155C268.156 134.975 269.174 134.851 269.344 140.769C269.994 164.035 249.632 163.225 239.281 162.415C229.128 161.605 225.366 138.526 232.352 129.65C239.337 120.773 236.99 110.619 237.697 106.446C239.394 96.3235 243.749 94.3301 243.07 89.2534C241.798 88.8173 240.61 88.101 239.62 87.3535Z" fill="#0E538C"/>
<path d="M178.872 74.1476C178.815 67.1087 184.019 69.8806 184.302 71.2511C184.359 71.5314 184.981 71.7183 185.235 73.7739C185.49 75.7984 186.847 78.5703 187.102 77.854C187.611 76.4213 188.233 74.3345 188.686 74.8017C190.1 76.359 189.308 79.2867 188.601 81.0931C188.205 82.121 188.346 83.3045 188.968 84.1766L207.606 109.81H233.568C238.913 110.962 236.283 123.233 229.863 122.953C224.235 122.704 209.67 122.019 203.307 117.627C196.944 113.204 183.143 82.6816 183.143 82.6816C180.314 80.3145 178.872 74.7083 178.872 74.1476Z" fill="#FCD2B1"/>
</svg>
