<svg fill="white" xmlns="http://www.w3.org/2000/svg" viewBox="0 0 64 64"><path d="M51,27H33V22.3878a19.3771,19.3771,0,0,0,4.8652.6259,14.0426,14.0426,0,0,0,10.1875-3.961c6.2119-6.2109,3.293-15.2568,3.1651-15.6386a.9933.9933,0,0,0-.6319-.6319c-.3828-.1279-9.4277-3.0468-15.6386,3.1651A12.9588,12.9588,0,0,0,32,10.498a12.9588,12.9588,0,0,0-2.9473-4.5507c-6.21-6.2129-15.2558-3.293-15.6386-3.1651a.9933.9933,0,0,0-.6319.6319c-.1279.3818-3.0468,9.4277,3.1651,15.6386a14.0369,14.0369,0,0,0,10.1875,3.961A19.3774,19.3774,0,0,0,31,22.3878V27H13a2.0027,2.0027,0,0,0-2,2v4a2.0027,2.0027,0,0,0,2,2h.0715l1.7254,23.2959A4.0164,4.0164,0,0,0,18.7861,62H45.2139a4.0164,4.0164,0,0,0,3.9892-3.7041L50.9285,35H51a2.0027,2.0027,0,0,0,2-2V29A2.0027,2.0027,0,0,0,51,27ZM36.3613,7.3613c4.57-4.57,11.2442-3.2929,13.1-2.82.4766,1.8545,1.7647,8.5117-2.8222,13.0977-3.8747,3.8754-9.25,3.5451-11.931,3.0677L42.207,13.207a1,1,0,0,0-1.414-1.414L33.29,19.2959a17.8355,17.8355,0,0,1-.2807-3.1768c0-.0936,0-.1859-.0015-.281A12.03,12.03,0,0,1,36.3613,7.3613ZM30.7065,19.2925l-7.4995-7.5a1,1,0,0,0-1.414,1.414L29.2955,20.71c-2.676.482-8.0442.8191-11.9342-3.0709-4.57-4.57-3.2929-11.2432-2.82-13.1,1.8555-.4756,8.5108-1.7647,13.0977,2.8222C31.5135,11.2362,31.1843,16.6116,30.7065,19.2925ZM47.209,58.1475A2.0084,2.0084,0,0,1,45.2139,60H18.7861a2.0084,2.0084,0,0,1-1.9951-1.8525L15.0771,35H48.9229ZM50,33H13V29H51l.002,4Z"/></svg>