<svg width="62" height="66" viewBox="0 0 62 66" fill="none" xmlns="http://www.w3.org/2000/svg">
<path d="M6.97492 27.7201C7.70081 26.7924 8.60913 26.0456 9.63578 25.5324C10.6624 25.0192 11.7824 24.7522 12.9166 24.7501H24.6966L23.2499 20.8176C22.6482 19.0958 22.4478 17.2443 22.6659 15.4219C22.8841 13.5995 23.5142 11.8607 24.5024 10.3545C25.4905 8.84834 26.8071 7.61981 28.3392 6.77432C29.8714 5.92882 31.5733 5.49159 33.2991 5.50012C33.796 5.50123 34.2821 5.65488 34.6991 5.94266C35.116 6.23044 35.4462 6.64013 35.6499 7.12262L43.0124 24.7501H49.0833C51.1387 24.7501 53.1099 25.6193 54.5633 27.1665C56.0167 28.7137 56.8333 30.8121 56.8333 33.0001V52.2501C56.8333 54.4382 56.0167 56.5366 54.5633 58.0837C53.1099 59.6309 51.1387 60.5001 49.0833 60.5001H16.1974C14.3844 60.4995 12.629 59.8222 11.2366 58.5862C9.84418 57.3501 8.90292 55.6336 8.57658 53.7351L5.29575 34.4851C5.09283 33.2954 5.13805 32.0728 5.42822 30.9037C5.7184 29.7347 6.24642 28.6478 6.97492 27.7201ZM43.9166 55.0001H49.0833C49.7684 55.0001 50.4255 54.7104 50.9099 54.1947C51.3944 53.6789 51.6666 52.9795 51.6666 52.2501V33.0001C51.6666 32.2708 51.3944 31.5713 50.9099 31.0556C50.4255 30.5399 49.7684 30.2501 49.0833 30.2501H43.9166V55.0001ZM10.3332 33.4951L13.6141 52.7451C13.7241 53.3857 14.0442 53.964 14.5172 54.377C14.9903 54.7899 15.5857 55.0107 16.1974 55.0001H38.7499V28.0776L31.7232 11.2476C31 11.4721 30.3282 11.8537 29.7505 12.3685C29.1727 12.8832 28.7015 13.5199 28.3665 14.2382C28.0315 14.9566 27.84 15.7411 27.8042 16.5422C27.7684 17.3433 27.8889 18.1436 28.1582 18.8926L29.5274 22.8251C29.8192 23.6563 29.9177 24.5503 29.8145 25.4308C29.7113 26.3113 29.4096 27.1522 28.935 27.8817C28.4604 28.6111 27.827 29.2075 27.089 29.6199C26.351 30.0324 25.5301 30.2486 24.6966 30.2501H12.9166C12.5371 30.2495 12.1621 30.3378 11.8183 30.5089C11.4745 30.68 11.1703 30.9297 10.9274 31.2401C10.6786 31.5463 10.4963 31.9071 10.3936 32.2969C10.2908 32.6867 10.2703 33.0959 10.3332 33.4951Z" fill="white"/>
</svg>
