<svg width="53" height="55" viewBox="0 0 53 55" fill="none" xmlns="http://www.w3.org/2000/svg">
<path d="M26.5 4.58337C21.8161 4.58883 17.3256 6.52213 14.0136 9.95911C10.7016 13.3961 8.83857 18.0561 8.83331 22.9167C8.83331 30.3761 14.0516 36.5705 19.5791 43.1269C21.3281 45.2032 23.1389 47.3505 24.751 49.523C24.9573 49.8007 25.2222 50.0256 25.5255 50.1803C25.8287 50.335 26.1621 50.4155 26.5 50.4155C26.8379 50.4155 27.1713 50.335 27.4745 50.1803C27.7777 50.0256 28.0427 49.8007 28.249 49.523C29.8611 47.3505 31.6719 45.2032 33.4209 43.1269C38.9484 36.5705 44.1666 30.3761 44.1666 22.9167C44.1614 18.0561 42.2984 13.3961 38.9864 9.95911C35.6744 6.52213 31.1839 4.58883 26.5 4.58337ZM26.5 29.7917C25.1897 29.7917 23.9088 29.3885 22.8193 28.6331C21.7299 27.8776 20.8807 26.8039 20.3793 25.5477C19.8778 24.2914 19.7466 22.9091 20.0023 21.5755C20.2579 20.2418 20.8889 19.0168 21.8154 18.0553C22.7419 17.0939 23.9224 16.4391 25.2075 16.1738C26.4926 15.9085 27.8247 16.0447 29.0353 16.565C30.2458 17.0854 31.2805 17.9666 32.0085 19.0972C32.7364 20.2277 33.125 21.557 33.125 22.9167C33.125 24.7401 32.427 26.4888 31.1846 27.7781C29.9421 29.0674 28.257 29.7917 26.5 29.7917Z" fill="#074EAD"/>
</svg>
