<svg id="SvgjsSvg1001" width="288" height="288" xmlns="http://www.w3.org/2000/svg" version="1.1" xmlns:xlink="http://www.w3.org/1999/xlink" xmlns:svgjs="http://svgjs.com/svgjs"><defs id="SvgjsDefs1002"></defs><g id="SvgjsG1008" transform="matrix(1,0,0,1,0,0)"><svg xmlns="http://www.w3.org/2000/svg" width="288" height="288" viewBox="0 0 16 16"><g transform="translate(0 -1036.362)" fill="#ffffff" class="color000 svgShape"><path fill="#ffffff" d="m 7.9993969,1037.8631 c -2.2243797,0 -4.2296411,1.3366 -5.0808725,3.3882 -0.8512314,2.0515 -0.3795668,4.413 1.193307,5.9831 l 3.4564922,3.4529 c 0.2390225,0.2388 0.6250804,0.2388 0.864113,0 l 3.4564924,-3.4529 c 1.572874,-1.5701 2.042562,-3.9316 1.19135,-5.9831 -0.851231,-2.0516 -2.856492,-3.3882 -5.0808821,-3.3882 z m 0.017657,3.0082 c 1.3847558,0 2.508107,1.1209 2.508107,2.505 0,1.3841 -1.1233512,2.5068 -2.508107,2.5068 -1.3847458,0 -2.5061404,-1.1227 -2.5061404,-2.5068 0,-1.3841 1.1213946,-2.505 2.5061404,-2.505 z" class="colore65050 svgShape"></path><path style="line-height:normal;text-indent:0;text-align:start;text-decoration-line:none;text-decoration-style:solid;text-decoration-color:#000;text-transform:none;block-progression:tb;white-space:normal;isolation:auto;mix-blend-mode:normal;solid-color:#000;solid-opacity:1" d="m 8,1037.3613 c -2.4251273,0 -4.6145717,1.4617 -5.5429688,3.6992 -0.9284051,2.2375 -0.4144088,4.8171 1.3007813,6.5293 l 3.4570313,3.4512 c 0.4291817,0.4288 1.1411284,0.4288 1.5703124,0 l 3.4570318,-3.4512 a 0.5008374,0.5008374 0 0 0 0.08984,-0.121 c 1.628855,-1.7114 2.119628,-4.2182 1.210938,-6.4083 C 12.614571,1038.823 10.425128,1037.3613 8,1037.3613 Z m 0,1.002 c 2.023636,0 3.84508,1.2144 4.619141,3.0801 0.774046,1.8655 0.346556,4.0094 -1.083985,5.4375 l -3.457031,3.4511 c -0.048884,0.049 -0.1073713,0.049 -0.15625,0 l -3.4570312,-3.4511 c -1.4305569,-1.4282 -1.8580521,-3.572 -1.0839844,-5.4375 0.7740603,-1.8657 2.5955051,-3.0801 4.6191406,-3.0801 z" color="#000" enable-background="accumulate" font-family="sans-serif" font-weight="400" overflow="visible" fill="#ffffff" class="color000 svgShape"></path><path style="line-height:normal;text-indent:0;text-align:start;text-decoration-line:none;text-decoration-style:solid;text-decoration-color:#000;text-transform:none;block-progression:tb;white-space:normal;isolation:auto;mix-blend-mode:normal;solid-color:#000;solid-opacity:1" d="m 8.0175781,1040.3711 c -1.6552614,0 -3.0078125,1.351 -3.0078125,3.0059 0,1.6548 1.3525752,3.0078 3.0078125,3.0078 1.6552374,0 3.0078129,-1.353 3.0078129,-3.0078 0,-1.6549 -1.3525514,-3.0059 -3.0078129,-3.0059 z m 0,1 c 1.1142419,0 2.0058599,0.8925 2.0058599,2.0059 0,1.1133 -0.8915939,2.0058 -2.0058599,2.0058 -1.1142659,0 -2.0058593,-0.8925 -2.0058593,-2.0058 0,-1.1134 0.8916176,-2.0059 2.0058593,-2.0059 z" color="#000" enable-background="accumulate" font-family="sans-serif" font-weight="400" overflow="visible" fill="#ffffff" class="color000 svgShape"></path></g></svg></g></svg>