<svg fill="#074EAD" xmlns="http://www.w3.org/2000/svg" width="550" height="550" enable-background="new 0 0 550 550" viewBox="0 0 550 550"><path d="M159.285 353.058c0 5.938 4.831 10.77 10.769 10.77 5.938 0 10.771-4.831 10.771-10.77s-4.832-10.77-10.771-10.77C164.116 342.289 159.285 347.12 159.285 353.058zM177.192 380.449c0 5.938 4.831 10.77 10.769 10.77 5.938 0 10.771-4.831 10.771-10.77s-4.832-10.77-10.771-10.77C182.023 369.679 177.192 374.51 177.192 380.449z"/><path d="M521.055,95.975l-6.956-31.754c-0.409-1.868-1.346-3.58-2.697-4.931l-44.33-44.331c-3.66-3.66-8.525-5.676-13.701-5.676
		c-5.177,0-10.042,2.016-13.701,5.675L165.116,289.511L31.717,422.91c-3.306,3.306-3.88,8.461-1.382,12.414l16.748,26.502
		c1.623,2.569,4.326,4.26,7.347,4.596c3.012,0.336,6.028-0.719,8.178-2.867l15.226-15.226l56.083,88.314
		c1.627,2.562,4.329,4.247,7.346,4.579c0.366,0.04,0.732,0.06,1.097,0.06c2.637,0,5.185-1.043,7.07-2.929l81.267-81.269
		c1.849-1.849,2.899-4.348,2.928-6.963l0.404-37.505l8.839,13.918c1.848,2.91,5.045,4.639,8.439,4.639
		c0.381,0,0.766-0.021,1.15-0.066l32.052-3.705c2.809-0.324,5.349-1.823,6.991-4.124s2.234-5.19,1.628-7.952l-4.592-20.941
		l21.295-2.463c2.808-0.325,5.348-1.823,6.99-4.124c1.643-2.301,2.233-5.19,1.628-7.951l-4.592-20.943l21.301-2.466
		c2.808-0.325,5.348-1.824,6.989-4.125c1.643-2.301,2.233-5.19,1.628-7.951l-4.592-20.941l21.294-2.463
		c2.809-0.325,5.349-1.823,6.991-4.125c1.643-2.301,2.233-5.19,1.628-7.952l-4.593-20.938l21.297-2.462
		c2.809-0.325,5.349-1.823,6.991-4.124s2.234-5.19,1.628-7.952l-4.593-20.941l21.298-2.465c2.808-0.325,5.347-1.824,6.989-4.125
		c1.643-2.301,2.233-5.19,1.628-7.951l-4.592-20.941l21.298-2.464c2.809-0.325,5.348-1.823,6.99-4.124
		c1.642-2.301,2.233-5.189,1.628-7.951l-4.591-20.945l21.301-2.467c2.809-0.325,5.348-1.824,6.989-4.125
		c1.643-2.301,2.233-5.19,1.628-7.951l-4.593-20.941l21.303-2.468c2.809-0.325,5.348-1.824,6.989-4.125s2.233-5.189,1.629-7.95
		l-4.592-20.952l21.309-2.471c2.808-0.326,5.347-1.824,6.988-4.125C521.067,101.624,521.659,98.736,521.055,95.975z
		 M213.669,445.827l-69.56,69.561l-56.082-88.314c-1.627-2.562-4.329-4.247-7.346-4.579c-0.366-0.04-0.731-0.06-1.097-0.06
		c-2.637,0-5.185,1.043-7.07,2.929l-15.206,15.206l-5.796-9.171l118.922-118.922l43.927,69.175L213.669,445.827z M477.842,91.925
		c-2.808,0.326-5.347,1.824-6.988,4.125c-1.642,2.3-2.233,5.188-1.629,7.949l4.592,20.951l-21.305,2.468
		c-2.809,0.325-5.348,1.824-6.99,4.125c-1.642,2.301-2.232,5.19-1.627,7.951l4.593,20.94l-21.3,2.467
		c-2.809,0.325-5.348,1.824-6.989,4.125c-1.643,2.301-2.233,5.189-1.628,7.951l4.591,20.943l-21.299,2.464
		c-2.809,0.325-5.348,1.823-6.99,4.125c-1.643,2.301-2.233,5.189-1.628,7.951l4.593,20.942l-21.299,2.465
		c-2.808,0.325-5.348,1.824-6.989,4.125c-1.643,2.301-2.233,5.19-1.628,7.951l4.593,20.939l-21.297,2.462
		c-2.809,0.325-5.349,1.823-6.991,4.125s-2.233,5.19-1.628,7.952l4.593,20.938l-21.294,2.463c-2.809,0.325-5.349,1.823-6.991,4.124
		s-2.233,5.19-1.628,7.952l4.593,20.942l-21.301,2.466c-2.808,0.325-5.348,1.824-6.989,4.125c-1.643,2.301-2.233,5.189-1.628,7.951
		l4.592,20.942l-21.296,2.463c-2.808,0.325-5.348,1.823-6.99,4.125c-1.643,2.301-2.233,5.19-1.628,7.951l4.592,20.94l-14.834,1.715
		l-71.463-112.534L453.37,29.542l41.818,41.819l3.964,18.094L477.842,91.925z"/><path d="M145.141,375.106c-1.623-2.569-4.326-4.26-7.347-4.596c-3.022-0.339-6.028,0.718-8.178,2.868l-23.354,23.355
		c-3.306,3.306-3.88,8.461-1.382,12.413l41.751,66.067c1.623,2.569,4.326,4.26,7.347,4.596c0.369,0.041,0.739,0.062,1.107,0.062
		c2.637,0,5.185-1.043,7.07-2.929l23.355-23.354c3.306-3.306,3.88-8.461,1.382-12.414L145.141,375.106z M156.857,453.957
		l-30.799-48.736l8.857-8.858l30.799,48.736L156.857,453.957z"/></svg>