<svg fill="#9098B1" width="45" height="45" viewBox="0 0 45 45" xmlns="http://www.w3.org/2000/svg">
<path d="M22.5 13.125C23.2417 13.125 23.9667 12.9051 24.5834 12.493C25.2001 12.081 25.6807 11.4953 25.9646 10.8101C26.2484 10.1248 26.3226 9.37084 26.178 8.64341C26.0333 7.91598 25.6761 7.2478 25.1517 6.72335C24.6272 6.1989 23.959 5.84175 23.2316 5.69706C22.5042 5.55236 21.7502 5.62662 21.0649 5.91045C20.3797 6.19428 19.794 6.67493 19.382 7.29161C18.9699 7.9083 18.75 8.63332 18.75 9.375C18.75 10.3696 19.1451 11.3234 19.8484 12.0267C20.5516 12.7299 21.5054 13.125 22.5 13.125ZM22.5 31.875C21.7583 31.875 21.0333 32.0949 20.4166 32.507C19.7999 32.919 19.3193 33.5047 19.0355 34.1899C18.7516 34.8752 18.6774 35.6292 18.8221 36.3566C18.9668 37.084 19.3239 37.7522 19.8484 38.2766C20.3728 38.8011 21.041 39.1582 21.7684 39.3029C22.4958 39.4476 23.2498 39.3734 23.9351 39.0895C24.6203 38.8057 25.206 38.3251 25.618 37.7084C26.0301 37.0917 26.25 36.3667 26.25 35.625C26.25 34.6304 25.8549 33.6766 25.1517 32.9733C24.4484 32.2701 23.4946 31.875 22.5 31.875ZM22.5 18.75C21.7583 18.75 21.0333 18.9699 20.4166 19.382C19.7999 19.794 19.3193 20.3797 19.0355 21.0649C18.7516 21.7502 18.6774 22.5042 18.8221 23.2316C18.9668 23.959 19.3239 24.6272 19.8484 25.1516C20.3728 25.6761 21.041 26.0332 21.7684 26.1779C22.4958 26.3226 23.2498 26.2484 23.9351 25.9645C24.6203 25.6807 25.206 25.2001 25.618 24.5834C26.0301 23.9667 26.25 23.2417 26.25 22.5C26.25 21.5054 25.8549 20.5516 25.1517 19.8484C24.4484 19.1451 23.4946 18.75 22.5 18.75Z"/>
</svg>
