<svg width="200" height="200" viewBox="0 0 200 200" fill="none" xmlns="http://www.w3.org/2000/svg">
<path d="M96.2479 95.78C112.474 93.4748 123.791 78.7563 121.526 62.9053C119.26 47.0544 104.27 36.0734 88.0435 38.3786C71.8174 40.6839 60.5002 55.4024 62.7658 71.2533C65.0313 87.1043 80.0218 98.0852 96.2479 95.78Z" fill="#DC952D"/>
<path d="M98.857 95.5047C115.083 93.1995 126.4 78.481 124.135 62.63C121.869 46.7791 106.879 35.7981 90.6526 38.1033C74.4265 40.4086 63.1093 55.1271 65.3749 70.978C67.6405 86.829 82.6309 97.81 98.857 95.5047Z" fill="#FCC84E"/>
<path d="M65.3064 69.9701C77.9198 59.613 90.5331 49.2713 103.162 38.9142C104.973 39.4496 107.121 40.2605 109.407 41.4996C110.727 42.2187 111.878 42.9683 112.875 43.7026L68.7897 80.5414C68.7897 80.5414 65.5519 76.9921 65.3064 69.9701Z" fill="#FEF04F"/>
<path d="M78.7175 91.2809C93.203 79.3634 107.688 67.4306 122.158 55.5131C122.772 56.997 123.371 58.7869 123.8 60.8369C124.015 61.8925 124.169 62.9022 124.276 63.8354C111.893 74.1772 99.5096 84.5343 87.1264 94.8761C86.1751 94.6466 85.1316 94.3253 84.0421 93.9276C81.9092 93.132 80.1446 92.1835 78.7175 91.2809Z" fill="#F59E1B"/>
<path d="M94.9829 89.2003C107.288 89.2003 117.263 79.255 117.263 66.9868C117.263 54.7187 107.288 44.7734 94.9829 44.7734C82.6777 44.7734 72.7024 54.7187 72.7024 66.9868C72.7024 79.255 82.6777 89.2003 94.9829 89.2003Z" fill="#D2753F"/>
<path d="M99.2384 88.0403C110.884 86.3858 118.976 75.6125 117.313 63.9773C115.65 52.3421 104.861 44.2511 93.2161 45.9055C81.5709 47.5599 73.4788 58.3333 75.1418 69.9685C76.8048 81.6037 87.5932 89.6947 99.2384 88.0403Z" fill="#FDAA40"/>
<path d="M94.8602 57.6854C94.8602 57.6854 96.8244 58.2514 97.8985 58.9093C98.9726 59.5671 101.013 58.894 100.553 56.9205C100.093 54.947 98.0673 54.2126 96.7937 53.9679C95.5201 53.7231 94.9216 53.7231 94.9216 53.7231L94.5687 53.6466L94.2158 51.2294C94.2158 51.2294 93.5406 50.6481 92.2823 50.5257C91.0241 50.4033 90.4716 51.8414 90.4716 51.8414L90.932 54.5033C90.932 54.5033 84.702 56.2779 85.6381 61.9384C86.5741 67.5988 92.0982 67.3693 92.0982 67.3693C92.0982 67.3693 99.6018 66.1302 100.384 70.6585C101.167 75.1869 97.1773 76.8544 95.3206 76.4872C93.4639 76.1201 91.4537 76.319 89.9499 73.5958C88.4461 70.8727 86.1444 73.5805 86.1291 74.1007C86.1137 74.6208 87.771 78.4149 90.487 79.7764C90.487 79.7764 91.8987 80.4189 92.9728 80.4495C94.047 80.4648 94.3692 80.3425 94.3692 80.3425L94.8296 83.2186C94.8296 83.2186 95.1058 83.6469 96.6249 83.8152C98.144 83.9835 98.7271 82.7137 98.7271 82.7137L98.3435 79.6999C98.3435 79.6999 103.085 79.0727 104.543 72.3413C106.001 65.61 98.635 63.2693 95.7963 63.407C92.9575 63.56 89.7044 64.4473 89.7504 60.5156C89.7658 59.9496 91.2696 57.3029 94.8602 57.6854Z" fill="#D2753F"/>
<path d="M96.3334 57.5477C96.3334 57.5477 98.2975 58.1137 99.3717 58.7716C100.446 59.4294 102.487 58.7563 102.026 56.7828C101.566 54.8093 99.5404 54.0749 98.2668 53.8302C96.9932 53.5854 96.3948 53.5854 96.3948 53.5854L96.0418 53.5089L95.6889 51.0917C95.6889 51.0917 95.0137 50.5104 93.7555 50.388C92.4972 50.2656 91.9448 51.7037 91.9448 51.7037L92.4051 54.3656C92.4051 54.3656 86.1752 56.1402 87.1112 61.8007C88.0472 67.4611 93.5713 67.2316 93.5713 67.2316C93.5713 67.2316 101.075 65.9925 101.858 70.5208C102.64 75.0492 98.6505 76.7167 96.7937 76.3495C94.937 75.9824 92.9269 76.1813 91.4231 73.4581C89.9193 70.735 87.6176 73.4428 87.6022 73.963C87.5869 74.4831 89.2441 78.2772 91.9601 79.6387C91.9601 79.6387 93.3719 80.2813 94.446 80.3119C95.5201 80.3272 95.8424 80.2048 95.8424 80.2048L96.3027 83.0809C96.3027 83.0809 96.5789 83.5092 98.098 83.6775C99.6172 83.8458 100.2 82.576 100.2 82.576L99.8167 79.5622C99.8167 79.5622 104.558 78.935 106.016 72.2037C107.489 65.4876 100.108 63.1316 97.2694 63.2693C94.4306 63.4223 91.1776 64.3096 91.2236 60.3779C91.2236 59.8119 92.7274 57.1652 96.3334 57.5477Z" fill="#FECB51"/>
<path d="M115.1 169.028L116.189 174.214L116.496 176.891L121.775 176.555C121.775 176.555 121.238 169.762 120.701 168.171C120.164 166.58 115.1 169.028 115.1 169.028Z" fill="#6D3500"/>
<path d="M154.567 162.189L158.924 162.954L158.863 168.508L151.513 167.666L152.879 162.954L153.078 161.868L154.567 162.189Z" fill="#6D3500"/>
<path d="M115.959 40.3368C116.097 42.3103 116.251 44.2838 116.389 46.2573C116.803 46.8998 117.217 47.5424 117.647 48.1849C120.578 48.0319 123.509 47.8942 126.424 47.7413L126.256 47.2823L123.248 38.9293L115.959 40.3368Z" fill="#6D3500"/>
<path d="M116.88 46.6857C116.88 46.6857 118.154 46.8692 119.995 47.1905C121.836 47.5118 123.662 47.4506 124.291 47.3282C124.921 47.2058 126.21 47.0069 126.21 47.0069L126.44 47.7413C126.44 47.7413 119.703 48.0625 119.535 48.0625C119.366 48.0625 117.755 47.4812 117.755 47.4812L116.88 46.6857Z" fill="#6D3500"/>
<path d="M116.404 46.2574C116.358 46.3645 116.312 46.5022 116.328 46.6858C116.374 47.1754 116.895 47.4966 117.049 47.5884C117.11 47.6343 117.77 48.4757 119.09 50.1433C119.09 50.1433 120.363 51.7649 121.698 54.8093C122.972 57.716 124.491 64.6309 124 73.5652C123.877 75.86 123.187 84.8708 119.442 93.6063C118.767 95.182 118.169 96.3906 117.77 97.1708C115.775 101.133 111.555 108.339 111.555 108.339C111.555 108.339 112.522 110.71 121.959 109.7C131.396 108.691 133.253 106.335 133.253 106.335L133.345 105.967L132.286 76.5637L126.67 47.3436C125.565 47.6343 123.892 47.9403 121.852 47.7873C119.381 47.6037 117.509 46.8082 116.404 46.2574Z" fill="white"/>
<path d="M110.236 98.211C110.236 98.211 91.4844 127.661 90.6711 134.53C89.8578 141.399 92.712 143.081 93.9395 144.351C95.1671 145.621 115.008 170.726 115.008 170.726C115.008 170.726 118.2 171.292 120.517 170.726C122.834 170.16 123.171 168.966 123.171 168.966C123.171 168.966 107.612 140.771 107.243 136.886C106.829 132.678 116.926 117.839 116.926 117.839C116.926 117.839 122.941 148.237 123.34 150.134C123.739 152.031 151.82 170.435 151.82 170.435C151.82 170.435 153.661 169.318 155.426 166.152C157.191 163 157.191 160.537 157.191 160.537L134.757 144.29C134.757 144.29 138.025 121.296 138.025 112.729C138.025 112.729 137.887 109.44 137.687 108.247C137.488 107.054 126.547 99.6185 118.997 97.8744C111.448 96.1151 110.236 98.211 110.236 98.211Z" fill="#6A74EF"/>
<path d="M120.425 19.0873C120.225 18.7813 114.287 23.6156 112.322 29.0007C110.358 34.3858 111.601 38.5469 114.486 39.7555C117.371 40.9641 120.747 40.1227 121.821 39.6331C122.91 39.1436 125.672 37.7667 125.795 37.4149C125.918 37.0477 126.992 37.8126 128.634 36.604C130.276 35.3955 130.199 34.0492 129.11 32.5652L128.465 31.7085C128.465 31.7085 130.153 27.7309 130.245 26.3541C130.337 24.9925 129.432 24.5947 128.435 24.2582C127.468 23.9216 123.141 23.432 120.425 19.0873Z" fill="#6D3500"/>
<path d="M119.703 18.7812C119.703 18.7812 119.458 19.4544 120.102 20.5559C120.747 21.6574 122.711 23.4014 124.43 23.9827C126.148 24.5641 128.941 24.5947 129.048 25.5585C129.156 26.5223 128.695 28.5876 128.542 29.0924C128.373 29.5973 128.542 31.2648 128.542 31.2648C128.542 31.2648 130.613 27.5932 130.613 27.1648C130.613 26.7365 131.074 24.9159 129.57 24.0286C128.066 23.1413 125.304 22.8506 125.197 22.7895C125.074 22.7436 119.703 18.7812 119.703 18.7812Z" fill="#6D3500"/>
<path d="M121.621 10.6425C121.621 10.6425 118.921 12.7384 118.675 16.2265C118.445 19.7145 122.788 22.5448 124.353 23.1414C125.918 23.7533 128.588 24.3194 128.588 24.3194C128.588 24.3194 130 25.0537 129.769 26.7518C129.539 28.45 128.174 31.6168 128.174 31.6168C128.174 31.6168 130.184 33.2996 129.386 35.3037C128.588 37.3078 126.209 37.369 125.688 37.1854C125.688 37.1854 124.215 38.2563 123.724 38.5164C123.724 38.5164 124.675 40.0309 129.693 38.5776C134.71 37.1242 136.782 32.4582 137.304 31.0048C137.825 29.5515 138.27 25.1149 135.739 22.606C133.207 20.097 131.473 20.5713 131.764 16.8384C132.056 13.1056 129.171 13.1362 129.002 13.1362C128.833 13.1362 125.227 13.8246 125.227 13.8246C125.227 13.8246 123.908 13.0138 123.478 11.6981C123.048 10.3825 122.266 10 122.266 10L121.621 10.6425Z" fill="#4F2926"/>
<path d="M129.371 102.143C129.371 102.143 128.834 109.486 131.58 113.387C134.327 117.304 137.488 117.135 137.488 117.135C137.488 117.135 138.455 108.889 137.104 106.641C135.754 104.392 129.094 101.974 129.094 101.974L129.371 102.143Z" stroke="#5670C4" stroke-width="3" stroke-miterlimit="10"/>
<path d="M126.654 47.3436C126.654 47.3436 132.225 45.6302 136.859 50.3727C141.477 55.0999 146.679 62.3667 148.92 73.7794C151.16 85.1921 149.088 94.8913 146.511 98.8995C143.917 102.908 140.864 106.059 138.516 107.696C136.168 109.333 136.168 109.333 136.168 109.333C136.168 109.333 132.47 106.304 131.642 100.23C130.813 94.157 132.286 91.1279 132.286 91.1279L126.44 47.7414C126.44 47.7414 126.378 47.313 126.654 47.3436Z" fill="#5670C4"/>
<path d="M127.667 86.7678C128.296 86.5689 133.866 85.4368 137.58 81.138C141.293 76.8391 142.398 66.0078 141.416 60.5921C140.434 55.1764 138.516 51.413 135.892 49.5466C133.268 47.6802 127.667 86.7678 127.667 86.7678Z" fill="#C92615"/>
<path d="M105.985 92.5812C105.893 92.6424 103.637 94.1264 102.64 93.9734C101.643 93.8204 98.5584 92.0611 97.1467 92.7036C95.7349 93.3461 95.5355 94.9525 96.8551 95.7939C98.1747 96.6506 99.1261 96.7883 99.1261 96.7883C99.1261 96.7883 95.827 98.5782 95.2746 98.4252C94.7222 98.2722 94.0163 97.6909 93.4179 97.9663C92.8348 98.2416 91.6225 102.877 95.1518 104.759C98.6811 106.641 101.796 106.977 104.451 106.09C107.09 105.202 109.683 104.453 111.064 103.336C112.445 102.219 112.568 101.607 112.568 101.607L112.476 100.965L105.985 92.5812Z" fill="#6D3500"/>
<path d="M109.33 95.5033C109.269 95.6716 110.144 101.347 107.335 103.168C104.543 104.988 101.259 105.845 99.97 105.906C98.6811 105.967 96.1031 105.264 96.1031 105.264C96.1031 105.264 100.062 107.329 104.573 105.998C104.573 105.998 108.318 105.08 110.573 103.673C112.829 102.265 112.829 100.934 112.829 100.934L109.33 95.5033Z" fill="#6D3500"/>
<path d="M128.941 47.16C128.941 47.16 124.798 48.8887 124.261 56.4462C123.739 64.0036 124.092 71.9282 123.033 74.7126C121.974 77.4969 105.448 90.9749 105.448 90.9749C105.448 90.9749 105.51 94.9831 109.1 98.4405C112.691 101.898 112.568 101.286 112.568 101.286C112.568 101.286 131.335 91.2196 132.823 89.8428C137.089 85.957 137.35 80.6178 138.378 76.1812C139.544 71.1786 140.726 62.8715 138.716 52.3615C137.687 51.107 136.705 50.1891 135.953 49.5619C134.711 48.5369 133.606 47.8637 132.516 47.3742C131.028 46.7163 130.122 46.6246 129.355 46.9305C129.171 47.0223 129.033 47.0988 128.941 47.16Z" fill="#F0512A"/>
<path d="M114.317 33.0242C115.385 33.0242 116.251 32.1544 116.251 31.0813C116.251 30.0083 115.385 29.1384 114.317 29.1384C113.25 29.1384 112.384 30.0083 112.384 31.0813C112.384 32.1544 113.25 33.0242 114.317 33.0242Z" fill="#6D3500"/>
<path d="M122.696 37.3078C123.763 37.3078 124.629 36.4379 124.629 35.3649C124.629 34.2919 123.763 33.422 122.696 33.422C121.628 33.422 120.762 34.2919 120.762 35.3649C120.762 36.4379 121.628 37.3078 122.696 37.3078Z" fill="#6D3500"/>
<path d="M158.173 162.296C157.774 162.327 158.034 167.773 158.034 167.773L155.318 167.85C155.318 167.85 154.981 168.691 155.257 169.67C155.533 170.649 157.497 173.525 157.497 173.525C157.497 173.525 157.436 181.725 157.835 182.567C158.234 183.408 160.075 181.297 161.165 178.926C162.254 176.539 164.326 168.232 164.74 166.412C165.154 164.591 165.154 163.964 165.154 163.964C165.154 163.964 165.354 161.623 158.173 162.296ZM116.097 173.174C116.097 173.174 117.264 176.065 118.338 176.065C119.412 176.065 121.545 173.801 121.545 173.801C121.545 173.801 122.511 173.48 122.665 173.847C122.818 174.214 122.972 182.215 122.972 182.215C122.972 182.215 114.716 181.787 110.942 181.741C107.167 181.695 104.926 180.853 104.619 180.211C104.313 179.584 104.773 178.849 105.279 178.849C105.786 178.849 110.067 178.192 110.957 177.931C111.847 177.671 115.668 172.959 115.668 172.959L116.097 173.174Z" fill="#F0512A"/>
<path d="M115.959 40.2604C115.959 40.2604 118.276 40.138 119.458 39.7555C120.639 39.373 121.698 38.807 121.698 38.807C121.698 38.807 121.468 40.4133 119.182 41.1936C116.895 41.9738 116.113 41.9279 116.113 41.9279L115.959 40.3369V40.2604Z" fill="#6D3500"/>
<path d="M127.222 32.963C127.222 32.963 128.342 33.7279 128.22 34.5846C128.097 35.4414 127.621 35.7932 127.192 35.5331C126.762 35.2731 126.394 34.6152 126.593 34.3858C126.793 34.1563 127.514 33.7891 127.591 34.294C127.652 34.7835 127.207 34.7223 127.207 34.7223" stroke="#6D3500" stroke-miterlimit="10"/>
<path d="M114.118 176.325C114.431 176.325 114.686 176.12 114.686 175.866C114.686 175.613 114.431 175.407 114.118 175.407C113.804 175.407 113.55 175.613 113.55 175.866C113.55 176.12 113.804 176.325 114.118 176.325Z" fill="#F9ECDC"/>
<path d="M113.212 177.381C113.484 177.381 113.704 177.203 113.704 176.983C113.704 176.763 113.484 176.585 113.212 176.585C112.941 176.585 112.721 176.763 112.721 176.983C112.721 177.203 112.941 177.381 113.212 177.381Z" fill="#F9ECDC"/>
<path d="M112.2 178.283C112.446 178.283 112.645 178.105 112.645 177.886C112.645 177.666 112.446 177.488 112.2 177.488C111.954 177.488 111.755 177.666 111.755 177.886C111.755 178.105 111.954 178.283 112.2 178.283Z" fill="#F9ECDC"/>
<path d="M156.896 169.359C157.004 169.065 156.897 168.756 156.658 168.669C156.42 168.582 156.139 168.75 156.031 169.044C155.924 169.337 156.03 169.646 156.269 169.733C156.507 169.82 156.788 169.652 156.896 169.359Z" fill="#F9ECDC"/>
<path d="M157.569 170.569C157.662 170.315 157.57 170.048 157.363 169.972C157.156 169.897 156.913 170.042 156.82 170.296C156.727 170.55 156.819 170.817 157.026 170.892C157.233 170.968 157.476 170.823 157.569 170.569Z" fill="#F9ECDC"/>
<path d="M158.076 171.822C158.161 171.592 158.061 171.344 157.854 171.269C157.647 171.193 157.411 171.319 157.327 171.549C157.242 171.779 157.342 172.027 157.549 172.102C157.756 172.177 157.992 172.052 158.076 171.822Z" fill="#F9ECDC"/>
<path d="M8.76101 156.07C8.76101 156.07 15.6661 160.369 24.3819 156.774C24.3819 156.774 27.8499 155.183 30.6579 150.716C33.466 146.248 33.3893 146.264 35.0005 147.059C36.5964 147.855 36.5964 162.832 36.5964 162.832L38.806 162.97C38.806 162.97 38.806 149.859 36.8726 145.866C36.8726 145.866 36.3355 142.546 35.0005 142.271C33.6655 141.995 30.9955 141.812 26.1926 143.938C21.3897 146.065 20.8527 143.005 14.5153 145.468C8.17791 147.931 5.84551 151.649 5.17034 154.249C4.49517 156.85 6.04499 159.711 6.04499 159.711C6.04499 159.711 5.83017 157.829 8.76101 156.07Z" fill="#529A74"/>
<path d="M6.55127 156.101C6.75075 155.504 8.3466 154.035 18.3667 152.704C28.3715 151.373 31.379 145.254 32.8521 145.055" stroke="#328A5A" stroke-width="3" stroke-miterlimit="10"/>
<path d="M17.5076 125.228C18.0447 125.136 19.0421 129.022 24.8424 132.082C30.6427 135.142 33.5889 135.478 35.3842 135.081C37.1796 134.683 38.4532 132.878 39.0516 133.153C39.6501 133.428 39.6501 162.297 39.6501 162.297H41.783C41.783 162.297 41.4454 132.556 41.1845 131.96C40.9237 131.363 40.049 129.236 34.7704 125.779C29.4918 122.322 25.6864 118.589 19.0267 120.195C19.0267 120.195 16.0959 121.266 14.6228 123.392C13.1497 125.519 14.0244 126.85 14.0244 126.85C14.0244 126.85 13.7635 125.825 17.5076 125.228Z" fill="#529A74"/>
<path d="M16.2339 123.775C16.2339 123.775 24.0444 122.643 29.1848 126.437C34.3253 130.231 36.8572 131.761 36.8572 131.761" stroke="#328A5A" stroke-width="3" stroke-miterlimit="10"/>
<path d="M43.1025 162.557C42.5041 161.455 42.857 126.529 43.1025 125.473C43.348 124.417 43.5475 122.872 48.3044 121.235C53.0612 119.598 64.1248 109.762 68.7282 110.312C73.3316 110.863 78.288 115.346 78.1959 116.845C78.0885 118.344 75.3878 117.747 72.994 117.992C70.5849 118.237 69.2346 121.48 66.0889 125.779C62.9279 130.078 57.4345 131.669 51.7723 129.772C46.1101 127.875 45.3582 126.773 45.3582 126.773L44.4068 162.756L43.1025 162.557Z" fill="#328A5A"/>
<path d="M46.3402 162.832C46.0026 162.036 48.8721 139.012 47.3376 130.828C45.8032 122.643 46.3402 120.455 42.8723 119.124C39.4044 117.793 31.8548 112.469 30.2589 107.145C28.6631 101.822 28.4636 98.8231 28.2641 98.5018C28.0646 98.1805 27.7271 97.1709 26.1312 98.7619C24.5354 100.353 23.8602 98.1041 26.1926 94.9679C28.525 91.8317 30.8574 90.975 34.9391 93.6981C39.0208 96.4212 45.7571 104.009 47.2916 107.941C48.8261 111.873 47.1535 117.854 47.2916 119.583C47.4297 121.312 49.8235 131.164 50.2992 138.217C50.7595 145.269 48.7647 162.771 48.7647 162.771L46.3402 162.832Z" fill="#529A74"/>
<path d="M46.0946 126.33C46.0946 126.33 55.8539 128.181 59.0609 126.636C62.268 125.091 67.1629 114.06 70.1705 113.464C73.1781 112.867 78.1805 117.105 78.1805 117.105C78.1805 117.105 78.2879 118.099 75.0194 118.007C71.751 117.916 71.1219 118.405 68.9122 121.648C66.7026 124.892 64.7538 128.839 59.9509 129.925C55.148 131.026 51.987 130.032 49.4858 129.022C46.9846 128.028 45.3274 126.773 45.3274 126.773L46.0946 126.33Z" fill="#529A74"/>
<path d="M30.1208 95.228C30.1208 95.228 39.4658 105.141 41.5373 110.068C43.6089 114.994 44.4682 117.854 44.4682 117.854" stroke="#328A5A" stroke-width="3" stroke-miterlimit="10"/>
<path d="M24.781 98.5477C24.8424 97.7522 27.7886 91.3574 32.5915 95.4268C37.3944 99.4962 37.333 103.351 41.0618 106.671C44.8059 109.991 46.1409 111.995 45.9414 114.458C45.7419 116.921 46.0795 119.981 46.9388 121.373C47.8134 122.765 48.0129 122.704 47.8134 122.765C47.614 122.826 47.1076 119.231 47.1076 119.231C47.1076 119.231 49.3172 110.649 46.9081 106.962C44.499 103.275 37.5939 93.5451 32.1465 92.2447C26.6838 90.9443 24.781 98.5477 24.781 98.5477ZM81.0501 146.83C81.0501 146.83 74.145 150.869 65.4292 147.488C65.4292 147.488 61.9613 145.988 59.1532 141.781C57.3118 139.027 56.7134 138.079 56.0536 137.957C56.0536 137.957 55.4705 137.895 54.8106 138.324C52.3248 139.915 52.9539 158.013 53.1841 163.214C52.5703 163.291 51.9565 163.367 51.3427 163.444C50.7903 158.824 50.5448 153.117 51.266 146.661C51.6496 143.173 52.2634 140.007 52.9539 137.192C52.9539 137.192 53.491 134.055 54.826 133.811C56.161 133.566 58.831 133.367 63.6339 135.371C68.4368 137.375 68.9738 134.499 75.3112 136.809C81.6486 139.135 83.981 142.638 84.6561 145.086C85.316 147.533 83.7815 150.226 83.7815 150.226C83.7815 150.226 83.981 148.482 81.0501 146.83Z" fill="#328A5A"/>
<path d="M82.8914 146.126C82.5078 145.361 80.6664 143.724 72.058 144.107C63.4496 144.489 58.7695 136.84 57.4958 136.886" stroke="#529A74" stroke-width="3" stroke-miterlimit="10"/>
<path d="M55.6851 189.115H32.0082C31.0568 189.115 30.2896 188.35 30.2896 187.401V163.995C30.2896 163.046 31.0568 162.281 32.0082 162.281H55.6851C56.6365 162.281 57.4037 163.046 57.4037 163.995V187.401C57.419 188.335 56.6365 189.115 55.6851 189.115Z" fill="#2A94F4"/>
<path d="M35.645 188.809C35.7524 188.564 39.604 181.465 44.4989 177.029C49.4092 172.592 57.4192 171.445 57.4192 171.445L57.5266 187.065C57.5266 187.065 57.3732 189.054 54.6725 189.161L35.645 188.809Z" fill="#2A94F4"/>
<path d="M65.874 30.7753H25.2718C23.6453 30.7753 22.3103 29.4597 22.3103 27.8227V21.0914C22.3103 19.4698 23.6299 18.1388 25.2718 18.1388H65.874C67.5005 18.1388 68.8355 19.4545 68.8355 21.0914V27.8227C68.8355 29.4597 67.5005 30.7753 65.874 30.7753Z" fill="#F1CFAA"/>
<path d="M64.4162 23.5545H36.5194C36.3199 23.5545 36.1665 23.4015 36.1665 23.2026V21.7339C36.1665 21.5351 36.3199 21.3821 36.5194 21.3821H64.4162C64.6156 21.3821 64.7691 21.5351 64.7691 21.7339V23.2026C64.7691 23.4015 64.6003 23.5545 64.4162 23.5545ZM64.631 27.8686H36.7496C36.5501 27.8686 36.3967 27.7157 36.3967 27.5168V26.0481C36.3967 25.8492 36.5501 25.6963 36.7496 25.6963H64.6463C64.8458 25.6963 64.9993 25.8492 64.9993 26.0481V27.5168C64.9839 27.7157 64.8305 27.8686 64.631 27.8686Z" fill="#F9ECDC"/>
<path d="M30.0901 29.016C32.5986 29.016 34.6322 27.1187 34.6322 24.7783C34.6322 22.4379 32.5986 20.5406 30.0901 20.5406C27.5816 20.5406 25.5481 22.4379 25.5481 24.7783C25.5481 27.1187 27.5816 29.016 30.0901 29.016Z" fill="#FAEFE5"/>
<path d="M30.09 20.5406V25.069L25.5786 24.4418C25.594 24.4265 25.7627 20.7395 30.09 20.5406Z" fill="#E6B78B"/>
<path d="M165.2 133.306H155.088C154.076 133.306 153.247 132.48 153.247 131.47V119.063C153.247 118.053 154.076 117.227 155.088 117.227H165.2C166.213 117.227 167.042 118.053 167.042 119.063V131.47C167.042 132.48 166.213 133.306 165.2 133.306Z" fill="#F1CFAA"/>
<path d="M160.229 129.343C157.098 127.018 155.41 124.417 156.07 122.872C156.27 122.413 156.853 121.618 157.789 121.465C159.001 121.266 159.922 122.26 160.014 122.367C160.183 122.168 160.889 121.404 162.024 121.312C162.224 121.296 163.374 121.205 164.05 121.97C164.05 121.97 164.372 122.337 164.479 122.903C164.725 124.127 163.037 126.62 160.229 129.343Z" fill="#F0512A"/>
<path d="M55.0406 96.0387C58.4643 96.0387 61.2398 93.2715 61.2398 89.8581C61.2398 86.4446 58.4643 83.6775 55.0406 83.6775C51.6168 83.6775 48.8413 86.4446 48.8413 89.8581C48.8413 93.2715 51.6168 96.0387 55.0406 96.0387Z" fill="#F1CFAA"/>
<path d="M58.309 92.0304L55.8692 91.6785L54.1812 93.4685L53.7669 91.0513L51.5266 90.011L53.7209 88.8636L54.0125 86.4312L55.7771 88.1446L58.2016 87.6703L57.1121 89.8733L58.309 92.0304Z" fill="#FDAA40"/>
<path d="M191.732 69.1593H163.374C161.564 69.1593 160.106 67.7059 160.106 65.9007V36.6347C160.106 34.8295 161.564 33.3761 163.374 33.3761H191.732C193.542 33.3761 195 34.8295 195 36.6347V65.8854C195 67.6906 193.542 69.1593 191.732 69.1593Z" fill="#F1CFAA"/>
<path d="M176.126 40.6123C176.279 40.6276 176.095 36.9866 176.095 36.9866L179.609 37.0325L179.594 40.8265C179.594 40.8265 181.942 41.1784 182.77 41.8821C183.599 42.6011 183.983 43.0448 183.983 43.0448L180.96 46.1657C180.96 46.1657 178.489 44.0086 176.003 45.722C176.003 45.722 174.776 48.2769 177.047 48.9806C177.047 48.9806 179.502 48.9194 181.036 49.4701C182.571 50.0209 185.855 52.3769 184.796 56.7369C183.737 61.097 180.024 62.0149 180.024 62.0149L179.671 62.0914L179.855 65.2276C179.855 65.2276 176.54 65.4112 176.387 65.3347C176.233 65.2582 176.325 61.8313 176.325 61.8313C176.325 61.8313 173.778 61.5254 171.707 59.8119L171.001 58.894L174.254 55.7272C174.254 55.7272 175.911 57.7619 178.689 57.5936C181.466 57.4101 180.729 53.9067 179.364 53.7231C177.998 53.5395 173.579 53.8149 171.523 49.4701C169.436 45.1407 173.502 40.4746 176.126 40.6123Z" fill="#DC952D"/>
</svg>
