<svg id="SvgjsSvg1001" width="288" height="288" xmlns="http://www.w3.org/2000/svg" version="1.1" xmlns:xlink="http://www.w3.org/1999/xlink" xmlns:svgjs="http://svgjs.com/svgjs"><defs id="SvgjsDefs1002"></defs><g id="SvgjsG1008" transform="matrix(1,0,0,1,0,0)"><svg xmlns="http://www.w3.org/2000/svg" enable-background="new 0 0 64 64" viewBox="0 0 64 64" width="288" height="288"><path fill="#074ead" d="M62,32c0,5.6-1.5,10.9-4.3,15.4c-4.2,7-11.2,12.2-19.4,13.9c-2,0.4-4.2,0.7-6.3,0.7C15.4,62,2,48.6,2,32S15.4,2,32,2S62,15.4,62,32z" class="color2980B9 svgShape"></path><path d="M57.7,47.4c-4.2,7-11.2,12.2-19.4,13.9L24,47l17.5-15.9L57.7,47.4z" opacity=".2" fill="#074ead" class="color000 svgShape"></path><path fill="#074ead" d="M25.6,48c-0.8,0-1.6-0.3-2.3-0.9c-1.3-1.2-1.3-3.3,0-4.5L33.9,32L23.3,21.5c-1.3-1.2-1.3-3.3,0-4.5c1.2-1.3,3.3-1.3,4.5,0l12.8,12.8c1.3,1.2,1.3,3.3,0,4.5L27.9,47.1C27.2,47.7,26.4,48,25.6,48z" class="colorFC6042 svgShape"></path></svg></g></svg>