<svg fill="white" xmlns="http://www.w3.org/2000/svg" data-name="Layer 1" viewBox="0 0 64 64"><path fill="none" stroke="#222" stroke-linecap="round" stroke-linejoin="round" stroke-width="3" d="M32.26,15.61,29,20.12a.9.9,0,0,0,.2,1.25l8.69,6.27a.86.86,0,0,0,.62.16l4.16-.44a1.79,1.79,0,0,1,1.94,1.39l.79,3.46a2.72,2.72,0,0,0,1,1.6l1.23.88a1.8,1.8,0,0,0,2.51-.41l6.85-9.5a1.8,1.8,0,0,0-.4-2.52l-1.22-.87a2.69,2.69,0,0,0-1.86-.5l-3.48.37a1.79,1.79,0,0,1-1.94-1.39l-.78-3.46a2.75,2.75,0,0,0-1.06-1.6l-9.6-6.92h0A18.32,18.32,0,0,0,22.21,4.83l-1.8.38a.91.91,0,0,0-.34,1.62Z"/><path fill="none" stroke="#222" stroke-linecap="round" stroke-linejoin="round" stroke-width="3" d="M16.5,20.34h8.94a0,0,0,0,1,0,0V58.52a4,4,0,0,1-4,4h-.93a4,4,0,0,1-4-4V20.34A0,0,0,0,1,16.5,20.34Z" transform="rotate(35.79 20.97 41.432)"/></svg>