<svg width="201" height="189" viewBox="0 0 201 189" fill="none" xmlns="http://www.w3.org/2000/svg">
<g clip-path="url(#clip0)">
<path opacity="0.18" d="M117.785 186.638C119.825 187.48 122.081 187.604 124.282 187.708C142.864 188.605 161.458 189.035 180.065 188.997C181.925 188.997 183.826 188.978 185.569 188.332C187.312 187.686 188.891 186.268 189.198 184.432C177.547 183.526 165.814 183.615 154.204 183.184C148.118 182.96 141.798 183.723 135.743 184.302C132.675 184.597 129.611 184.944 126.554 185.34C124.63 185.594 119.496 187.344 117.785 186.638Z" fill="#1D2741"/>
<path d="M154.173 180.911L155.606 184.435L149.817 187.177L144.471 187.566C144.471 187.566 143.556 184.042 146.052 183.729C147.511 183.562 148.903 183.024 150.095 182.165L154.173 180.911ZM158.769 182.504C158.044 182.804 157.413 183.294 156.944 183.924C156.475 184.554 156.185 185.3 156.106 186.081L155.951 187.566H162.524V182.501L158.769 182.504Z" fill="#FF8066"/>
<path opacity="0.22" d="M200.525 21.0401V109.012C200.526 110.292 200.274 111.56 199.785 112.743C199.296 113.926 198.578 115 197.674 115.906C196.769 116.811 195.695 117.529 194.513 118.019C193.331 118.508 192.065 118.76 190.785 118.76H9.73999C7.15678 118.76 4.67938 117.733 2.85278 115.905C1.02617 114.077 0 111.597 0 109.012V21.0401C0.00334805 18.4559 1.0306 15.9785 2.85648 14.1512C4.68235 12.3239 7.15781 11.2959 9.73999 11.2925H190.792C193.373 11.2976 195.847 12.3264 197.671 14.1535C199.496 15.9806 200.522 18.457 200.525 21.0401Z" fill="url(#paint0_linear)"/>
<path d="M201 20.714V108.683C201.001 110.914 200.237 113.077 198.836 114.812C197.436 116.548 195.483 117.75 193.304 118.218C192.633 118.36 191.949 118.431 191.263 118.431H10.2114C8.93196 118.431 7.66488 118.18 6.48262 117.69C5.30036 117.201 4.22609 116.483 3.32123 115.578C2.41637 114.672 1.69866 113.597 1.20913 112.414C0.719599 111.231 0.467846 109.963 0.468262 108.683V20.714C0.470775 18.1288 1.49809 15.6501 3.32474 13.822C5.15139 11.9939 7.62814 10.9658 10.2114 10.9633H191.263C193.629 10.9637 195.913 11.826 197.69 13.3892C199.467 14.9523 200.614 17.1093 200.918 19.4572C200.974 19.8738 201.002 20.2937 201 20.714Z" fill="#FF8066"/>
<path d="M201 20.714V108.683C201.001 110.914 200.237 113.077 198.836 114.812C197.436 116.548 195.483 117.75 193.304 118.218C192.633 118.36 191.949 118.431 191.263 118.431H10.2114C8.93196 118.431 7.66488 118.18 6.48262 117.69C5.30036 117.201 4.22609 116.483 3.32123 115.578C2.41637 114.672 1.69866 113.597 1.20913 112.414C0.719599 111.231 0.467846 109.963 0.468262 108.683V20.714C0.470775 18.1288 1.49809 15.6501 3.32474 13.822C5.15139 11.9939 7.62814 10.9658 10.2114 10.9633H191.263C193.629 10.9637 195.913 11.826 197.69 13.3892C199.467 14.9523 200.614 17.1093 200.918 19.4572C200.974 19.8738 201.002 20.2937 201 20.714Z" fill="url(#paint1_linear)"/>
<path d="M200.45 19.7865H0.0822754C0.386575 17.4383 1.53454 15.2812 3.31178 13.7182C5.08902 12.1551 7.37401 11.2929 9.74002 11.2925H190.792C193.158 11.2922 195.443 12.1542 197.221 13.7174C198.998 15.2806 200.146 17.438 200.45 19.7865Z" fill="url(#paint2_linear)"/>
<path d="M130.868 88.3298H63.0901C61.7064 88.3298 60.5847 89.4524 60.5847 90.8372V94.9622C60.5847 96.347 61.7064 97.4696 63.0901 97.4696H130.868C132.252 97.4696 133.374 96.347 133.374 94.9622V90.8372C133.374 89.4524 132.252 88.3298 130.868 88.3298Z" fill="white" stroke="#FF8066" stroke-width="0.88" stroke-miterlimit="10"/>
<path d="M66.5191 95.0129C67.618 95.0129 68.5088 94.1213 68.5088 93.0216C68.5088 91.9218 67.618 91.0303 66.5191 91.0303C65.4201 91.0303 64.5293 91.9218 64.5293 93.0216C64.5293 94.1213 65.4201 95.0129 66.5191 95.0129Z" fill="#FF8066"/>
<path d="M72.71 95.0129C73.8089 95.0129 74.6997 94.1213 74.6997 93.0216C74.6997 91.9218 73.8089 91.0303 72.71 91.0303C71.6111 91.0303 70.7202 91.9218 70.7202 93.0216C70.7202 94.1213 71.6111 95.0129 72.71 95.0129Z" fill="#FF8066"/>
<path d="M78.9038 95.0129C80.0027 95.0129 80.8936 94.1213 80.8936 93.0216C80.8936 91.9218 80.0027 91.0303 78.9038 91.0303C77.8049 91.0303 76.9141 91.9218 76.9141 93.0216C76.9141 94.1213 77.8049 95.0129 78.9038 95.0129Z" fill="#FF8066"/>
<path d="M85.0945 95.0129C86.1934 95.0129 87.0843 94.1213 87.0843 93.0216C87.0843 91.9218 86.1934 91.0303 85.0945 91.0303C83.9956 91.0303 83.1047 91.9218 83.1047 93.0216C83.1047 94.1213 83.9956 95.0129 85.0945 95.0129Z" fill="#FF8066"/>
<path d="M138.286 92.4771V91.426H139.115V90.7485H138.286V90.242H139.115V89.5645H137.454V92.4771C136.95 92.5802 136.501 92.8672 136.196 93.2824C135.891 93.6976 135.751 94.2114 135.803 94.7242C135.854 95.237 136.095 95.7122 136.477 96.0579C136.859 96.4035 137.355 96.5949 137.87 96.5949C138.385 96.5949 138.882 96.4035 139.264 96.0579C139.646 95.7122 139.886 95.237 139.938 94.7242C139.99 94.2114 139.85 93.6976 139.544 93.2824C139.239 92.8672 138.791 92.5802 138.286 92.4771ZM137.872 95.9595C137.586 95.9601 137.306 95.8758 137.068 95.7172C136.83 95.5586 136.644 95.3329 136.534 95.0686C136.424 94.8043 136.395 94.5132 136.45 94.2324C136.506 93.9515 136.643 93.6934 136.845 93.4908C137.047 93.2881 137.305 93.15 137.586 93.094C137.866 93.0379 138.157 93.0663 138.421 93.1757C138.686 93.2852 138.912 93.4706 139.071 93.7086C139.23 93.9466 139.314 94.2264 139.314 94.5127C139.314 94.8962 139.163 95.264 138.892 95.5357C138.622 95.8075 138.255 95.961 137.872 95.9626V95.9595Z" fill="#FF8066"/>
<path d="M109.338 39.8356H88.5805C86.5259 39.8356 84.8604 41.5024 84.8604 43.5586V64.3328C84.8604 66.3889 86.5259 68.0558 88.5805 68.0558H109.338C111.393 68.0558 113.059 66.3889 113.059 64.3328V43.5586C113.059 41.5024 111.393 39.8356 109.338 39.8356Z" fill="url(#paint3_linear)"/>
<path d="M109.452 39.8356H90.1905C88.2005 39.8356 86.5874 41.45 86.5874 43.4414V64.4499C86.5874 66.4414 88.2005 68.0558 90.1905 68.0558H109.452C111.442 68.0558 113.055 66.4414 113.055 64.4499V43.4414C113.055 41.45 111.442 39.8356 109.452 39.8356Z" fill="#FF8066"/>
<path d="M114.147 54.0375L112.692 55.421L112.059 56.0162C111.56 55.4205 110.928 54.9518 110.213 54.6485C109.498 54.3453 108.721 54.2161 107.947 54.2718C107.608 54.3128 107.265 54.2568 106.956 54.1103C105.909 53.5152 107.551 51.4859 107.551 51.4859C107.912 51.478 108.274 51.4938 108.633 51.5333C108.665 51.5302 108.696 51.5302 108.728 51.5333L109.016 51.5682C110.389 51.7645 112.625 52.4198 114.147 54.0375Z" fill="white"/>
<path opacity="0.39" d="M112.635 55.2912L112.692 55.421L112.059 56.0162C111.56 55.4205 110.928 54.9518 110.213 54.6485C109.498 54.3453 108.721 54.2162 107.947 54.2718C107.608 54.3128 107.265 54.2568 106.956 54.1104L107.551 51.4859C107.551 51.4859 108.136 51.4859 108.633 51.5334C108.665 51.5303 108.696 51.5303 108.728 51.5334C108.824 51.5392 108.921 51.5508 109.016 51.5682C109.016 51.5682 109.361 53.0435 109.104 53.664C109.104 53.6735 111.531 54.0787 112.635 55.2912Z" fill="url(#paint4_linear)"/>
<path d="M99.4498 45.7842H98.4692C97.6812 45.7842 97.0425 46.4234 97.0425 47.212V60.6794C97.0425 61.468 97.6812 62.1072 98.4692 62.1072H99.4498C100.238 62.1072 100.876 61.468 100.876 60.6794V47.212C100.876 46.4234 100.238 45.7842 99.4498 45.7842Z" fill="url(#paint5_linear)"/>
<path d="M107.94 53.7241C107.924 55.433 107.235 57.0665 106.023 58.2699C104.81 59.4732 103.172 60.1491 101.465 60.1507H100.07C99.8592 60.1505 99.6529 60.091 99.4745 59.9791C99.2961 59.8671 99.1527 59.7072 99.0607 59.5176C98.9755 59.346 98.9355 59.1554 98.9446 58.964C98.9537 58.7725 99.0116 58.5866 99.1127 58.4239C99.2138 58.2612 99.3548 58.127 99.5224 58.0342C99.6899 57.9413 99.8784 57.8929 100.07 57.8935H100.589C101.151 57.8936 101.708 57.7814 102.226 57.5632C102.745 57.3451 103.214 57.0256 103.608 56.6233C104.001 56.2211 104.31 55.7443 104.517 55.2209C104.724 54.6975 104.824 54.138 104.812 53.5753C104.774 52.4598 104.302 51.4031 103.498 50.6303C102.693 49.8574 101.619 49.4295 100.503 49.4376H99.8705C99.6256 49.4376 99.3906 49.3402 99.2174 49.1668C99.0442 48.9935 98.9468 48.7583 98.9468 48.5132V48.1206C98.9468 47.8754 99.0442 47.6403 99.2174 47.4669C99.3906 47.2936 99.6256 47.1962 99.8705 47.1962H101.354C104.938 47.193 107.966 50.1309 107.94 53.7241Z" fill="white"/>
<path opacity="0.39" d="M106.213 53.9837C106.201 55.4698 105.602 56.8908 104.548 57.9377C103.495 58.9847 102.07 59.573 100.585 59.5746H99.3707C99.2632 59.5747 99.1565 59.5576 99.0544 59.5239C98.9691 59.3523 98.9292 59.1617 98.9383 58.9703C98.9474 58.7789 99.0052 58.593 99.1064 58.4302C99.2075 58.2675 99.3485 58.1333 99.516 58.0405C99.6835 57.9477 99.872 57.8993 100.063 57.8998H100.582C101.145 57.9 101.701 57.7877 102.22 57.5696C102.738 57.3515 103.208 57.0319 103.601 56.6297C103.995 56.2275 104.304 55.7506 104.511 55.2272C104.717 54.7038 104.818 54.1443 104.805 53.5817C104.767 52.4661 104.296 51.4094 103.491 50.6366C102.687 49.8638 101.612 49.4358 100.497 49.4439H99.8642C99.6192 49.4439 99.3843 49.3465 99.211 49.1732C99.0378 48.9998 98.9405 48.7647 98.9405 48.5195V48.3454C99.0222 48.3186 99.1076 48.3048 99.1936 48.3042H100.481C101.992 48.3008 103.444 48.8963 104.518 49.9605C105.592 51.0247 106.201 52.4712 106.213 53.9837Z" fill="url(#paint6_linear)"/>
<path d="M104.609 52.385C104.609 52.385 105.033 53.5215 104.505 55.2564C104.505 55.2564 102.502 57.3174 104.211 60.594L105.621 62.1041L103.98 63.7219C102.959 62.9308 102.167 61.8824 101.685 60.684C101.203 59.4857 101.049 58.1806 101.237 56.9027C101.601 54.1104 104.609 52.385 104.609 52.385Z" fill="white"/>
<path d="M102.578 65.0262L115.58 52.6794L126.487 62.1041L113.055 74.9985L102.578 65.0262Z" fill="#FF8066"/>
<path d="M102.578 65.0262L103.442 69.9206L113.055 79.1521V74.9985L102.578 65.0262Z" fill="#FF8066"/>
<path d="M126.487 62.1041V66.5964L113.055 79.1521V74.9985L126.487 62.1041Z" fill="#FF8066"/>
<path d="M102.578 65.0262L103.442 69.9206L113.055 79.1521V74.9985L102.578 65.0262Z" fill="url(#paint7_linear)"/>
<path d="M126.487 62.1041V66.5964L113.055 79.1521V74.9985L126.487 62.1041Z" fill="url(#paint8_linear)"/>
<path d="M104.976 67.3087L118.101 54.8575L119.313 55.9054L106.213 68.4864L104.976 67.3087Z" fill="url(#paint9_linear)"/>
<path d="M108.851 70.9146L122.289 58.4634L123.501 59.5082L110.088 72.0891L108.851 70.9146Z" fill="url(#paint10_linear)"/>
<path opacity="0.21" d="M146.337 83.1727C146.205 85.1285 146.311 87.0931 146.653 89.0232C146.869 90.2167 147.156 91.5305 146.543 92.5816C146.226 93.1514 145.657 93.5503 145.148 93.9714C141.915 96.6307 140.045 100.578 137.284 103.725C137.101 103.984 136.835 104.173 136.531 104.26C136.217 104.281 135.907 104.192 135.651 104.01C133.97 103.039 132.556 101.664 131.539 100.009C131.042 99.1982 130.59 98.2737 129.736 97.859C128.154 97.0802 126.237 98.736 126.063 100.499C125.889 102.263 126.835 103.922 127.749 105.438L131.979 112.46C133.266 114.6 134.623 116.813 136.724 118.158C138.177 119.045 139.81 119.597 141.503 119.773C143.901 120.089 146.334 119.931 148.748 119.744C153.161 119.402 157.564 118.963 161.955 118.427C163.46 118.244 165.172 117.915 165.934 116.607C166.447 115.727 166.377 114.641 166.288 113.628C165.978 109.958 165.662 106.289 165.339 102.62C165.165 100.54 164.906 98.2801 163.441 96.7985C162.565 95.9184 161.338 95.4182 160.56 94.4462C160.003 93.6671 159.645 92.7642 159.516 91.8154C158.766 87.8582 159.484 83.6065 157.934 79.8803C157.618 79.1268 157.194 78.3797 156.495 77.9586C155.853 77.6256 155.131 77.4798 154.41 77.5376C150.946 77.6357 146.59 79.2883 146.337 83.1727Z" fill="url(#paint11_linear)"/>
<path opacity="0.18" d="M193.398 139.05C191.523 160.682 115 93.5 87.9999 129.5C92.9999 95.5 11.2394 153.752 3.10322 139.05C-0.499844 132.541 1.90747 124.411 5.713 117.37C7.16344 118.179 8.79752 118.601 10.458 118.595H189.897C192.367 124.417 194.066 131.382 193.398 139.05Z" fill="#FF8066"/>
<path d="M146.682 130.062L142.788 158.447C142.624 159.642 142.749 160.858 143.152 161.995L150.111 182.504L154.179 181.237L151.111 160.834C151.045 160.411 151.073 159.978 151.193 159.567L156.472 141.319L158.769 182.475H162.524L165.754 141.861C166.848 135.073 164.843 130.062 164.843 130.062H146.682Z" fill="#0B4870"/>
<path d="M166.64 122.546L162.787 97.707L162.249 94.6804C162.249 94.6804 169.442 98.796 171.505 105.995C174.203 115.445 166.64 122.546 166.64 122.546Z" fill="#FF8066"/>
<path d="M166.64 122.546L162.787 97.707L162.249 94.6804C162.249 94.6804 169.442 98.796 171.505 105.995C174.203 115.445 166.64 122.546 166.64 122.546Z" fill="url(#paint12_linear)"/>
<path d="M170.594 116.765C173.514 110.988 167.747 100.936 167.747 100.936L162.78 97.7101L163.34 94.1232C163.34 94.1232 171.35 94.9432 172.131 106.261C172.391 109.905 172.119 114.407 170.594 116.765Z" fill="#FF8066"/>
<path d="M129.328 97.3714C129.059 96.4596 128.591 95.3738 127.642 95.2915C127.899 96.1228 127.861 97.0176 127.534 97.8241C125.465 97.058 124.984 94.0251 122.919 93.24C122.602 93.5756 122.78 94.1233 122.976 94.5412C123.336 95.3199 123.699 96.0987 124.064 96.8775C123.579 96.1135 123.063 95.3748 122.517 94.6615C122.356 94.443 122.077 94.2056 121.85 94.3449C121.622 94.4842 121.704 94.7786 121.786 95.0065C122.147 96.0196 122.558 97.0168 123.01 97.9919C122.503 97.1388 121.922 96.3316 121.274 95.5795C120.85 95.684 120.938 96.3108 121.122 96.7066L122.479 99.6001L121.391 98.0172C121.04 98.052 121.093 98.5902 121.264 98.9005C122.724 101.508 125.004 103.559 127.749 104.735C128.306 104.973 128.951 105.169 129.499 104.912C131.852 103.839 129.783 98.9353 129.328 97.3714Z" fill="url(#paint13_linear)"/>
<path d="M166.64 105.055V124.531C166.64 126.918 166.25 128.859 163.862 128.859H147.185C144.806 128.859 144.714 126.937 144.698 124.56L144.575 111.323C144.575 111.323 140.975 117.74 138.103 117.117C135.23 116.493 126.715 104.745 126.715 104.745L130.954 101.18L138.097 108.347C138.097 108.347 139.245 105.736 140.915 99.8883C142.585 94.041 148.014 94.0251 148.014 94.0251H162.514C167.75 94.0251 166.64 105.055 166.64 105.055Z" fill="#FF8066"/>
<path d="M166.64 107.249C166.64 107.249 169.145 110.772 166.64 114.296V107.249Z" fill="#0B4870"/>
<path d="M164.843 128.735H146.682V130.062H164.843V128.735Z" fill="url(#paint14_linear)"/>
<path d="M158.108 80.7794H152.866V94.117H158.108V80.7794Z" fill="url(#paint15_linear)"/>
<path d="M158.111 79.3167V94.1201H155.346V93.2178C155.346 92.9552 155.295 92.6952 155.194 92.4527C155.094 92.2101 154.946 91.9897 154.761 91.8042C154.575 91.6186 154.354 91.4716 154.112 91.3714C153.869 91.2712 153.609 91.2198 153.347 91.2202H153.189C151.872 91.2202 150.608 90.6965 149.677 89.7644C148.746 88.8323 148.222 87.5681 148.222 86.2499V79.3167H158.111Z" fill="url(#paint16_linear)"/>
<path d="M148.222 80.7793C148.222 80.7793 143.636 78.2751 145.277 75.5335C146.919 72.7919 149.595 74.5173 149.595 74.5173H158.437C158.437 74.5173 159.452 74.359 159.845 76.0812C160.237 77.8034 158.124 88.4944 158.124 88.4944H153.73L153.167 85.7148C153.167 85.7148 154.043 84.7651 153.964 83.7552C153.971 83.5662 153.913 83.3804 153.8 83.2291C153.686 83.0778 153.524 82.9703 153.341 82.9246C153.157 82.8789 152.964 82.8978 152.793 82.9781C152.622 83.0585 152.483 83.1954 152.401 83.3658C152.006 84.0686 152.164 81.0927 150.756 80.7793C149.922 80.5899 149.057 80.5899 148.222 80.7793Z" fill="#FDAA40"/>
<path d="M156.938 94.0916C156.938 94.0916 154.904 96.7573 152.085 96.7573C149.266 96.7573 141.054 104.821 140.504 107.249C139.953 109.677 138.103 108.347 138.103 108.347C138.103 108.347 139.251 105.736 140.921 99.8883C142.592 94.041 148.014 94.0251 148.014 94.0251H155.384L156.938 94.0916Z" fill="url(#paint17_linear)"/>
<path d="M154.173 180.911L155.606 184.435L149.817 187.177L144.471 187.566C144.471 187.566 143.556 184.042 146.052 183.729C147.511 183.562 148.903 183.024 150.095 182.165L154.173 180.911Z" fill="url(#paint18_linear)"/>
<path d="M158.769 182.504C158.044 182.803 157.413 183.294 156.944 183.924C156.475 184.554 156.185 185.3 156.106 186.081L155.951 187.566H162.524V182.501L158.769 182.504Z" fill="url(#paint19_linear)"/>
<path opacity="0.18" d="M38.0015 11.4572C38.0015 11.4572 78.6064 -14.3222 130.606 11.4572H38.0015Z" fill="#FF8066"/>
</g>
<defs>
<linearGradient id="paint0_linear" x1="0" y1="65.0262" x2="200.532" y2="65.0262" gradientUnits="userSpaceOnUse">
<stop stop-color="white"/>
<stop offset="1" stop-color="white"/>
</linearGradient>
<linearGradient id="paint1_linear" x1="-28.5935" y1="38.2812" x2="276.563" y2="100.517" gradientUnits="userSpaceOnUse">
<stop stop-color="white" stop-opacity="0"/>
<stop offset="1" stop-color="white"/>
</linearGradient>
<linearGradient id="paint2_linear" x1="-17.1264" y1="18.0136" x2="341.232" y2="10.772" gradientUnits="userSpaceOnUse">
<stop offset="0.02" stop-opacity="0"/>
<stop offset="0.99" stop-color="#3F3D56"/>
</linearGradient>
<linearGradient id="paint3_linear" x1="99.2979" y1="53.8159" x2="37.0815" y2="77.2743" gradientUnits="userSpaceOnUse">
<stop stop-color="#68E1FD"/>
<stop offset="0.01" stop-color="#67DDF9"/>
<stop offset="0.12" stop-color="#5CB3CE"/>
<stop offset="0.24" stop-color="#538EA9"/>
<stop offset="0.37" stop-color="#4C718B"/>
<stop offset="0.5" stop-color="#465A73"/>
<stop offset="0.63" stop-color="#424A63"/>
<stop offset="0.79" stop-color="#404059"/>
<stop offset="0.99" stop-color="#3F3D56"/>
</linearGradient>
<linearGradient id="paint4_linear" x1="2591.38" y1="820.685" x2="2695.48" y2="820.685" gradientUnits="userSpaceOnUse">
<stop stop-color="#68E1FD"/>
<stop offset="1" stop-color="#69B9EB"/>
</linearGradient>
<linearGradient id="paint5_linear" x1="94.8819" y1="53.9299" x2="127.329" y2="54.0342" gradientUnits="userSpaceOnUse">
<stop stop-opacity="0"/>
<stop offset="0.02" stop-color="#030304" stop-opacity="0.04"/>
<stop offset="0.18" stop-color="#181821" stop-opacity="0.39"/>
<stop offset="0.35" stop-color="#292839" stop-opacity="0.66"/>
<stop offset="0.53" stop-color="#363449" stop-opacity="0.85"/>
<stop offset="0.73" stop-color="#3D3B53" stop-opacity="0.96"/>
<stop offset="0.99" stop-color="#3F3D56"/>
</linearGradient>
<linearGradient id="paint6_linear" x1="3352.35" y1="1955.14" x2="3125.05" y2="1959.98" gradientUnits="userSpaceOnUse">
<stop stop-color="#68E1FD"/>
<stop offset="1" stop-color="#69B9EB"/>
</linearGradient>
<linearGradient id="paint7_linear" x1="3591.23" y1="3578.29" x2="4171.63" y2="2426.66" gradientUnits="userSpaceOnUse">
<stop stop-opacity="0"/>
<stop offset="0.02" stop-color="#030304" stop-opacity="0.04"/>
<stop offset="0.18" stop-color="#181821" stop-opacity="0.39"/>
<stop offset="0.35" stop-color="#292839" stop-opacity="0.66"/>
<stop offset="0.53" stop-color="#363449" stop-opacity="0.85"/>
<stop offset="0.73" stop-color="#3D3B53" stop-opacity="0.96"/>
<stop offset="0.99" stop-color="#3F3D56"/>
</linearGradient>
<linearGradient id="paint8_linear" x1="5265.7" y1="4162.32" x2="4739.24" y2="2716.12" gradientUnits="userSpaceOnUse">
<stop stop-opacity="0"/>
<stop offset="0.02" stop-color="#030304" stop-opacity="0.04"/>
<stop offset="0.18" stop-color="#181821" stop-opacity="0.39"/>
<stop offset="0.35" stop-color="#292839" stop-opacity="0.66"/>
<stop offset="0.53" stop-color="#363449" stop-opacity="0.85"/>
<stop offset="0.73" stop-color="#3D3B53" stop-opacity="0.96"/>
<stop offset="0.99" stop-color="#3F3D56"/>
</linearGradient>
<linearGradient id="paint9_linear" x1="5432.79" y1="2374.9" x2="3731.43" y2="4923.57" gradientUnits="userSpaceOnUse">
<stop stop-opacity="0"/>
<stop offset="0.02" stop-color="#030304" stop-opacity="0.04"/>
<stop offset="0.18" stop-color="#181821" stop-opacity="0.39"/>
<stop offset="0.35" stop-color="#292839" stop-opacity="0.66"/>
<stop offset="0.53" stop-color="#363449" stop-opacity="0.85"/>
<stop offset="0.73" stop-color="#3D3B53" stop-opacity="0.96"/>
<stop offset="0.99" stop-color="#3F3D56"/>
</linearGradient>
<linearGradient id="paint10_linear" x1="5756.54" y1="2510.82" x2="4070.12" y2="5093.05" gradientUnits="userSpaceOnUse">
<stop stop-opacity="0"/>
<stop offset="0.02" stop-color="#030304" stop-opacity="0.04"/>
<stop offset="0.18" stop-color="#181821" stop-opacity="0.39"/>
<stop offset="0.35" stop-color="#292839" stop-opacity="0.66"/>
<stop offset="0.53" stop-color="#363449" stop-opacity="0.85"/>
<stop offset="0.73" stop-color="#3D3B53" stop-opacity="0.96"/>
<stop offset="0.99" stop-color="#3F3D56"/>
</linearGradient>
<linearGradient id="paint11_linear" x1="21096.8" y1="11698.7" x2="31684.8" y2="21169.3" gradientUnits="userSpaceOnUse">
<stop stop-opacity="0"/>
<stop offset="0.02" stop-color="#030304" stop-opacity="0.04"/>
<stop offset="0.18" stop-color="#181821" stop-opacity="0.39"/>
<stop offset="0.35" stop-color="#292839" stop-opacity="0.66"/>
<stop offset="0.53" stop-color="#363449" stop-opacity="0.85"/>
<stop offset="0.73" stop-color="#3D3B53" stop-opacity="0.96"/>
<stop offset="0.99" stop-color="#3F3D56"/>
</linearGradient>
<linearGradient id="paint12_linear" x1="6491.48" y1="9420.75" x2="4230.1" y2="9656.49" gradientUnits="userSpaceOnUse">
<stop stop-opacity="0"/>
<stop offset="0.02" stop-color="#030304" stop-opacity="0.04"/>
<stop offset="0.18" stop-color="#181821" stop-opacity="0.39"/>
<stop offset="0.35" stop-color="#292839" stop-opacity="0.66"/>
<stop offset="0.53" stop-color="#363449" stop-opacity="0.85"/>
<stop offset="0.73" stop-color="#3D3B53" stop-opacity="0.96"/>
<stop offset="0.99" stop-color="#3F3D56"/>
</linearGradient>
<linearGradient id="paint13_linear" x1="120.97" y1="99.1443" x2="130.606" y2="99.1443" gradientUnits="userSpaceOnUse">
<stop stop-color="#ECC4D7"/>
<stop offset="0.42" stop-color="#EFD4D1"/>
<stop offset="1" stop-color="#F2EAC9"/>
</linearGradient>
<linearGradient id="paint14_linear" x1="8567.69" y1="670.907" x2="9610.3" y2="670.907" gradientUnits="userSpaceOnUse">
<stop stop-color="#5679E0"/>
<stop offset="1" stop-color="#5679E0"/>
</linearGradient>
<linearGradient id="paint15_linear" x1="2702.48" y1="3766.24" x2="2845.15" y2="3765.23" gradientUnits="userSpaceOnUse">
<stop stop-color="#ECC4D7"/>
<stop offset="0.42" stop-color="#EFD4D1"/>
<stop offset="1" stop-color="#F2EAC9"/>
</linearGradient>
<linearGradient id="paint16_linear" x1="5914.31" y1="4104.51" x2="5851.22" y2="4126.74" gradientUnits="userSpaceOnUse">
<stop stop-color="#ECC4D7"/>
<stop offset="0.42" stop-color="#EFD4D1"/>
<stop offset="1" stop-color="#F2EAC9"/>
</linearGradient>
<linearGradient id="paint17_linear" x1="158.374" y1="105.501" x2="135.988" y2="96.7438" gradientUnits="userSpaceOnUse">
<stop stop-color="white" stop-opacity="0"/>
<stop offset="1" stop-color="white"/>
</linearGradient>
<linearGradient id="paint18_linear" x1="6372.91" y1="4053.59" x2="6776.5" y2="4053.59" gradientUnits="userSpaceOnUse">
<stop stop-opacity="0"/>
<stop offset="0.02" stop-color="#030304" stop-opacity="0.04"/>
<stop offset="0.18" stop-color="#181821" stop-opacity="0.39"/>
<stop offset="0.35" stop-color="#292839" stop-opacity="0.66"/>
<stop offset="0.53" stop-color="#363449" stop-opacity="0.85"/>
<stop offset="0.73" stop-color="#3D3B53" stop-opacity="0.96"/>
<stop offset="0.99" stop-color="#3F3D56"/>
</linearGradient>
<linearGradient id="paint19_linear" x1="4021.58" y1="3143.08" x2="4158.18" y2="3143.08" gradientUnits="userSpaceOnUse">
<stop stop-opacity="0"/>
<stop offset="0.02" stop-color="#030304" stop-opacity="0.04"/>
<stop offset="0.18" stop-color="#181821" stop-opacity="0.39"/>
<stop offset="0.35" stop-color="#292839" stop-opacity="0.66"/>
<stop offset="0.53" stop-color="#363449" stop-opacity="0.85"/>
<stop offset="0.73" stop-color="#3D3B53" stop-opacity="0.96"/>
<stop offset="0.99" stop-color="#3F3D56"/>
</linearGradient>
<clipPath id="clip0">
<rect width="201" height="189" fill="white"/>
</clipPath>
</defs>
</svg>
