<svg width="141" height="141" viewBox="0 0 141 141" fill="none" xmlns="http://www.w3.org/2000/svg">
<path d="M66.2122 92.531C62.3853 95.6424 56.6228 93.7697 55.3535 89.0035C54.5254 85.8924 51.6294 83.7885 48.4164 83.963C47.6318 84.0055 46.8825 83.9157 46.1836 83.718L35.6201 103.543L49.8036 102.229L56.6244 114.735L69.1963 91.1406C68.1297 91.3485 67.102 91.8084 66.2122 92.531Z" fill="#FFA800"/>
<path d="M101.946 55.1518C99.242 53.4034 98.1372 50.0004 99.2957 46.9962C101.07 42.3955 97.5096 37.4944 92.5842 37.7601C89.3704 37.9331 86.4744 35.8293 85.6457 32.7196C84.3784 27.9529 78.6158 26.0811 74.7879 29.1911C72.289 31.2207 68.7114 31.2207 66.2122 29.1911C62.3854 26.0813 56.6229 27.9532 55.3536 32.7196C54.5255 35.8293 51.6295 37.9331 48.4165 37.7601C43.4906 37.4944 39.9306 42.3958 41.705 46.9962C42.8624 50.0007 41.7567 53.4037 39.0557 55.1518C34.9144 57.8314 34.9144 63.8903 39.0557 66.5695C41.7567 68.318 42.8624 71.7224 41.705 74.725C39.9309 79.3276 43.4906 84.229 48.4165 83.9627C51.6298 83.7881 54.5258 85.892 55.3536 89.0031C56.6226 93.7693 62.3854 95.6417 66.2122 92.5306C68.7111 90.5024 72.2887 90.5024 74.7879 92.5306C78.6158 95.642 84.3784 93.7693 85.6457 89.0031C86.4747 85.892 89.3704 83.7881 92.5842 83.9627C97.5096 84.2287 101.07 79.3273 99.2957 74.725C98.1372 71.7224 99.242 68.3177 101.946 66.5695C106.086 63.8903 106.086 57.8314 101.946 55.1518Z" fill="#FF5C00"/>
<path d="M94.8167 83.718C94.1177 83.9157 93.3684 84.0055 92.5841 83.963C89.3703 83.7885 86.4743 85.8924 85.6456 89.0035C84.3783 93.7697 78.6157 95.6421 74.7878 92.531C73.898 91.8086 72.8702 91.3487 71.8042 91.1408L84.3761 114.735L91.1969 102.23L105.38 103.543L94.8167 83.718Z" fill="#FFA800"/>
<path d="M70.4989 37.4534C57.5721 37.4534 47.0918 47.9329 47.0918 60.8613C47.0918 73.7893 57.5721 84.2687 70.4989 84.2687C83.4274 84.2687 93.9082 73.789 93.9082 60.8613C93.9082 47.9329 83.4274 37.4534 70.4989 37.4534Z" fill="#FFBE1B"/>
<path d="M70.4989 43.2909C60.7952 43.2909 52.9279 51.1572 52.9279 60.8614C52.9279 70.565 60.7949 78.4321 70.4989 78.4321C80.2031 78.4321 88.0702 70.565 88.0702 60.8614C88.0702 51.1572 80.2031 43.2909 70.4989 43.2909Z" fill="#FFE37B"/>
<path d="M77.7677 62.0253C77.1409 61.3029 76.3004 60.826 75.2434 60.5993C75.5362 60.4693 75.7394 60.376 75.8531 60.3181C75.9666 60.2622 76.1709 60.1193 76.4629 59.8918C77.3248 59.2422 77.755 58.2499 77.755 56.9168C77.755 55.8108 77.3736 54.8205 76.6094 53.9431C76.1866 53.4711 75.5566 53.0979 74.7188 52.8192C74.4701 52.7372 74.2008 52.6708 73.9216 52.6141L73.4282 52.4059L72.6741 52.4059H70.9314H68.9257H68.1501H67.3961H65.9344H65.0989L65.0989 53.0989L65.0989 54.236V55.6241V66.2324V67.5356V68.6727V69.4517H65.9344H66.9139L67.2909 69.4308L68.9257 69.4517H70.9314L72.569 69.4308H73.323L73.9216 69.3788C75.5477 69.2033 76.7399 68.7041 77.4873 67.8677C78.2992 66.9575 78.7062 65.9083 78.7062 64.7208C78.7062 63.6479 78.3928 62.7507 77.7677 62.0253ZM68.9037 55.6238H70.7325C71.8539 55.6238 72.6495 55.7461 73.1207 55.9901C73.5933 56.2335 73.8282 56.7328 73.8282 57.4899C73.8282 58.245 73.5724 58.7379 73.0604 58.9646C72.5479 59.1926 71.7636 59.3063 70.708 59.3063H68.9037V55.6238ZM73.9637 65.8301C73.4176 66.0989 72.6008 66.2321 71.5119 66.2321H68.9037V62.3073H71.1464C72.4141 62.3073 73.3364 62.4334 73.9136 62.6843C74.4913 62.9371 74.7802 63.457 74.7802 64.2458C74.7805 65.0336 74.5084 65.5621 73.9637 65.8301Z" fill="white"/>
</svg>
