<svg width="53" height="53" viewBox="0 0 53 53" fill="none" xmlns="http://www.w3.org/2000/svg">
<path d="M26.6608 1.2619C25.5557 1.2619 24.9951 1.83734 24.5228 2.33437C24.0505 2.83107 23.6441 3.41476 23.2254 4.08679C22.3882 5.43021 21.535 7.12481 20.6968 8.84494C19.8587 10.5648 19.0411 12.3065 18.3437 13.6583C17.995 14.3342 17.6745 14.9139 17.4181 15.3192C17.2675 15.5573 17.1199 15.7262 17.0523 15.8079C16.9527 15.8465 16.7452 15.9301 16.4708 15.9944C16.0029 16.1038 15.3489 16.2197 14.5947 16.3294C13.0861 16.5482 11.1692 16.7551 9.26576 16.988C7.36233 17.2196 5.4784 17.4763 3.93239 17.8301C3.1594 18.0071 2.47372 18.2014 1.84912 18.4857C1.22453 18.7688 0.488678 19.1092 0.138705 20.1547C-0.211268 21.1999 0.172657 21.9121 0.500609 22.5137C0.828649 23.1152 1.25969 23.6812 1.77098 24.2857C2.79358 25.495 4.146 26.8277 5.5274 28.1544C6.9088 29.4808 8.31689 30.7942 9.39061 31.8735C9.9275 32.413 10.3815 32.8961 10.6891 33.2648C10.8695 33.4804 10.9845 33.6725 11.0416 33.762C11.0465 33.8681 11.0628 34.0906 11.0398 34.3714C11.0004 34.8492 10.9075 35.5048 10.7791 36.2541C10.5223 37.7525 10.1264 39.6348 9.76026 41.5119C9.39409 43.389 9.05546 45.255 8.91541 46.8306C8.84536 47.6185 8.81861 48.3286 8.89665 49.009C8.97479 49.689 9.07109 50.4922 9.95988 51.1468C10.8487 51.8018 11.6466 51.6579 12.3216 51.5324C12.9966 51.407 13.6694 51.1734 14.404 50.8755C15.8733 50.279 17.5625 49.408 19.2544 48.5079C20.9463 47.6074 22.634 46.6779 23.9951 45.993C24.6756 45.6507 25.2767 45.3698 25.7232 45.1919C25.9851 45.089 26.2035 45.0374 26.3065 45.0117C26.4088 45.0438 26.6265 45.0923 26.8871 45.2017C27.3307 45.3851 27.9273 45.6775 28.6022 46.0307C29.952 46.7375 31.6243 47.6939 33.3014 48.6214C34.9786 49.5488 36.6534 50.4467 38.1128 51.0663C38.8425 51.3751 39.5116 51.621 40.1845 51.7571C40.8574 51.8922 41.6529 52.05 42.5522 51.4095C43.4514 50.769 43.5606 49.9677 43.6497 49.289C43.7389 48.6102 43.7236 47.8994 43.6664 47.1102C43.5518 45.5326 43.2434 43.6615 42.9076 41.7786C42.5719 39.8956 42.2069 38.0081 41.9743 36.5058C41.858 35.7546 41.7757 35.0975 41.744 34.6188C41.7257 34.339 41.7455 34.1156 41.7522 34.0098C41.8106 33.9229 41.9287 33.7298 42.1126 33.5181C42.4261 33.1546 42.8878 32.6784 43.4333 32.1476C44.5244 31.0857 45.9536 29.7953 47.3563 28.4911C48.759 27.1873 50.1328 25.8761 51.1749 24.6835C51.6959 24.0871 52.1359 23.5284 52.4737 22.9323C52.8114 22.3362 53.207 21.6304 52.874 20.5794C52.541 19.5284 51.8105 19.1771 51.1906 18.8828C50.5706 18.59 49.8883 18.3834 49.1182 18.194C47.5782 17.815 45.6985 17.5293 43.7991 17.2658C41.8997 17.002 39.9865 16.7656 38.4817 16.522C37.7293 16.3998 37.0773 16.2743 36.6112 16.1572C36.3378 16.0864 36.1315 15.9997 36.0327 15.9611C35.9663 15.8774 35.8217 15.7068 35.6752 15.4669C35.4254 15.0573 35.1139 14.4726 34.7762 13.7912C34.1007 12.4282 33.3117 10.6739 32.5015 8.94057C31.6912 7.20725 30.8655 5.49909 30.0501 4.14216C29.6424 3.4637 29.2453 2.87355 28.7811 2.36912C28.317 1.86469 27.766 1.2715 26.6609 1.26249L26.6608 1.2619ZM26.6304 5.02299C26.8104 5.26105 26.9773 5.46372 27.2047 5.84236C27.8918 6.98568 28.6988 8.63464 29.4949 10.3374C30.2909 12.0405 31.0816 13.8018 31.8024 15.2562C32.1629 15.9835 32.5038 16.6328 32.8408 17.1855C33.1778 17.7382 33.4216 18.1839 34.0446 18.643C34.6677 19.1021 35.1669 19.2034 35.7956 19.3626C36.4243 19.5203 37.147 19.6554 37.9499 19.786C39.5557 20.0465 41.4759 20.2827 43.3421 20.5413C45.2083 20.8019 47.026 21.0854 48.3236 21.4049C48.7531 21.511 48.9954 21.6107 49.2774 21.7104C49.105 21.9549 48.9646 22.1755 48.674 22.5082C47.796 23.5132 46.4727 24.7882 45.0946 26.0696C43.7164 27.3509 42.2808 28.645 41.1165 29.778C40.5344 30.3445 40.0205 30.8686 39.5976 31.3588C39.1747 31.8494 38.8246 32.2182 38.5793 32.951C38.334 33.6839 38.3917 34.1887 38.4343 34.834C38.4769 35.4797 38.5718 36.2064 38.6959 37.008C38.9441 38.6114 39.3121 40.5061 39.6419 42.3558C39.9718 44.2056 40.2616 46.0178 40.3581 47.347C40.3899 47.7871 40.3694 48.0476 40.3599 48.3465C40.0733 48.2596 39.8196 48.192 39.4126 48.0205C38.1829 47.4984 36.558 46.6374 34.9102 45.7264C33.2624 44.815 31.5846 43.8537 30.1441 43.0996C29.4239 42.7226 28.7655 42.3969 28.1671 42.1473C27.5687 41.8996 27.1085 41.6801 26.3339 41.6737C25.5592 41.6737 25.0956 41.8795 24.4932 42.1182C23.8909 42.3595 23.227 42.6729 22.5008 43.0383C21.0484 43.7692 19.3553 44.7034 17.693 45.5877C16.0307 46.4724 14.3922 47.3071 13.1542 47.8093C12.7445 47.9765 12.4895 48.0378 12.2016 48.1215C12.197 47.8223 12.1808 47.5619 12.2197 47.1224C12.3377 45.7948 12.6568 43.9877 13.0166 42.1434C13.3764 40.2991 13.7747 38.4105 14.0488 36.8113C14.1858 36.0115 14.2925 35.2867 14.3456 34.642C14.3986 33.9973 14.4648 33.4937 14.2313 32.7571C14.2313 32.7569 14.2313 32.7568 14.2313 32.7567C13.9979 32.02 13.6534 31.6456 13.2385 31.1486C12.8236 30.6512 12.3185 30.119 11.7456 29.5432C10.5998 28.3915 9.18546 27.0741 7.82821 25.7709C6.47098 24.4677 5.16842 23.1716 4.30677 22.1528C4.02157 21.8156 3.88451 21.5928 3.71613 21.3454C3.99973 21.2489 4.24372 21.1523 4.67491 21.0526C5.97758 20.7534 7.79958 20.4983 9.66971 20.2696C11.5399 20.0412 13.4637 19.8352 15.0735 19.601C15.8784 19.4852 16.6031 19.3597 17.2343 19.212C17.8655 19.0641 18.3664 18.9708 18.9968 18.5211C19.6272 18.072 19.8781 17.63 20.224 17.0828C20.5699 16.5356 20.9213 15.8918 21.2934 15.1706C22.0377 13.7281 22.8568 11.9797 23.6803 10.2895C24.5038 8.5996 25.3374 6.96394 26.0429 5.83156C26.2765 5.4571 26.4465 5.25813 26.6303 5.02201L26.6304 5.02299Z" fill="#DADADA"/>
<path d="M26.6304 5.02302C26.8105 5.26107 26.9774 5.46374 27.2048 5.84238C27.8919 6.98571 28.6989 8.63467 29.4949 10.3374C30.291 12.0405 31.0817 13.8018 31.8025 15.2562C32.1629 15.9836 32.5039 16.6328 32.8409 17.1855C33.1779 17.7382 33.4217 18.184 34.0447 18.643C34.6678 19.1021 35.167 19.2034 35.7957 19.3627C36.4244 19.5203 37.147 19.6554 37.9499 19.786C39.5558 20.0466 41.476 20.2827 43.3422 20.5414C45.2084 20.8019 47.026 21.0854 48.3237 21.4049C48.7532 21.5111 48.9955 21.6107 49.2775 21.7104C49.1051 21.9549 48.9646 22.1756 48.6741 22.5082C47.7961 23.5132 46.4728 24.7883 45.0946 26.0696C43.7165 27.3509 42.2809 28.645 41.1166 29.7781C40.5344 30.3446 40.0205 30.8686 39.5976 31.3589C39.1747 31.8495 38.8247 32.2182 38.5794 32.9511C38.334 33.6839 38.3917 34.1887 38.4344 34.8341C38.477 35.4797 38.5719 36.2064 38.696 37.0081C38.9441 38.6114 39.3121 40.5061 39.642 42.3558C39.9719 44.2056 40.2616 46.0178 40.3582 47.3471C40.39 47.7872 40.3695 48.0476 40.3599 48.3465C40.0734 48.2596 39.8197 48.192 39.4127 48.0205C38.1829 47.4984 36.5581 46.6374 34.9103 45.7264C33.2625 44.815 31.5846 43.8537 30.1442 43.0996C29.424 42.7226 28.7655 42.397 28.1672 42.1473C27.5688 41.8996 27.1086 41.6802 26.3339 41.6737C25.5593 41.6737 25.0956 41.8796 24.4933 42.1183C23.8909 42.3595 23.2271 42.6729 22.5009 43.0384C21.0484 43.7693 19.3554 44.7034 17.6931 45.5878C16.0307 46.4724 14.3923 47.3071 13.1542 47.8093C12.7445 47.9766 12.4896 48.0378 12.2017 48.1215C12.1971 47.8223 12.1808 47.5619 12.2197 47.1224C12.3377 45.7948 12.6569 43.9877 13.0167 42.1434C13.3764 40.2991 13.7747 38.4105 14.0488 36.8113C14.1859 36.0116 14.2926 35.2867 14.3456 34.642C14.3987 33.9974 14.4648 33.4938 14.2314 32.7571V32.7567C13.998 32.02 13.6535 31.6456 13.2386 31.1486C12.8237 30.6512 12.3186 30.1191 11.7457 29.5432C10.5998 28.3915 9.18552 27.0741 7.82827 25.7709C6.47104 24.4677 5.16848 23.1716 4.30683 22.1528C4.02163 21.8157 3.88458 21.5928 3.71619 21.3454C3.99979 21.2489 4.24378 21.1524 4.67497 21.0526C5.97764 20.7535 7.79965 20.4983 9.66978 20.2696C11.5399 20.0412 13.4638 19.8352 15.0736 19.601C15.8785 19.4852 16.6032 19.3597 17.2344 19.2121C17.8656 19.0641 18.3665 18.9708 18.9969 18.5211C19.6273 18.072 19.8781 17.6301 20.2241 17.0828C20.57 16.5356 20.9214 15.8918 21.2935 15.1706C22.0378 13.7281 22.8569 11.9797 23.6804 10.2895C24.5039 8.59963 25.3375 6.96397 26.043 5.83159C26.2765 5.45713 26.4466 5.25816 26.6304 5.02203L26.6304 5.02302Z" fill="#E5E5E5"/>
</svg>
