<svg width="24" height="36" viewBox="0 0 24 36" fill="none" xmlns="http://www.w3.org/2000/svg">
<path d="M10.6885 1.18465e-07C10.4732 -9.60303e-05 10.2619 0.058337 10.0772 0.169049C9.89256 0.279762 9.74146 0.438589 9.64009 0.628544L0.139618 18.4434C0.0431345 18.6244 -0.00483373 18.8273 0.000384537 19.0324C0.0056028 19.2374 0.0638297 19.4376 0.169395 19.6134C0.274961 19.7893 0.424267 19.9348 0.602775 20.0358C0.781282 20.1369 0.982907 20.1899 1.18801 20.1899H6.92863L4.76453 34.2594C4.72557 34.5162 4.77191 34.7788 4.89642 35.0068C5.02094 35.2348 5.21677 35.4156 5.45392 35.5217C5.69106 35.6278 5.95644 35.6532 6.20939 35.594C6.46235 35.5348 6.68892 35.3943 6.85441 35.1941L23.4806 15.0042C23.6233 14.8304 23.7136 14.6197 23.7413 14.3966C23.7689 14.1734 23.7326 13.947 23.6367 13.7437C23.5407 13.5403 23.389 13.3684 23.1992 13.2479C23.0094 13.1274 22.7892 13.0632 22.5644 13.0629H15.0632L21.2306 1.75609C21.329 1.57531 21.3788 1.37207 21.375 1.16627C21.3712 0.960471 21.314 0.759189 21.209 0.582158C21.104 0.405126 20.9548 0.258423 20.776 0.156432C20.5972 0.05444 20.395 0.00066116 20.1892 0.000368177L10.6885 1.18465e-07Z" fill="white"/>
</svg>
