<svg xmlns="http://www.w3.org/2000/svg" viewBox="0 0 6.35 6.35"><path d="m 2.117786,290.91465 a 0.26456389,0.26457654 0 1 0 0,0.52901 h 0.7924585 v 0.54504 c -1.1872903,0.13279 -2.11649452,1.14281 -2.11649452,2.36457 0,1.31163 1.07097432,2.38214 2.38254152,2.38214 1.3115675,0 2.3799586,-1.07051 2.3799586,-2.38214 0,-1.22247 -0.9284409,-2.23324 -2.1164945,-2.36509 v -0.54452 h 0.7924586 a 0.26456389,0.26457654 0 1 0 0,-0.52901 z m 1.0585055,1.58756 c 1.0256777,0 1.8509641,0.82533 1.8509641,1.85106 0,1.02573 -0.8252864,1.85312 -1.8509641,1.85312 -1.0256774,0 -1.8530304,-0.82739 -1.8530304,-1.85312 0,-1.02573 0.827353,-1.85106 1.8530304,-1.85106 z m -0.00413,0.5249 a 0.26452372,0.26453635 0 0 0 -0.2619142,0.2676 v 1.32411 a 0.26452372,0.26453635 0 0 0 0.266047,0.26347 h 0.7924599 a 0.26455889,0.26457153 0 1 0 0,-0.52902 H 3.4397556 v -1.05856 a 0.26452372,0.26453635 0 0 0 -0.2675969,-0.2676 z" color="#000" font-family="sans-serif" font-weight="400" overflow="visible" transform="translate(0 -290.65)" style="line-height:normal;font-variant-ligatures:normal;font-variant-position:normal;font-variant-caps:normal;font-variant-numeric:normal;font-variant-alternates:normal;font-feature-settings:normal;text-indent:0;text-align:start;text-decoration-line:none;text-decoration-style:solid;text-decoration-color:#000;text-transform:none;text-orientation:mixed;shape-padding:0;isolation:auto;mix-blend-mode:normal" fill="white" /></svg>