<svg fill="white" xmlns="http://www.w3.org/2000/svg" width="64" height="64" enable-background="new 0 0 64 64" viewBox="0 0 64 64"><path d="M32,53.658c-8.346,0-15.135-9.96-15.135-22.202S23.654,9.254,32,9.254s15.135,9.96,15.135,22.202
				S40.346,53.658,32,53.658z M32,11.254c-7.242,0-13.135,9.063-13.135,20.202S24.758,51.658,32,51.658s13.135-9.063,13.135-20.202
				S39.242,11.254,32,11.254z"/><path d="M32,59.371c-10.7,0-19.406-12.279-19.406-27.371S21.3,4.629,32,4.629S51.406,16.908,51.406,32S42.7,59.371,32,59.371z
				 M32,6.629C22.402,6.629,14.594,18.01,14.594,32S22.402,57.371,32,57.371S49.406,45.99,49.406,32S41.598,6.629,32,6.629z"/><path d="M28.737 28.65c-.19 0-.383-.054-.554-.168-.46-.306-.584-.927-.277-1.387l6.523-9.785c.306-.459.925-.585 1.387-.277.46.306.584.927.277 1.387l-6.523 9.785C29.378 28.494 29.061 28.65 28.737 28.65zM28.737 35.718c-.19 0-.383-.054-.554-.168-.46-.306-.584-.927-.277-1.387l6.523-9.785c.306-.459.925-.585 1.387-.277.46.306.584.927.277 1.387l-6.523 9.785C29.378 35.562 29.061 35.718 28.737 35.718z"/></svg>