<svg width="69" height="69" viewBox="0 0 69 69" fill="none" xmlns="http://www.w3.org/2000/svg">
<path d="M34.125 0C27.3757 0 20.778 2.0014 15.1662 5.7511C9.55435 9.5008 5.18047 14.8304 2.59763 21.0659C0.0147858 27.3015 -0.661003 34.1629 0.655718 40.7825C1.97244 47.4021 5.22253 53.4826 9.995 58.255C14.7675 63.0275 20.848 66.2776 27.4676 67.5943C34.0872 68.911 40.9486 68.2352 47.1841 65.6524C53.4196 63.0695 58.7492 58.6957 62.4989 53.0838C66.2486 47.472 68.25 40.8743 68.25 34.125C68.25 25.0745 64.6547 16.3947 58.255 9.99498C51.8554 3.5953 43.1755 0 34.125 0ZM39.375 53.8125H28.875V46.83H39.375V53.8125ZM39.375 44.205H28.875V14.4375H39.375V44.205Z" fill="#00277D"/>
</svg>
